<svg version="1.1" viewBox="0.0 0.0 960.0 540.0" fill="none" stroke="none" stroke-linecap="square" stroke-miterlimit="10" xmlns:xlink="http://www.w3.org/1999/xlink" xmlns="http://www.w3.org/2000/svg"><clipPath id="g158d11114a9_0_159.0"><path d="m0 0l960.0 0l0 540.0l-960.0 0l0 -540.0z" clip-rule="nonzero"/></clipPath><g clip-path="url(#g158d11114a9_0_159.0)"><path fill="#ffffff" d="m0 0l960.0 0l0 540.0l-960.0 0z" fill-rule="evenodd"/><path fill="#57bb8a" d="m52.816273 52.803604l0 0c0 -12.51001 10.141365 -22.651373 22.651371 -22.651373l90.602776 0l0 0c6.0075073 0 11.768982 2.3864765 16.016937 6.634432c4.2479553 4.247959 6.63443 10.009422 6.63443 16.016941l0 413.09094c0 12.51001 -10.141373 22.651367 -22.651367 22.651367l-90.602776 0c-12.510006 0 -22.651371 -10.141357 -22.651371 -22.651367z" fill-rule="evenodd"/><path stroke="#b7b7b7" stroke-width="1.0" stroke-linejoin="round" stroke-linecap="butt" d="m52.816273 52.803604l0 0c0 -12.51001 10.141365 -22.651373 22.651371 -22.651373l90.602776 0l0 0c6.0075073 0 11.768982 2.3864765 16.016937 6.634432c4.2479553 4.247959 6.63443 10.009422 6.63443 16.016941l0 413.09094c0 12.51001 -10.141373 22.651367 -22.651367 22.651367l-90.602776 0c-12.510006 0 -22.651371 -10.141357 -22.651371 -22.651367z" fill-rule="evenodd"/><path fill="#000000" d="m70.897285 266.26907l0 -13.359375l5.046875 0q1.328125 0 2.03125 0.125q0.96875 0.171875 1.640625 0.640625q0.671875 0.453125 1.078125 1.28125q0.40625 0.828125 0.40625 1.828125q0 1.703125 -1.09375 2.890625q-1.078125 1.171875 -3.921875 1.171875l-3.421875 0l0 5.421875l-1.765625 0zm1.765625 -7.0l3.453125 0q1.71875 0 2.4375 -0.640625q0.71875 -0.640625 0.71875 -1.796875q0 -0.84375 -0.421875 -1.4375q-0.421875 -0.59375 -1.125 -0.78125q-0.4375 -0.125 -1.640625 -0.125l-3.421875 0l0 4.78125zm10.459198 7.0l0 -9.671875l1.46875 0l0 1.46875q0.5625 -1.03125 1.03125 -1.359375q0.484375 -0.328125 1.0625 -0.328125q0.828125 0 1.6875 0.53125l-0.5625 1.515625q-0.609375 -0.359375 -1.203125 -0.359375q-0.546875 0 -0.96875 0.328125q-0.421875 0.328125 -0.609375 0.890625q-0.28125 0.875 -0.28125 1.921875l0 5.0625l-1.625 0zm5.618927 -4.84375q0 -2.6875 1.484375 -3.96875q1.25 -1.078125 3.046875 -1.078125q2.0 0 3.265625 1.3125q1.265625 1.296875 1.265625 3.609375q0 1.859375 -0.5625 2.9375q-0.5625 1.0625 -1.640625 1.65625q-1.0625 0.59375 -2.328125 0.59375q-2.03125 0 -3.28125 -1.296875q-1.25 -1.3125 -1.25 -3.765625zm1.6875 0q0 1.859375 0.796875 2.796875q0.8125 0.921875 2.046875 0.921875q1.21875 0 2.03125 -0.921875q0.8125 -0.9375 0.8125 -2.84375q0 -1.796875 -0.8125 -2.71875q-0.8125 -0.921875 -2.03125 -0.921875q-1.234375 0 -2.046875 0.921875q-0.796875 0.90625 -0.796875 2.765625zm8.985092 5.640625l1.59375 0.234375q0.109375 0.75 0.5625 1.078125q0.609375 0.453125 1.671875 0.453125q1.140625 0 1.75 -0.453125q0.625 -0.453125 0.84375 -1.265625q0.125 -0.5 0.109375 -2.109375q-1.0625 1.265625 -2.671875 1.265625q-2.0 0 -3.09375 -1.4375q-1.09375 -1.4375 -1.09375 -3.453125q0 -1.390625 0.5 -2.5625q0.515625 -1.171875 1.453125 -1.796875q0.953125 -0.640625 2.25 -0.640625q1.703125 0 2.8125 1.375l0 -1.15625l1.515625 0l0 8.359375q0 2.265625 -0.46875 3.203125q-0.453125 0.9375 -1.453125 1.484375q-0.984375 0.546875 -2.453125 0.546875q-1.71875 0 -2.796875 -0.78125q-1.0625 -0.765625 -1.03125 -2.34375zm1.359375 -5.8125q0 1.90625 0.75 2.78125q0.765625 0.875 1.90625 0.875q1.125 0 1.890625 -0.859375q0.765625 -0.875 0.765625 -2.734375q0 -1.78125 -0.796875 -2.671875q-0.78125 -0.90625 -1.890625 -0.90625q-1.09375 0 -1.859375 0.890625q-0.765625 0.875 -0.765625 2.625zm9.313217 5.015625l0 -9.671875l1.46875 0l0 1.46875q0.5625 -1.03125 1.03125 -1.359375q0.484375 -0.328125 1.0625 -0.328125q0.828125 0 1.6875 0.53125l-0.5625 1.515625q-0.609375 -0.359375 -1.203125 -0.359375q-0.546875 0 -0.96875 0.328125q-0.421875 0.328125 -0.609375 0.890625q-0.28125 0.875 -0.28125 1.921875l0 5.0625l-1.625 0zm12.540802 -1.1875q-0.921875 0.765625 -1.765625 1.09375q-0.828125 0.3125 -1.796875 0.3125q-1.59375 0 -2.453125 -0.78125q-0.859375 -0.78125 -0.859375 -1.984375q0 -0.71875 0.328125 -1.296875q0.328125 -0.59375 0.84375 -0.9375q0.53125 -0.359375 1.1875 -0.546875q0.46875 -0.125 1.453125 -0.25q1.984375 -0.234375 2.921875 -0.5625q0.015625 -0.34375 0.015625 -0.421875q0 -1.0 -0.46875 -1.421875q-0.625 -0.546875 -1.875 -0.546875q-1.15625 0 -1.703125 0.40625q-0.546875 0.40625 -0.8125 1.421875l-1.609375 -0.21875q0.21875 -1.015625 0.71875 -1.640625q0.5 -0.640625 1.453125 -0.984375q0.953125 -0.34375 2.1875 -0.34375q1.25 0 2.015625 0.296875q0.78125 0.28125 1.140625 0.734375q0.375 0.4375 0.515625 1.109375q0.078125 0.421875 0.078125 1.515625l0 2.1875q0 2.28125 0.109375 2.890625q0.109375 0.59375 0.40625 1.15625l-1.703125 0q-0.265625 -0.515625 -0.328125 -1.1875zm-0.140625 -3.671875q-0.890625 0.375 -2.671875 0.625q-1.015625 0.140625 -1.4375 0.328125q-0.421875 0.1875 -0.65625 0.53125q-0.21875 0.34375 -0.21875 0.78125q0 0.65625 0.5 1.09375q0.5 0.4375 1.453125 0.4375q0.9375 0 1.671875 -0.40625q0.75 -0.421875 1.09375 -1.140625q0.265625 -0.5625 0.265625 -1.640625l0 -0.609375zm4.203842 4.859375l0 -9.671875l1.4687576 0l0 1.359375q0.453125 -0.71875 1.203125 -1.140625q0.765625 -0.4375 1.71875 -0.4375q1.078125 0 1.765625 0.453125q0.6875 0.4375 0.96875 1.234375q1.15625 -1.6875 2.984375 -1.6875q1.453125 0 2.21875 0.796875q0.78125 0.796875 0.78125 2.453125l0 6.640625l-1.640625 0l0 -6.09375q0 -0.984375 -0.15625 -1.40625q-0.15625 -0.4375 -0.578125 -0.703125q-0.421875 -0.265625 -0.984375 -0.265625q-1.015625 0 -1.6875 0.6875q-0.671875 0.671875 -0.671875 2.15625l0 5.625l-1.640625 0l0 -6.28125q0 -1.09375 -0.40625 -1.640625q-0.40625 -0.546875 -1.3125 -0.546875q-0.6875 0 -1.28125 0.359375q-0.59375 0.359375 -0.859375 1.0625q-0.25 0.703125 -0.25 2.03125l0 5.015625l-1.6406326 0zm15.54081 0l0 -9.671875l1.46875 0l0 1.359375q0.453125 -0.71875 1.203125 -1.140625q0.765625 -0.4375 1.71875 -0.4375q1.078125 0 1.765625 0.453125q0.6875 0.4375 0.96875 1.234375q1.15625 -1.6875 2.984375 -1.6875q1.453125 0 2.21875 0.796875q0.78125 0.796875 0.78125 2.453125l0 6.640625l-1.640625 0l0 -6.09375q0 -0.984375 -0.15625 -1.40625q-0.15625 -0.4375 -0.578125 -0.703125q-0.421875 -0.265625 -0.984375 -0.265625q-1.015625 0 -1.6875 0.6875q-0.671875 0.671875 -0.671875 2.15625l0 5.625l-1.640625 0l0 -6.28125q0 -1.09375 -0.40625 -1.640625q-0.40625 -0.546875 -1.3125 -0.546875q-0.6875 0 -1.28125 0.359375q-0.59375 0.359375 -0.859375 1.0625q-0.25 0.703125 -0.25 2.03125l0 5.015625l-1.640625 0zm15.540802 0l0 -9.671875l1.46875 0l0 1.359375q0.453125 -0.71875 1.203125 -1.140625q0.765625 -0.4375 1.71875 -0.4375q1.078125 0 1.765625 0.453125q0.6875 0.4375 0.96875 1.234375q1.15625 -1.6875 2.984375 -1.6875q1.453125 0 2.21875 0.796875q0.78125 0.796875 0.78125 2.453125l0 6.640625l-1.640625 0l0 -6.09375q0 -0.984375 -0.15625 -1.40625q-0.15625 -0.4375 -0.578125 -0.703125q-0.421875 -0.265625 -0.984375 -0.265625q-1.015625 0 -1.6875 0.6875q-0.671875 0.671875 -0.671875 2.15625l0 5.625l-1.640625 0l0 -6.28125q0 -1.09375 -0.40625 -1.640625q-0.40625 -0.546875 -1.3125 -0.546875q-0.6875 0 -1.28125 0.359375q-0.59375 0.359375 -0.859375 1.0625q-0.25 0.703125 -0.25 2.03125l0 5.015625l-1.640625 0z" fill-rule="nonzero"/><path fill="#57bb8a" d="m253.90027 30.152231l108.566925 0l0 50.14173l-108.566925 0z" fill-rule="evenodd"/><path stroke="#b7b7b7" stroke-width="1.0" stroke-linejoin="round" stroke-linecap="butt" d="m253.90027 30.152231l108.566925 0l0 50.14173l-108.566925 0z" fill-rule="evenodd"/><path fill="#000000" d="m264.33777 62.143093l0 -13.359375l5.046875 0q1.328125 0 2.03125 0.125q0.96875 0.171875 1.640625 0.640625q0.671875 0.453125 1.078125 1.28125q0.40625 0.828125 0.40625 1.828125q0 1.703125 -1.09375 2.890625q-1.078125 1.171875 -3.921875 1.171875l-3.421875 0l0 5.421875l-1.765625 0zm1.765625 -7.0l3.453125 0q1.71875 0 2.4375 -0.640625q0.71875 -0.640625 0.71875 -1.796875q0 -0.84375 -0.421875 -1.4375q-0.421875 -0.59375 -1.125 -0.78125q-0.4375 -0.125 -1.640625 -0.125l-3.421875 0l0 4.78125zm10.459198 7.0l0 -9.671875l1.46875 0l0 1.46875q0.5625 -1.03125 1.03125 -1.359375q0.484375 -0.328125 1.0625 -0.328125q0.828125 0 1.6875 0.53125l-0.5625 1.515625q-0.609375 -0.359375 -1.203125 -0.359375q-0.546875 0 -0.96875 0.328125q-0.421875 0.328125 -0.609375 0.890625q-0.28125 0.875 -0.28125 1.921875l0 5.0625l-1.625 0zm5.618927 -4.84375q0 -2.6875 1.484375 -3.96875q1.25 -1.078125 3.046875 -1.078125q2.0 0 3.265625 1.3125q1.265625 1.296875 1.265625 3.609375q0 1.859375 -0.5625 2.9375q-0.5625 1.0625 -1.640625 1.65625q-1.0625 0.59375 -2.328125 0.59375q-2.03125 0 -3.28125 -1.296875q-1.25 -1.3125 -1.25 -3.765625zm1.6875 0q0 1.859375 0.796875 2.796875q0.8125 0.921875 2.046875 0.921875q1.21875 0 2.03125 -0.921875q0.8125 -0.9375 0.8125 -2.84375q0 -1.796875 -0.8125 -2.71875q-0.8125 -0.921875 -2.03125 -0.921875q-1.234375 0 -2.046875 0.921875q-0.796875 0.90625 -0.796875 2.765625zm8.985077 5.640625l1.59375 0.234375q0.109375 0.75 0.5625 1.0781288q0.609375 0.453125 1.671875 0.453125q1.140625 0 1.75 -0.453125q0.625 -0.4531288 0.84375 -1.2656288q0.125 -0.5 0.109375 -2.109375q-1.0625 1.265625 -2.671875 1.265625q-2.0 0 -3.09375 -1.4375q-1.09375 -1.4375 -1.09375 -3.453125q0 -1.390625 0.5 -2.5625q0.515625 -1.171875 1.453125 -1.796875q0.953125 -0.640625 2.25 -0.640625q1.703125 0 2.8125 1.375l0 -1.15625l1.515625 0l0 8.359375q0 2.265625 -0.46875 3.2031288q-0.453125 0.9375 -1.453125 1.484375q-0.984375 0.546875 -2.453125 0.546875q-1.71875 0 -2.796875 -0.78125q-1.0625 -0.765625 -1.03125 -2.3437538zm1.359375 -5.8125q0 1.90625 0.75 2.78125q0.765625 0.875 1.90625 0.875q1.125 0 1.890625 -0.859375q0.765625 -0.875 0.765625 -2.734375q0 -1.78125 -0.796875 -2.671875q-0.78125 -0.90625 -1.890625 -0.90625q-1.09375 0 -1.859375 0.890625q-0.765625 0.875 -0.765625 2.625zm9.313232 5.015625l0 -9.671875l1.46875 0l0 1.46875q0.5625 -1.03125 1.03125 -1.359375q0.484375 -0.328125 1.0625 -0.328125q0.828125 0 1.6875 0.53125l-0.5625 1.515625q-0.609375 -0.359375 -1.203125 -0.359375q-0.546875 0 -0.96875 0.328125q-0.421875 0.328125 -0.609375 0.890625q-0.28125 0.875 -0.28125 1.921875l0 5.0625l-1.625 0zm12.540802 -1.1875q-0.921875 0.765625 -1.765625 1.09375q-0.828125 0.3125 -1.796875 0.3125q-1.59375 0 -2.453125 -0.78125q-0.859375 -0.78125 -0.859375 -1.984375q0 -0.71875 0.328125 -1.296875q0.328125 -0.59375 0.84375 -0.9375q0.53125 -0.359375 1.1875 -0.546875q0.46875 -0.125 1.453125 -0.25q1.984375 -0.234375 2.921875 -0.5625q0.015625 -0.34375 0.015625 -0.421875q0 -1.0 -0.46875 -1.421875q-0.625 -0.546875 -1.875 -0.546875q-1.15625 0 -1.703125 0.40625q-0.546875 0.40625 -0.8125 1.421875l-1.609375 -0.21875q0.21875 -1.015625 0.71875 -1.640625q0.5 -0.640625 1.453125 -0.984375q0.953125 -0.34375 2.1875 -0.34375q1.25 0 2.015625 0.296875q0.78125 0.28125 1.140625 0.734375q0.375 0.4375 0.515625 1.109375q0.078125 0.421875 0.078125 1.515625l0 2.1875q0 2.28125 0.109375 2.890625q0.109375 0.59375 0.40625 1.15625l-1.703125 0q-0.265625 -0.515625 -0.328125 -1.1875zm-0.140625 -3.671875q-0.890625 0.375 -2.671875 0.625q-1.015625 0.140625 -1.4375 0.328125q-0.421875 0.1875 -0.65625 0.53125q-0.21875 0.34375 -0.21875 0.78125q0 0.65625 0.5 1.09375q0.5 0.4375 1.453125 0.4375q0.9375 0 1.671875 -0.40625q0.75 -0.421875 1.09375 -1.140625q0.265625 -0.5625 0.265625 -1.640625l0 -0.609375zm4.203827 4.859375l0 -9.671875l1.46875 0l0 1.359375q0.453125 -0.71875 1.203125 -1.140625q0.765625 -0.4375 1.71875 -0.4375q1.078125 0 1.765625 0.453125q0.6875 0.4375 0.96875 1.234375q1.15625 -1.6875 2.984375 -1.6875q1.453125 0 2.21875 0.796875q0.78125 0.796875 0.78125 2.453125l0 6.640625l-1.640625 0l0 -6.09375q0 -0.984375 -0.15625 -1.40625q-0.15625 -0.4375 -0.578125 -0.703125q-0.421875 -0.265625 -0.984375 -0.265625q-1.015625 0 -1.6875 0.6875q-0.671875 0.671875 -0.671875 2.15625l0 5.625l-1.640625 0l0 -6.28125q0 -1.09375 -0.40625 -1.640625q-0.40625 -0.546875 -1.3125 -0.546875q-0.6875 0 -1.28125 0.359375q-0.59375 0.359375 -0.859375 1.0625q-0.25 0.703125 -0.25 2.03125l0 5.015625l-1.640625 0zm15.540802 0l0 -9.671875l1.46875 0l0 1.359375q0.453125 -0.71875 1.203125 -1.140625q0.765625 -0.4375 1.71875 -0.4375q1.078125 0 1.765625 0.453125q0.6875 0.4375 0.96875 1.234375q1.15625 -1.6875 2.984375 -1.6875q1.453125 0 2.21875 0.796875q0.78125 0.796875 0.78125 2.453125l0 6.640625l-1.640625 0l0 -6.09375q0 -0.984375 -0.15625 -1.40625q-0.15625 -0.4375 -0.578125 -0.703125q-0.421875 -0.265625 -0.984375 -0.265625q-1.015625 0 -1.6875 0.6875q-0.671875 0.671875 -0.671875 2.15625l0 5.625l-1.640625 0l0 -6.28125q0 -1.09375 -0.40625 -1.640625q-0.40625 -0.546875 -1.3125 -0.546875q-0.6875 0 -1.28125 0.359375q-0.59375 0.359375 -0.859375 1.0625q-0.25 0.703125 -0.25 2.03125l0 5.015625l-1.640625 0z" fill-rule="nonzero"/><path fill="#6d9eeb" d="m376.95013 188.51181l273.6693 0l0 -10.18898l20.37793 20.37796l-20.37793 20.377945l0 -10.188965l-273.6693 0z" fill-rule="evenodd"/><path stroke="#b7b7b7" stroke-width="1.0" stroke-linejoin="round" stroke-linecap="butt" d="m376.95013 188.51181l273.6693 0l0 -10.18898l20.37793 20.37796l-20.37793 20.377945l0 -10.188965l-273.6693 0z" fill-rule="evenodd"/><path fill="#6d9eeb" d="m244.60367 183.31026l101.83325 0l0 41.756927c-50.91388 0 -50.91388 16.065948 -101.83325 8.032974zm8.389816 0l0 -5.4135284l101.13774 0l0 42.018875c-3.8444214 0 -7.6943054 0.29104614 -7.6943054 0.29104614l0 -36.896393zm7.885971 -5.4135284l0 -5.2825623l102.01398 0l0 41.88791c-4.3811035 0 -8.762207 0.21827698 -8.762207 0.21827698l0 -36.823624z" fill-rule="evenodd"/><path fill="#000000" fill-opacity="0.0" d="m244.60367 183.31026l101.83325 0l0 41.756927c-50.91388 0 -50.91388 16.065948 -101.83325 8.032974zm8.389816 0l0 -5.4135284l101.13774 0l0 42.018875c-3.8444214 0 -7.6943054 0.29104614 -7.6943054 0.29104614m-85.557465 -42.30992l0 -5.2825623l102.01398 0l0 41.88791c-4.3811035 0 -8.762207 0.21827698 -8.762207 0.21827698" fill-rule="evenodd"/><path fill="#000000" fill-opacity="0.0" d="m244.60367 233.10016c50.919373 8.032974 50.919373 -8.032974 101.83325 -8.032974l0 -4.8605347c0 0 3.849884 -0.29104614 7.6943054 -0.29104614l0 -5.1952515c0 0 4.3811035 -0.21827698 8.762207 -0.21827698l0 -41.88791l-102.01398 0l0 5.2825623l-7.885971 0l0 5.4135284l-8.389816 0z" fill-rule="evenodd"/><path stroke="#b7b7b7" stroke-width="1.0" stroke-linejoin="round" stroke-linecap="butt" d="m244.60367 183.31026l101.83325 0l0 41.756927c-50.91388 0 -50.91388 16.065948 -101.83325 8.032974zm8.389816 0l0 -5.4135284l101.13774 0l0 42.018875c-3.8444214 0 -7.6943054 0.29104614 -7.6943054 0.29104614m-85.557465 -42.30992l0 -5.2825623l102.01398 0l0 41.88791c-4.3811035 0 -8.762207 0.21827698 -8.762207 0.21827698" fill-rule="evenodd"/><path fill="#000000" d="m254.44742 210.82832l1.65625 -0.140625q0.125 1.0 0.546875 1.640625q0.4375 0.640625 1.34375 1.046875q0.921875 0.390625 2.0625 0.390625q1.0 0 1.78125 -0.296875q0.78125 -0.296875 1.15625 -0.8125q0.375 -0.53125 0.375 -1.15625q0 -0.625 -0.375 -1.09375q-0.359375 -0.46875 -1.1875 -0.796875q-0.546875 -0.203125 -2.390625 -0.640625q-1.828125 -0.453125 -2.5625 -0.84375q-0.96875 -0.5 -1.4375 -1.234375q-0.46875 -0.75 -0.46875 -1.671875q0 -1.0 0.578125 -1.875q0.578125 -0.890625 1.671875 -1.34375q1.109375 -0.453125 2.453125 -0.453125q1.484375 0 2.609375 0.484375q1.140625 0.46875 1.75 1.40625q0.609375 0.921875 0.65625 2.09375l-1.6875 0.125q-0.140625 -1.265625 -0.9375 -1.90625q-0.78125 -0.65625 -2.3125 -0.65625q-1.609375 0 -2.34375 0.59375q-0.734375 0.59375 -0.734375 1.421875q0 0.71875 0.53125 1.171875q0.5 0.46875 2.65625 0.96875q2.15625 0.484375 2.953125 0.84375q1.171875 0.53125 1.71875 1.359375q0.5625 0.828125 0.5625 1.90625q0 1.0625 -0.609375 2.015625q-0.609375 0.9375 -1.75 1.46875q-1.140625 0.515625 -2.578125 0.515625q-1.8125 0 -3.046875 -0.53125q-1.21875 -0.53125 -1.921875 -1.59375q-0.6875 -1.0625 -0.71875 -2.40625zm16.412323 2.828125l0.234375 1.453125q-0.6875 0.140625 -1.234375 0.140625q-0.890625 0 -1.390625 -0.28125q-0.484375 -0.28125 -0.6875 -0.734375q-0.203125 -0.46875 -0.203125 -1.9375l0 -5.578125l-1.203125 0l0 -1.265625l1.203125 0l0 -2.390625l1.625 -0.984375l0 3.375l1.65625 0l0 1.265625l-1.65625 0l0 5.671875q0 0.6875 0.078125 0.890625q0.09375 0.203125 0.28125 0.328125q0.203125 0.109375 0.578125 0.109375q0.265625 0 0.71875 -0.0625zm7.917694 0.28125q-0.921875 0.765625 -1.765625 1.09375q-0.828125 0.3125 -1.796875 0.3125q-1.59375 0 -2.453125 -0.78125q-0.859375 -0.78125 -0.859375 -1.984375q0 -0.71875 0.328125 -1.296875q0.328125 -0.59375 0.84375 -0.9375q0.53125 -0.359375 1.1875 -0.546875q0.46875 -0.125 1.453125 -0.25q1.984375 -0.234375 2.921875 -0.5625q0.015625 -0.34375 0.015625 -0.421875q0 -1.0 -0.46875 -1.421875q-0.625 -0.546875 -1.875 -0.546875q-1.15625 0 -1.703125 0.40625q-0.546875 0.40625 -0.8125 1.421875l-1.609375 -0.21875q0.21875 -1.015625 0.71875 -1.640625q0.5 -0.640625 1.453125 -0.984375q0.953125 -0.34375 2.1875 -0.34375q1.25 0 2.015625 0.296875q0.78125 0.28125 1.140625 0.734375q0.375 0.4375 0.515625 1.109375q0.078125 0.421875 0.078125 1.515625l0 2.1875q0 2.28125 0.109375 2.890625q0.109375 0.59375 0.40625 1.15625l-1.703125 0q-0.265625 -0.515625 -0.328125 -1.1875zm-0.140625 -3.671875q-0.890625 0.375 -2.671875 0.625q-1.015625 0.140625 -1.4375 0.328125q-0.421875 0.1875 -0.65625 0.53125q-0.21875 0.34375 -0.21875 0.78125q0 0.65625 0.5 1.09375q0.5 0.4375 1.453125 0.4375q0.9375 0 1.671875 -0.40625q0.75 -0.421875 1.09375 -1.140625q0.265625 -0.5625 0.265625 -1.640625l0 -0.609375zm10.516327 1.3125l1.609375 0.21875q-0.265625 1.65625 -1.359375 2.609375q-1.078125 0.9375 -2.671875 0.9375q-1.984375 0 -3.1875 -1.296875q-1.203125 -1.296875 -1.203125 -3.71875q0 -1.578125 0.515625 -2.75q0.515625 -1.171875 1.578125 -1.75q1.0625 -0.59375 2.3125 -0.59375q1.578125 0 2.578125 0.796875q1.0 0.796875 1.28125 2.265625l-1.59375 0.234375q-0.234375 -0.96875 -0.8125 -1.453125q-0.578125 -0.5 -1.390625 -0.5q-1.234375 0 -2.015625 0.890625q-0.78125 0.890625 -0.78125 2.8125q0 1.953125 0.75 2.84375q0.75 0.875 1.953125 0.875q0.96875 0 1.609375 -0.59375q0.65625 -0.59375 0.828125 -1.828125zm3.015625 3.546875l0 -13.359375l1.640625 0l0 7.625l3.890625 -3.9375l2.109375 0l-3.6875 3.59375l4.0625 6.078125l-2.015625 0l-3.203125 -4.953125l-1.15625 1.125l0 3.828125l-1.640625 0z" fill-rule="nonzero"/><path fill="#6d9eeb" d="m699.06036 179.98425l89.8504 0l0 56.149612l-89.8504 0z" fill-rule="evenodd"/><path fill="#577ebb" d="m788.91077 179.98425l18.716553 -18.716537l0 56.149612l-18.716553 18.716537z" fill-rule="evenodd"/><path fill="#8ab1ef" d="m699.06036 179.98425l18.716553 -18.716537l89.8504 0l-18.716553 18.716537z" fill-rule="evenodd"/><path fill="#000000" fill-opacity="0.0" d="m699.06036 179.98425l18.716553 -18.716537l89.8504 0l0 56.149612l-18.716553 18.716537l-89.8504 0zm0 0l89.8504 0l18.716553 -18.716537m-18.716553 18.716537l0 56.149612" fill-rule="evenodd"/><path stroke="#b7b7b7" stroke-width="1.0" stroke-linejoin="round" stroke-linecap="butt" d="m699.06036 179.98425l18.716553 -18.716537l89.8504 0l0 56.149612l-18.716553 18.716537l-89.8504 0zm0 0l89.8504 0l18.716553 -18.716537m-18.716553 18.716537l0 56.149612" fill-rule="evenodd"/><path fill="#000000" d="m709.56036 214.97905l0 -13.359375l1.765625 0l0 5.484375l6.9375 0l0 -5.484375l1.765625 0l0 13.359375l-1.765625 0l0 -6.296875l-6.9375 0l0 6.296875l-1.765625 0zm19.832336 -3.109375l1.6875 0.203125q-0.40625 1.484375 -1.484375 2.3125q-1.078125 0.8125 -2.765625 0.8125q-2.125 0 -3.375 -1.296875q-1.234375 -1.3125 -1.234375 -3.671875q0 -2.453125 1.25 -3.796875q1.265625 -1.34375 3.265625 -1.34375q1.9375 0 3.15625 1.328125q1.234375 1.3125 1.234375 3.703125q0 0.15625 0 0.4375l-7.21875 0q0.09375 1.59375 0.90625 2.453125q0.8125 0.84375 2.015625 0.84375q0.90625 0 1.546875 -0.46875q0.640625 -0.484375 1.015625 -1.515625zm-5.390625 -2.65625l5.40625 0q-0.109375 -1.21875 -0.625 -1.828125q-0.78125 -0.953125 -2.03125 -0.953125q-1.125 0 -1.90625 0.765625q-0.765625 0.75 -0.84375 2.015625zm15.453857 4.578125q-0.921875 0.765625 -1.765625 1.09375q-0.828125 0.3125 -1.796875 0.3125q-1.59375 0 -2.453125 -0.78125q-0.859375 -0.78125 -0.859375 -1.984375q0 -0.71875 0.328125 -1.296875q0.328125 -0.59375 0.84375 -0.9375q0.53125 -0.359375 1.1875 -0.546875q0.46875 -0.125 1.453125 -0.25q1.984375 -0.234375 2.921875 -0.5625q0.015625 -0.34375 0.015625 -0.421875q0 -1.0 -0.46875 -1.421875q-0.625 -0.546875 -1.875 -0.546875q-1.15625 0 -1.703125 0.40625q-0.546875 0.40625 -0.8125 1.421875l-1.609375 -0.21875q0.21875 -1.015625 0.71875 -1.640625q0.5 -0.640625 1.453125 -0.984375q0.953125 -0.34375 2.1875 -0.34375q1.25 0 2.015625 0.296875q0.78125 0.28125 1.140625 0.734375q0.375 0.4375 0.515625 1.109375q0.078125 0.421875 0.078125 1.515625l0 2.1875q0 2.28125 0.109375 2.890625q0.109375 0.59375 0.40625 1.15625l-1.703125 0q-0.265625 -0.515625 -0.328125 -1.1875zm-0.140625 -3.671875q-0.890625 0.375 -2.671875 0.625q-1.015625 0.140625 -1.4375 0.328125q-0.421875 0.1875 -0.65625 0.53125q-0.21875 0.34375 -0.21875 0.78125q0 0.65625 0.5 1.09375q0.5 0.4375 1.453125 0.4375q0.9375 0 1.671875 -0.40625q0.75 -0.421875 1.09375 -1.140625q0.265625 -0.5625 0.265625 -1.640625l0 -0.609375zm4.2037964 8.5625l0 -13.375l1.484375 0l0 1.25q0.53125 -0.734375 1.1875 -1.09375q0.671875 -0.375 1.625 -0.375q1.234375 0 2.171875 0.640625q0.953125 0.625 1.4375 1.796875q0.484375 1.15625 0.484375 2.546875q0 1.484375 -0.53125 2.671875q-0.53125 1.1875 -1.546875 1.828125q-1.015625 0.625 -2.140625 0.625q-0.8125 0 -1.46875 -0.34375q-0.65625 -0.34375 -1.0625 -0.875l0 4.703125l-1.640625 0zm1.484375 -8.484375q0 1.859375 0.75 2.765625q0.765625 0.890625 1.828125 0.890625q1.09375 0 1.875 -0.921875q0.78125 -0.9375 0.78125 -2.875q0 -1.84375 -0.765625 -2.765625q-0.75 -0.921875 -1.8125 -0.921875q-1.046875 0 -1.859375 0.984375q-0.796875 0.96875 -0.796875 2.84375z" fill-rule="nonzero"/><path fill="#ffd966" d="m402.7594 105.680824l6.694275 18.313751l-6.0463257 -1.6308365l10.925751 18.57077l-6.2022095 -1.349823l11.183014 27.150223l-27.224457 -31.15097l7.4360657 1.8947296l-16.784668 -19.590927l8.92514 1.7717972l-17.751404 -20.631348z" fill-rule="evenodd"/><path stroke="#b7b7b7" stroke-width="1.0" stroke-linejoin="round" stroke-linecap="butt" d="m402.7594 105.680824l6.694275 18.313751l-6.0463257 -1.6308365l10.925751 18.57077l-6.2022095 -1.349823l11.183014 27.150223l-27.224457 -31.15097l7.4360657 1.8947296l-16.784668 -19.590927l8.92514 1.7717972l-17.751404 -20.631348z" fill-rule="evenodd"/><path fill="#cc0000" d="m300.60367 131.75853l0 0c0 -17.360008 14.073059 -31.433067 31.433075 -31.433067l0 0c8.336578 0 16.331696 3.3116837 22.226532 9.206528c5.894867 5.894844 9.206543 13.889969 9.206543 22.22654l0 0c0 17.36 -14.073059 31.433075 -31.433075 31.433075l0 0c-17.360016 0 -31.433075 -14.073074 -31.433075 -31.433075zm48.73053 9.314011c4.1131287 -7.6387024 2.7287598 -17.070961 -3.4058533 -23.205597c-6.1346436 -6.134636 -15.566925 -7.518997 -23.205597 -3.405861zm-34.59491 -18.628021l0 0c-4.1131287 7.6387024 -2.7287598 17.070953 3.4058838 23.205597c6.134613 6.1346436 15.566895 7.518997 23.205566 3.4058533z" fill-rule="evenodd"/><path stroke="#b7b7b7" stroke-width="1.0" stroke-linejoin="round" stroke-linecap="butt" d="m300.60367 131.75853l0 0c0 -17.360008 14.073059 -31.433067 31.433075 -31.433067l0 0c8.336578 0 16.331696 3.3116837 22.226532 9.206528c5.894867 5.894844 9.206543 13.889969 9.206543 22.22654l0 0c0 17.36 -14.073059 31.433075 -31.433075 31.433075l0 0c-17.360016 0 -31.433075 -14.073074 -31.433075 -31.433075zm48.73053 9.314011c4.1131287 -7.6387024 2.7287598 -17.070961 -3.4058533 -23.205597c-6.1346436 -6.134636 -15.566925 -7.518997 -23.205597 -3.405861zm-34.59491 -18.628021l0 0c-4.1131287 7.6387024 -2.7287598 17.070953 3.4058838 23.205597c6.134613 6.1346436 15.566895 7.518997 23.205566 3.4058533z" fill-rule="evenodd"/><path fill="#57bb8a" d="m243.62204 397.9895l112.25198 0l0 50.141724l-112.25198 0z" fill-rule="evenodd"/><path stroke="#b7b7b7" stroke-width="1.0" stroke-linejoin="round" stroke-linecap="butt" d="m243.62204 397.9895l112.25198 0l0 50.141724l-112.25198 0z" fill-rule="evenodd"/><path fill="#000000" d="m254.05954 418.98038l0 -13.359375l5.046875 0q1.328125 0 2.03125 0.125q0.96875 0.171875 1.640625 0.640625q0.671875 0.453125 1.078125 1.28125q0.40625 0.828125 0.40625 1.828125q0 1.703125 -1.09375 2.890625q-1.078125 1.171875 -3.921875 1.171875l-3.421875 0l0 5.421875l-1.765625 0zm1.765625 -7.0l3.453125 0q1.71875 0 2.4375 -0.640625q0.71875 -0.640625 0.71875 -1.796875q0 -0.84375 -0.421875 -1.4375q-0.421875 -0.59375 -1.125 -0.78125q-0.4375 -0.125 -1.640625 -0.125l-3.421875 0l0 4.78125zm10.459198 7.0l0 -9.671875l1.46875 0l0 1.46875q0.5625 -1.03125 1.03125 -1.359375q0.484375 -0.328125 1.0625 -0.328125q0.828125 0 1.6875 0.53125l-0.5625 1.515625q-0.609375 -0.359375 -1.203125 -0.359375q-0.546875 0 -0.96875 0.328125q-0.421875 0.328125 -0.609375 0.890625q-0.28125 0.875 -0.28125 1.921875l0 5.0625l-1.625 0zm5.618927 -4.84375q0 -2.6875 1.484375 -3.96875q1.25 -1.078125 3.046875 -1.078125q2.0 0 3.265625 1.3125q1.265625 1.296875 1.265625 3.609375q0 1.859375 -0.5625 2.9375q-0.5625 1.0625 -1.640625 1.65625q-1.0625 0.59375 -2.328125 0.59375q-2.03125 0 -3.28125 -1.296875q-1.25 -1.3125 -1.25 -3.765625zm1.6875 0q0 1.859375 0.796875 2.796875q0.8125 0.921875 2.046875 0.921875q1.21875 0 2.03125 -0.921875q0.8125 -0.9375 0.8125 -2.84375q0 -1.796875 -0.8125 -2.71875q-0.8125 -0.921875 -2.03125 -0.921875q-1.234375 0 -2.046875 0.921875q-0.796875 0.90625 -0.796875 2.765625zm8.985107 5.640625l1.59375 0.234375q0.109375 0.75 0.5625 1.078125q0.609375 0.453125 1.671875 0.453125q1.140625 0 1.75 -0.453125q0.625 -0.453125 0.84375 -1.265625q0.125 -0.5 0.109375 -2.109375q-1.0625 1.265625 -2.671875 1.265625q-2.0 0 -3.09375 -1.4375q-1.09375 -1.4375 -1.09375 -3.453125q0 -1.390625 0.5 -2.5625q0.515625 -1.171875 1.453125 -1.796875q0.953125 -0.640625 2.25 -0.640625q1.703125 0 2.8125 1.375l0 -1.15625l1.515625 0l0 8.359375q0 2.265625 -0.46875 3.203125q-0.453125 0.9375 -1.453125 1.484375q-0.984375 0.546875 -2.453125 0.546875q-1.71875 0 -2.796875 -0.78125q-1.0625 -0.765625 -1.03125 -2.34375zm1.359375 -5.8125q0 1.90625 0.75 2.78125q0.765625 0.875 1.90625 0.875q1.125 0 1.890625 -0.859375q0.765625 -0.875 0.765625 -2.734375q0 -1.78125 -0.796875 -2.671875q-0.78125 -0.90625 -1.890625 -0.90625q-1.09375 0 -1.859375 0.890625q-0.765625 0.875 -0.765625 2.625zm9.313202 5.015625l0 -9.671875l1.46875 0l0 1.46875q0.5625 -1.03125 1.03125 -1.359375q0.484375 -0.328125 1.0625 -0.328125q0.828125 0 1.6875 0.53125l-0.5625 1.515625q-0.609375 -0.359375 -1.203125 -0.359375q-0.546875 0 -0.96875 0.328125q-0.421875 0.328125 -0.609375 0.890625q-0.28125 0.875 -0.28125 1.921875l0 5.0625l-1.625 0zm12.540802 -1.1875q-0.921875 0.765625 -1.765625 1.09375q-0.828125 0.3125 -1.796875 0.3125q-1.59375 0 -2.453125 -0.78125q-0.859375 -0.78125 -0.859375 -1.984375q0 -0.71875 0.328125 -1.296875q0.328125 -0.59375 0.84375 -0.9375q0.53125 -0.359375 1.1875 -0.546875q0.46875 -0.125 1.453125 -0.25q1.984375 -0.234375 2.921875 -0.5625q0.015625 -0.34375 0.015625 -0.421875q0 -1.0 -0.46875 -1.421875q-0.625 -0.546875 -1.875 -0.546875q-1.15625 0 -1.703125 0.40625q-0.546875 0.40625 -0.8125 1.421875l-1.609375 -0.21875q0.21875 -1.015625 0.71875 -1.640625q0.5 -0.640625 1.453125 -0.984375q0.953125 -0.34375 2.1875 -0.34375q1.25 0 2.015625 0.296875q0.78125 0.28125 1.140625 0.734375q0.375 0.4375 0.515625 1.109375q0.078125 0.421875 0.078125 1.515625l0 2.1875q0 2.28125 0.109375 2.890625q0.109375 0.59375 0.40625 1.15625l-1.703125 0q-0.265625 -0.515625 -0.328125 -1.1875zm-0.140625 -3.671875q-0.890625 0.375 -2.671875 0.625q-1.015625 0.140625 -1.4375 0.328125q-0.421875 0.1875 -0.65625 0.53125q-0.21875 0.34375 -0.21875 0.78125q0 0.65625 0.5 1.09375q0.5 0.4375 1.453125 0.4375q0.9375 0 1.671875 -0.40625q0.75 -0.421875 1.09375 -1.140625q0.265625 -0.5625 0.265625 -1.640625l0 -0.609375zm4.2038574 4.859375l0 -9.671875l1.46875 0l0 1.359375q0.453125 -0.71875 1.203125 -1.140625q0.765625 -0.4375 1.71875 -0.4375q1.078125 0 1.765625 0.453125q0.6875 0.4375 0.96875 1.234375q1.15625 -1.6875 2.984375 -1.6875q1.453125 0 2.21875 0.796875q0.78125 0.796875 0.78125 2.453125l0 6.640625l-1.640625 0l0 -6.09375q0 -0.984375 -0.15625 -1.40625q-0.15625 -0.4375 -0.578125 -0.703125q-0.421875 -0.265625 -0.984375 -0.265625q-1.015625 0 -1.6875 0.6875q-0.671875 0.671875 -0.671875 2.15625l0 5.625l-1.640625 0l0 -6.28125q0 -1.09375 -0.40625 -1.640625q-0.40625 -0.546875 -1.3125 -0.546875q-0.6875 0 -1.28125 0.359375q-0.59375 0.359375 -0.859375 1.0625q-0.25 0.703125 -0.25 2.03125l0 5.015625l-1.640625 0zm15.540802 0l0 -9.671875l1.46875 0l0 1.359375q0.453125 -0.71875 1.203125 -1.140625q0.765625 -0.4375 1.71875 -0.4375q1.078125 0 1.765625 0.453125q0.6875 0.4375 0.96875 1.234375q1.15625 -1.6875 2.984375 -1.6875q1.453125 0 2.21875 0.796875q0.78125 0.796875 0.78125 2.453125l0 6.640625l-1.640625 0l0 -6.09375q0 -0.984375 -0.15625 -1.40625q-0.15625 -0.4375 -0.578125 -0.703125q-0.421875 -0.265625 -0.984375 -0.265625q-1.015625 0 -1.6875 0.6875q-0.671875 0.671875 -0.671875 2.15625l0 5.625l-1.640625 0l0 -6.28125q0 -1.09375 -0.40625 -1.640625q-0.40625 -0.546875 -1.3125 -0.546875q-0.6875 0 -1.28125 0.359375q-0.59375 0.359375 -0.859375 1.0625q-0.25 0.703125 -0.25 2.03125l0 5.015625l-1.640625 0z" fill-rule="nonzero"/><path fill="#000000" d="m254.24704 440.98038l0 -8.40625l-1.453125 0l0 -1.265625l1.453125 0l0 -1.03125q0 -0.96875 0.171875 -1.453125q0.234375 -0.640625 0.828125 -1.03125q0.59375 -0.390625 1.671875 -0.390625q0.6875 0 1.53125 0.15625l-0.25 1.4375q-0.5 -0.09375 -0.953125 -0.09375q-0.75 0 -1.0625 0.328125q-0.3125 0.3125 -0.3125 1.1875l0 0.890625l1.890625 0l0 1.265625l-1.890625 0l0 8.40625l-1.625 0zm4.183319 -4.84375q0 -2.6875 1.484375 -3.96875q1.25 -1.078125 3.046875 -1.078125q2.0 0 3.265625 1.3125q1.265625 1.296875 1.265625 3.609375q0 1.859375 -0.5625 2.9375q-0.5625 1.0625 -1.640625 1.65625q-1.0625 0.59375 -2.328125 0.59375q-2.03125 0 -3.28125 -1.296875q-1.25 -1.3125 -1.25 -3.765625zm1.6875 0q0 1.859375 0.796875 2.796875q0.8125 0.921875 2.046875 0.921875q1.21875 0 2.03125 -0.921875q0.8125 -0.9375 0.8125 -2.84375q0 -1.796875 -0.8125 -2.71875q-0.8125 -0.921875 -2.03125 -0.921875q-1.234375 0 -2.046875 0.921875q-0.796875 0.90625 -0.796875 2.765625zm9.281952 4.84375l0 -9.671875l1.46875 0l0 1.46875q0.5625 -1.03125 1.03125 -1.359375q0.484375 -0.328125 1.0625 -0.328125q0.828125 0 1.6875 0.53125l-0.5625 1.515625q-0.609375 -0.359375 -1.203125 -0.359375q-0.546875 0 -0.96875 0.328125q-0.421875 0.328125 -0.609375 0.890625q-0.28125 0.875 -0.28125 1.921875l0 5.0625l-1.625 0zm9.806427 -1.46875l0.234375 1.453125q-0.6875 0.140625 -1.234375 0.140625q-0.890625 0 -1.390625 -0.28125q-0.484375 -0.28125 -0.6875 -0.734375q-0.203125 -0.46875 -0.203125 -1.9375l0 -5.578125l-1.203125 0l0 -1.265625l1.203125 0l0 -2.390625l1.625 -0.984375l0 3.375l1.65625 0l0 1.265625l-1.65625 0l0 5.671875q0 0.6875 0.078125 0.890625q0.09375 0.203125 0.28125 0.328125q0.203125 0.109375 0.578125 0.109375q0.265625 0 0.71875 -0.0625zm1.2926941 2.265625l1.59375 0.234375q0.109375 0.75 0.5625 1.078125q0.609375 0.453125 1.671875 0.453125q1.140625 0 1.75 -0.453125q0.625 -0.453125 0.84375 -1.265625q0.125 -0.5 0.109375 -2.109375q-1.0625 1.265625 -2.671875 1.265625q-2.0 0 -3.09375 -1.4375q-1.09375 -1.4375 -1.09375 -3.453125q0 -1.390625 0.5 -2.5625q0.515625 -1.171875 1.453125 -1.796875q0.953125 -0.640625 2.25 -0.640625q1.703125 0 2.8125 1.375l0 -1.15625l1.515625 0l0 8.359375q0 2.265625 -0.46875 3.203125q-0.453125 0.9375 -1.453125 1.484375q-0.984375 0.546875 -2.453125 0.546875q-1.71875 0 -2.796875 -0.78125q-1.0625 -0.765625 -1.03125 -2.34375zm1.359375 -5.8125q0 1.90625 0.75 2.78125q0.765625 0.875 1.90625 0.875q1.125 0 1.890625 -0.859375q0.765625 -0.875 0.765625 -2.734375q0 -1.78125 -0.796875 -2.671875q-0.78125 -0.90625 -1.890625 -0.90625q-1.09375 0 -1.859375 0.890625q-0.765625 0.875 -0.765625 2.625zm15.953827 1.90625l1.6875 0.203125q-0.40625 1.484375 -1.484375 2.3125q-1.078125 0.8125 -2.765625 0.8125q-2.125 0 -3.375 -1.296875q-1.234375 -1.3125 -1.234375 -3.671875q0 -2.453125 1.25 -3.796875q1.265625 -1.34375 3.265625 -1.34375q1.9375 0 3.15625 1.328125q1.234375 1.3125 1.234375 3.703125q0 0.15625 0 0.4375l-7.21875 0q0.09375 1.59375 0.90625 2.453125q0.8125 0.84375 2.015625 0.84375q0.90625 0 1.546875 -0.46875q0.640625 -0.484375 1.015625 -1.515625zm-5.390625 -2.65625l5.40625 0q-0.109375 -1.21875 -0.625 -1.828125q-0.78125 -0.953125 -2.03125 -0.953125q-1.125 0 -1.90625 0.765625q-0.765625 0.75 -0.84375 2.015625zm8.485107 2.875l1.625 -0.25q0.125 0.96875 0.75 1.5q0.625 0.515625 1.75 0.515625q1.125 0 1.671875 -0.453125q0.546875 -0.46875 0.546875 -1.09375q0 -0.546875 -0.484375 -0.875q-0.328125 -0.21875 -1.671875 -0.546875q-1.8125 -0.46875 -2.515625 -0.796875q-0.6875 -0.328125 -1.046875 -0.90625q-0.359375 -0.59375 -0.359375 -1.3125q0 -0.640625 0.296875 -1.1875q0.296875 -0.5625 0.8125 -0.921875q0.375 -0.28125 1.03125 -0.46875q0.671875 -0.203125 1.421875 -0.203125q1.140625 0 2.0 0.328125q0.859375 0.328125 1.265625 0.890625q0.421875 0.5625 0.578125 1.5l-1.609375 0.21875q-0.109375 -0.75 -0.640625 -1.171875q-0.515625 -0.421875 -1.46875 -0.421875q-1.140625 0 -1.625 0.375q-0.46875 0.375 -0.46875 0.875q0 0.3125 0.1875 0.578125q0.203125 0.265625 0.640625 0.4375q0.234375 0.09375 1.4375 0.421875q1.75 0.453125 2.4375 0.75q0.6875 0.296875 1.078125 0.859375q0.390625 0.5625 0.390625 1.40625q0 0.828125 -0.484375 1.546875q-0.46875 0.71875 -1.375 1.125q-0.90625 0.390625 -2.046875 0.390625q-1.875 0 -2.875 -0.78125q-0.984375 -0.78125 -1.25 -2.328125zm16.609375 -0.21875l1.6875 0.203125q-0.40625 1.484375 -1.484375 2.3125q-1.078125 0.8125 -2.765625 0.8125q-2.125 0 -3.375 -1.296875q-1.234375 -1.3125 -1.234375 -3.671875q0 -2.453125 1.25 -3.796875q1.265625 -1.34375 3.265625 -1.34375q1.9375 0 3.15625 1.328125q1.234375 1.3125 1.234375 3.703125q0 0.15625 0 0.4375l-7.21875 0q0.09375 1.59375 0.90625 2.453125q0.8125 0.84375 2.015625 0.84375q0.90625 0 1.546875 -0.46875q0.640625 -0.484375 1.015625 -1.515625zm-5.390625 -2.65625l5.40625 0q-0.109375 -1.21875 -0.625 -1.828125q-0.78125 -0.953125 -2.03125 -0.953125q-1.125 0 -1.90625 0.765625q-0.765625 0.75 -0.84375 2.015625zm12.719452 4.296875l0.234375 1.453125q-0.6875 0.140625 -1.234375 0.140625q-0.890625 0 -1.390625 -0.28125q-0.484375 -0.28125 -0.6875 -0.734375q-0.203125 -0.46875 -0.203125 -1.9375l0 -5.578125l-1.203125 0l0 -1.265625l1.203125 0l0 -2.390625l1.625 -0.984375l0 3.375l1.65625 0l0 1.265625l-1.65625 0l0 5.671875q0 0.6875 0.078125 0.890625q0.09375 0.203125 0.28125 0.328125q0.203125 0.109375 0.578125 0.109375q0.265625 0 0.71875 -0.0625zm0.7301941 1.46875l0 -1.328125l6.15625 -7.078125q-1.046875 0.0625 -1.84375 0.0625l-3.9375 0l0 -1.328125l7.90625 0l0 1.078125l-5.25 6.140625l-1.0 1.125q1.09375 -0.078125 2.0625 -0.078125l4.46875 0l0 1.40625l-8.5625 0zm13.78125 -1.46875l0.234375 1.453125q-0.6875 0.140625 -1.234375 0.140625q-0.890625 0 -1.390625 -0.28125q-0.484375 -0.28125 -0.6875 -0.734375q-0.203125 -0.46875 -0.203125 -1.9375l0 -5.578125l-1.203125 0l0 -1.265625l1.203125 0l0 -2.390625l1.625 -0.984375l0 3.375l1.65625 0l0 1.265625l-1.65625 0l0 5.671875q0 0.6875 0.078125 0.890625q0.09375 0.203125 0.28125 0.328125q0.203125 0.109375 0.578125 0.109375q0.265625 0 0.71875 -0.0625z" fill-rule="nonzero"/><path fill="#cc0000" d="m244.60367 276.7349l0 0c0 -17.359985 14.073059 -31.43306 31.433075 -31.43306l0 0c8.336578 0 16.331696 3.3116913 22.226532 9.206543c5.894867 5.8948517 9.206543 13.889969 9.206543 22.226517l0 0c0 17.360016 -14.073059 31.433075 -31.433075 31.433075l0 0c-17.360016 0 -31.433075 -14.073059 -31.433075 -31.433075zm48.73053 9.314026c4.1131287 -7.6387024 2.7287598 -17.070953 -3.4058533 -23.205597c-6.1346436 -6.1346436 -15.566925 -7.518997 -23.205597 -3.4058533zm-34.59491 -18.628021l0 0c-4.1131287 7.6387024 -2.7287598 17.070953 3.4058838 23.205597c6.134613 6.1346436 15.566895 7.5190125 23.205566 3.4058533z" fill-rule="evenodd"/><path stroke="#b7b7b7" stroke-width="1.0" stroke-linejoin="round" stroke-linecap="butt" d="m244.60367 276.7349l0 0c0 -17.359985 14.073059 -31.43306 31.433075 -31.43306l0 0c8.336578 0 16.331696 3.3116913 22.226532 9.206543c5.894867 5.8948517 9.206543 13.889969 9.206543 22.226517l0 0c0 17.360016 -14.073059 31.433075 -31.433075 31.433075l0 0c-17.360016 0 -31.433075 -14.073059 -31.433075 -31.433075zm48.73053 9.314026c4.1131287 -7.6387024 2.7287598 -17.070953 -3.4058533 -23.205597c-6.1346436 -6.1346436 -15.566925 -7.518997 -23.205597 -3.4058533zm-34.59491 -18.628021l0 0c-4.1131287 7.6387024 -2.7287598 17.070953 3.4058838 23.205597c6.134613 6.1346436 15.566895 7.5190125 23.205566 3.4058533z" fill-rule="evenodd"/><path fill="#607d8b" d="m256.12335 101.66404l19.380707 0l0 26.086617l12.698029 0l0 -5.3464584l10.692932 10.692909l-10.692932 10.692917l0 -5.346451l-12.698029 0l0 26.086609l-19.380707 0z" fill-rule="evenodd"/><path stroke="#b7b7b7" stroke-width="1.0" stroke-linejoin="round" stroke-linecap="butt" d="m256.12335 101.66404l19.380707 0l0 26.086617l12.698029 0l0 -5.3464584l10.692932 10.692909l-10.692932 10.692917l0 -5.346451l-12.698029 0l0 26.086609l-19.380707 0z" fill-rule="evenodd"/><path fill="#607d8b" d="m312.12335 245.30183l19.380707 0l0 26.086624l12.698029 0l0 -5.346466l10.692932 10.692902l-10.692932 10.692932l0 -5.346466l-12.698029 0l0 26.086609l-19.380707 0z" fill-rule="evenodd"/><path stroke="#b7b7b7" stroke-width="1.0" stroke-linejoin="round" stroke-linecap="butt" d="m312.12335 245.30183l19.380707 0l0 26.086624l12.698029 0l0 -5.346466l10.692932 10.692902l-10.692932 10.692932l0 -5.346466l-12.698029 0l0 26.086609l-19.380707 0z" fill-rule="evenodd"/><path fill="#6d9eeb" d="m244.60367 335.31024l101.83325 0l0 41.756927c-50.91388 0 -50.91388 16.065979 -101.83325 8.0329895zm8.389816 0l0 -5.413513l101.13774 0l0 42.01886c-3.8444214 0 -7.6943054 0.29104614 -7.6943054 0.29104614l0 -36.896393zm7.885971 -5.413513l0 -5.2825623l102.01398 0l0 41.88791c-4.3811035 0 -8.762207 0.21829224 -8.762207 0.21829224l0 -36.82364z" fill-rule="evenodd"/><path fill="#000000" fill-opacity="0.0" d="m244.60367 335.31024l101.83325 0l0 41.756927c-50.91388 0 -50.91388 16.065979 -101.83325 8.0329895zm8.389816 0l0 -5.413513l101.13774 0l0 42.01886c-3.8444214 0 -7.6943054 0.29104614 -7.6943054 0.29104614m-85.557465 -42.309906l0 -5.2825623l102.01398 0l0 41.88791c-4.3811035 0 -8.762207 0.21829224 -8.762207 0.21829224" fill-rule="evenodd"/><path fill="#000000" fill-opacity="0.0" d="m244.60367 385.10016c50.919373 8.0329895 50.919373 -8.0329895 101.83325 -8.0329895l0 -4.8605347c0 0 3.849884 -0.29104614 7.6943054 -0.29104614l0 -5.195221c0 0 4.3811035 -0.21829224 8.762207 -0.21829224l0 -41.88791l-102.01398 0l0 5.2825623l-7.885971 0l0 5.413513l-8.389816 0z" fill-rule="evenodd"/><path stroke="#b7b7b7" stroke-width="1.0" stroke-linejoin="round" stroke-linecap="butt" d="m244.60367 335.31024l101.83325 0l0 41.756927c-50.91388 0 -50.91388 16.065979 -101.83325 8.0329895zm8.389816 0l0 -5.413513l101.13774 0l0 42.01886c-3.8444214 0 -7.6943054 0.29104614 -7.6943054 0.29104614m-85.557465 -42.309906l0 -5.2825623l102.01398 0l0 41.88791c-4.3811035 0 -8.762207 0.21829224 -8.762207 0.21829224" fill-rule="evenodd"/><path fill="#000000" d="m254.44742 362.82834l1.65625 -0.140625q0.125 1.0 0.546875 1.640625q0.4375 0.640625 1.34375 1.046875q0.921875 0.390625 2.0625 0.390625q1.0 0 1.78125 -0.296875q0.78125 -0.296875 1.15625 -0.8125q0.375 -0.53125 0.375 -1.15625q0 -0.625 -0.375 -1.09375q-0.359375 -0.46875 -1.1875 -0.796875q-0.546875 -0.203125 -2.390625 -0.640625q-1.828125 -0.453125 -2.5625 -0.84375q-0.96875 -0.5 -1.4375 -1.234375q-0.46875 -0.75 -0.46875 -1.671875q0 -1.0 0.578125 -1.875q0.578125 -0.890625 1.671875 -1.34375q1.109375 -0.453125 2.453125 -0.453125q1.484375 0 2.609375 0.484375q1.140625 0.46875 1.75 1.40625q0.609375 0.921875 0.65625 2.09375l-1.6875 0.125q-0.140625 -1.265625 -0.9375 -1.90625q-0.78125 -0.65625 -2.3125 -0.65625q-1.609375 0 -2.34375 0.59375q-0.734375 0.59375 -0.734375 1.421875q0 0.71875 0.53125 1.171875q0.5 0.46875 2.65625 0.96875q2.15625 0.484375 2.953125 0.84375q1.171875 0.53125 1.71875 1.359375q0.5625 0.828125 0.5625 1.90625q0 1.0625 -0.609375 2.015625q-0.609375 0.9375 -1.75 1.46875q-1.140625 0.515625 -2.578125 0.515625q-1.8125 0 -3.046875 -0.53125q-1.21875 -0.53125 -1.921875 -1.59375q-0.6875 -1.0625 -0.71875 -2.40625zm16.412323 2.828125l0.234375 1.453125q-0.6875 0.140625 -1.234375 0.140625q-0.890625 0 -1.390625 -0.28125q-0.484375 -0.28125 -0.6875 -0.734375q-0.203125 -0.46875 -0.203125 -1.9375l0 -5.578125l-1.203125 0l0 -1.265625l1.203125 0l0 -2.390625l1.625 -0.984375l0 3.375l1.65625 0l0 1.265625l-1.65625 0l0 5.671875q0 0.6875 0.078125 0.890625q0.09375 0.203125 0.28125 0.328125q0.203125 0.109375 0.578125 0.109375q0.265625 0 0.71875 -0.0625zm7.917694 0.28125q-0.921875 0.765625 -1.765625 1.09375q-0.828125 0.3125 -1.796875 0.3125q-1.59375 0 -2.453125 -0.78125q-0.859375 -0.78125 -0.859375 -1.984375q0 -0.71875 0.328125 -1.296875q0.328125 -0.59375 0.84375 -0.9375q0.53125 -0.359375 1.1875 -0.546875q0.46875 -0.125 1.453125 -0.25q1.984375 -0.234375 2.921875 -0.5625q0.015625 -0.34375 0.015625 -0.421875q0 -1.0 -0.46875 -1.421875q-0.625 -0.546875 -1.875 -0.546875q-1.15625 0 -1.703125 0.40625q-0.546875 0.40625 -0.8125 1.421875l-1.609375 -0.21875q0.21875 -1.015625 0.71875 -1.640625q0.5 -0.640625 1.453125 -0.984375q0.953125 -0.34375 2.1875 -0.34375q1.25 0 2.015625 0.296875q0.78125 0.28125 1.140625 0.734375q0.375 0.4375 0.515625 1.109375q0.078125 0.421875 0.078125 1.515625l0 2.1875q0 2.28125 0.109375 2.890625q0.109375 0.59375 0.40625 1.15625l-1.703125 0q-0.265625 -0.515625 -0.328125 -1.1875zm-0.140625 -3.671875q-0.890625 0.375 -2.671875 0.625q-1.015625 0.140625 -1.4375 0.328125q-0.421875 0.1875 -0.65625 0.53125q-0.21875 0.34375 -0.21875 0.78125q0 0.65625 0.5 1.09375q0.5 0.4375 1.453125 0.4375q0.9375 0 1.671875 -0.40625q0.75 -0.421875 1.09375 -1.140625q0.265625 -0.5625 0.265625 -1.640625l0 -0.609375zm10.516327 1.3125l1.609375 0.21875q-0.265625 1.65625 -1.359375 2.609375q-1.078125 0.9375 -2.671875 0.9375q-1.984375 0 -3.1875 -1.296875q-1.203125 -1.296875 -1.203125 -3.71875q0 -1.578125 0.515625 -2.75q0.515625 -1.171875 1.578125 -1.75q1.0625 -0.59375 2.3125 -0.59375q1.578125 0 2.578125 0.796875q1.0 0.796875 1.28125 2.265625l-1.59375 0.234375q-0.234375 -0.96875 -0.8125 -1.453125q-0.578125 -0.5 -1.390625 -0.5q-1.234375 0 -2.015625 0.890625q-0.78125 0.890625 -0.78125 2.8125q0 1.953125 0.75 2.84375q0.75 0.875 1.953125 0.875q0.96875 0 1.609375 -0.59375q0.65625 -0.59375 0.828125 -1.828125zm3.015625 3.546875l0 -13.359375l1.640625 0l0 7.625l3.890625 -3.9375l2.109375 0l-3.6875 3.59375l4.0625 6.078125l-2.015625 0l-3.203125 -4.953125l-1.15625 1.125l0 3.828125l-1.640625 0z" fill-rule="nonzero"/><path fill="#6d9eeb" d="m670.9974 340.5118l-273.66928 0l0 -10.188965l-20.37796 20.37793l20.37796 20.37796l0 -10.188965l273.66928 0z" fill-rule="evenodd"/><path stroke="#b7b7b7" stroke-width="1.0" stroke-linejoin="round" stroke-linecap="butt" d="m670.9974 340.5118l-273.66928 0l0 -10.188965l-20.37796 20.37793l20.37796 20.37796l0 -10.188965l273.66928 0z" fill-rule="evenodd"/><path fill="#6d9eeb" d="m699.06036 331.98425l89.8504 0l0 56.149597l-89.8504 0z" fill-rule="evenodd"/><path fill="#577ebb" d="m788.91077 331.98425l18.716553 -18.716522l0 56.149597l-18.716553 18.716522z" fill-rule="evenodd"/><path fill="#8ab1ef" d="m699.06036 331.98425l18.716553 -18.716522l89.8504 0l-18.716553 18.716522z" fill-rule="evenodd"/><path fill="#000000" fill-opacity="0.0" d="m699.06036 331.98425l18.716553 -18.716522l89.8504 0l0 56.149597l-18.716553 18.716522l-89.8504 0zm0 0l89.8504 0l18.716553 -18.716522m-18.716553 18.716522l0 56.149597" fill-rule="evenodd"/><path stroke="#b7b7b7" stroke-width="1.0" stroke-linejoin="round" stroke-linecap="butt" d="m699.06036 331.98425l18.716553 -18.716522l89.8504 0l0 56.149597l-18.716553 18.716522l-89.8504 0zm0 0l89.8504 0l18.716553 -18.716522m-18.716553 18.716522l0 56.149597" fill-rule="evenodd"/><path fill="#000000" d="m709.56036 366.97906l0 -13.359375l1.765625 0l0 5.484375l6.9375 0l0 -5.484375l1.765625 0l0 13.359375l-1.765625 0l0 -6.296875l-6.9375 0l0 6.296875l-1.765625 0zm19.832336 -3.109375l1.6875 0.203125q-0.40625 1.484375 -1.484375 2.3125q-1.078125 0.8125 -2.765625 0.8125q-2.125 0 -3.375 -1.296875q-1.234375 -1.3125 -1.234375 -3.671875q0 -2.453125 1.25 -3.796875q1.265625 -1.34375 3.265625 -1.34375q1.9375 0 3.15625 1.328125q1.234375 1.3125 1.234375 3.703125q0 0.15625 0 0.4375l-7.21875 0q0.09375 1.59375 0.90625 2.453125q0.8125 0.84375 2.015625 0.84375q0.90625 0 1.546875 -0.46875q0.640625 -0.484375 1.015625 -1.515625zm-5.390625 -2.65625l5.40625 0q-0.109375 -1.21875 -0.625 -1.828125q-0.78125 -0.953125 -2.03125 -0.953125q-1.125 0 -1.90625 0.765625q-0.765625 0.75 -0.84375 2.015625zm15.453857 4.578125q-0.921875 0.765625 -1.765625 1.09375q-0.828125 0.3125 -1.796875 0.3125q-1.59375 0 -2.453125 -0.78125q-0.859375 -0.78125 -0.859375 -1.984375q0 -0.71875 0.328125 -1.296875q0.328125 -0.59375 0.84375 -0.9375q0.53125 -0.359375 1.1875 -0.546875q0.46875 -0.125 1.453125 -0.25q1.984375 -0.234375 2.921875 -0.5625q0.015625 -0.34375 0.015625 -0.421875q0 -1.0 -0.46875 -1.421875q-0.625 -0.546875 -1.875 -0.546875q-1.15625 0 -1.703125 0.40625q-0.546875 0.40625 -0.8125 1.421875l-1.609375 -0.21875q0.21875 -1.015625 0.71875 -1.640625q0.5 -0.640625 1.453125 -0.984375q0.953125 -0.34375 2.1875 -0.34375q1.25 0 2.015625 0.296875q0.78125 0.28125 1.140625 0.734375q0.375 0.4375 0.515625 1.109375q0.078125 0.421875 0.078125 1.515625l0 2.1875q0 2.28125 0.109375 2.890625q0.109375 0.59375 0.40625 1.15625l-1.703125 0q-0.265625 -0.515625 -0.328125 -1.1875zm-0.140625 -3.671875q-0.890625 0.375 -2.671875 0.625q-1.015625 0.140625 -1.4375 0.328125q-0.421875 0.1875 -0.65625 0.53125q-0.21875 0.34375 -0.21875 0.78125q0 0.65625 0.5 1.09375q0.5 0.4375 1.453125 0.4375q0.9375 0 1.671875 -0.40625q0.75 -0.421875 1.09375 -1.140625q0.265625 -0.5625 0.265625 -1.640625l0 -0.609375zm4.2037964 8.5625l0 -13.375l1.484375 0l0 1.25q0.53125 -0.734375 1.1875 -1.09375q0.671875 -0.375 1.625 -0.375q1.234375 0 2.171875 0.640625q0.953125 0.625 1.4375 1.796875q0.484375 1.15625 0.484375 2.546875q0 1.484375 -0.53125 2.671875q-0.53125 1.1875 -1.546875 1.828125q-1.015625 0.625 -2.140625 0.625q-0.8125 0 -1.46875 -0.34375q-0.65625 -0.34375 -1.0625 -0.875l0 4.703125l-1.640625 0zm1.484375 -8.484375q0 1.859375 0.75 2.765625q0.765625 0.890625 1.828125 0.890625q1.09375 0 1.875 -0.921875q0.78125 -0.9375 0.78125 -2.875q0 -1.84375 -0.765625 -2.765625q-0.75 -0.921875 -1.8125 -0.921875q-1.046875 0 -1.859375 0.984375q-0.796875 0.96875 -0.796875 2.84375z" fill-rule="nonzero"/><path fill="#b6d7a8" d="m209.91864 33.077427l0 0c0 1.6155434 5.238617 2.9251976 11.700775 2.9251976c6.4621735 0 11.70079 -1.3096542 11.70079 -2.9251976l0 101.01575c0 1.6155548 -5.238617 2.9252014 -11.70079 2.9252014c-6.462158 0 -11.700775 -1.3096466 -11.700775 -2.9252014z" fill-rule="evenodd"/><path fill="#d3e7ca" d="m209.91864 33.077427l0 0c0 -1.6155415 5.238617 -2.9251957 11.700775 -2.9251957c6.4621735 0 11.70079 1.3096542 11.70079 2.9251957l0 0c0 1.6155434 -5.238617 2.9251976 -11.70079 2.9251976c-6.462158 0 -11.700775 -1.3096542 -11.700775 -2.9251976z" fill-rule="evenodd"/><path fill="#000000" fill-opacity="0.0" d="m233.3202 33.077427l0 0c0 1.6155434 -5.238617 2.9251976 -11.70079 2.9251976c-6.462158 0 -11.700775 -1.3096542 -11.700775 -2.9251976l0 0c0 -1.6155415 5.238617 -2.9251957 11.700775 -2.9251957c6.4621735 0 11.70079 1.3096542 11.70079 2.9251957l0 101.01575c0 1.6155548 -5.238617 2.9252014 -11.70079 2.9252014c-6.462158 0 -11.700775 -1.3096466 -11.700775 -2.9252014l0 -101.01575" fill-rule="evenodd"/><path stroke="#b7b7b7" stroke-width="1.0" stroke-linejoin="round" stroke-linecap="butt" d="m233.3202 33.077427l0 0c0 1.6155434 -5.238617 2.9251976 -11.70079 2.9251976c-6.462158 0 -11.700775 -1.3096542 -11.700775 -2.9251976l0 0c0 -1.6155415 5.238617 -2.9251957 11.700775 -2.9251957c6.4621735 0 11.70079 1.3096542 11.70079 2.9251957l0 101.01575c0 1.6155548 -5.238617 2.9252014 -11.70079 2.9252014c-6.462158 0 -11.700775 -1.3096466 -11.700775 -2.9252014l0 -101.01575" fill-rule="evenodd"/><path fill="#93c47d" d="m208.47769 400.9147l0 0c0 1.6155396 5.238617 2.9252014 11.70079 2.9252014c6.462158 0 11.70079 -1.3096619 11.70079 -2.9252014l0 84.700775c0 1.6155396 -5.238632 2.9252014 -11.70079 2.9252014c-6.4621735 0 -11.70079 -1.3096619 -11.70079 -2.9252014z" fill-rule="evenodd"/><path fill="#bedbb1" d="m208.47769 400.9147l0 0c0 -1.6155396 5.238617 -2.9252014 11.70079 -2.9252014c6.462158 0 11.70079 1.3096619 11.70079 2.9252014l0 0c0 1.6155396 -5.238632 2.9252014 -11.70079 2.9252014c-6.4621735 0 -11.70079 -1.3096619 -11.70079 -2.9252014z" fill-rule="evenodd"/><path fill="#000000" fill-opacity="0.0" d="m231.87927 400.9147l0 0c0 1.6155396 -5.238632 2.9252014 -11.70079 2.9252014c-6.4621735 0 -11.70079 -1.3096619 -11.70079 -2.9252014l0 0c0 -1.6155396 5.238617 -2.9252014 11.70079 -2.9252014c6.462158 0 11.70079 1.3096619 11.70079 2.9252014l0 84.700775c0 1.6155396 -5.238632 2.9252014 -11.70079 2.9252014c-6.4621735 0 -11.70079 -1.3096619 -11.70079 -2.9252014l0 -84.700775" fill-rule="evenodd"/><path stroke="#b7b7b7" stroke-width="1.0" stroke-linejoin="round" stroke-linecap="butt" d="m231.87927 400.9147l0 0c0 1.6155396 -5.238632 2.9252014 -11.70079 2.9252014c-6.4621735 0 -11.70079 -1.3096619 -11.70079 -2.9252014l0 0c0 -1.6155396 5.238617 -2.9252014 11.70079 -2.9252014c6.462158 0 11.70079 1.3096619 11.70079 2.9252014l0 84.700775c0 1.6155396 -5.238632 2.9252014 -11.70079 2.9252014c-6.4621735 0 -11.70079 -1.3096619 -11.70079 -2.9252014l0 -84.700775" fill-rule="evenodd"/><path fill="#000000" fill-opacity="0.0" d="m202.14174 398.86877l0 -285.29135l38.771652 0l0 285.29135z" fill-rule="evenodd"/><path fill="#000000" d="m216.86569 307.87933q0 0.953125 0.328125 1.703125q0.328125 0.75 0.9375 1.28125q0.609375 0.53125 1.484375 0.8125q0.859375 0.28125 1.953125 0.28125q1.4375 0 2.5 -0.453125q1.046875 -0.453125 1.625 -1.34375q0.578125 -0.890625 0.578125 -2.234375q0 -0.765625 -0.125 -1.4375q-0.125 -0.6875 -0.328125 -1.328125l1.15625 0q0.234375 0.625 0.34375 1.3125q0.125 0.6875 0.125 1.640625q0 1.734375 -0.71875 2.90625q-0.734375 1.171875 -2.046875 1.75q-1.328125 0.578125 -3.125 0.578125q-1.296875 0 -2.359375 -0.359375q-1.078125 -0.359375 -1.859375 -1.0625q-0.78125 -0.703125 -1.203125 -1.71875q-0.4375 -1.015625 -0.4375 -2.34375q0 -0.859375 0.171875 -1.65625q0.171875 -0.8125 0.5 -1.46875l1.125 0.53125q-0.25 0.546875 -0.4375 1.203125q-0.1875 0.65625 -0.1875 1.40625zm1.71875 -8.203125q0 -1.53125 0.6875 -2.265625q0.6875 -0.75 2.1875 -0.75l5.828125 0l0 0.953125l-1.265625 0.25l0 0.0625q0.46875 0.359375 0.78125 0.75q0.3125 0.390625 0.484375 0.90625q0.15625 0.5 0.15625 1.25q0 0.78125 -0.265625 1.390625q-0.28125 0.59375 -0.828125 0.953125q-0.5625 0.34375 -1.421875 0.34375q-1.28125 0 -1.96875 -1.015625q-0.6875 -1.015625 -0.75 -3.09375l-0.0625 -1.484375l-0.515625 0q-1.109375 0 -1.546875 0.484375q-0.453125 0.46875 -0.453125 1.34375q0 0.671875 0.203125 1.28125q0.1875 0.609375 0.453125 1.15625l-0.984375 0.390625q-0.296875 -0.578125 -0.5 -1.328125q-0.21875 -0.75 -0.21875 -1.578125zm4.484375 -1.734375l0.046875 1.3125q0.0625 1.59375 0.53125 2.25q0.453125 0.65625 1.296875 0.65625q0.734375 0 1.09375 -0.4375q0.34375 -0.453125 0.34375 -1.1875q0 -1.140625 -0.625 -1.859375q-0.640625 -0.734375 -1.90625 -0.734375l-0.78125 0zm-4.5 -7.84375q0 -0.25 0.03125 -0.53125q0.015625 -0.28125 0.0625 -0.5l1.203125 0.15625q-0.046875 0.21875 -0.078125 0.484375q-0.03125 0.25 -0.03125 0.46875q0 0.515625 0.203125 0.984375q0.203125 0.453125 0.59375 0.796875q0.390625 0.34375 0.9375 0.546875q0.53125 0.1875 1.203125 0.1875l4.59375 0l0 1.296875l-8.5625 0l0 -1.078125l1.578125 -0.140625l0 -0.046875q-0.484375 -0.265625 -0.875 -0.640625q-0.390625 -0.375 -0.625 -0.875q-0.234375 -0.5 -0.234375 -1.109375zm0 -6.5390625q0 -0.25 0.03125 -0.53125q0.015625 -0.28125 0.0625 -0.5l1.203125 0.15625q-0.046875 0.21875 -0.078125 0.484375q-0.03125 0.25 -0.03125 0.46875q0 0.515625 0.203125 0.984375q0.203125 0.453125 0.59375 0.796875q0.390625 0.34375 0.9375 0.546875q0.53125 0.1875 1.203125 0.1875l4.59375 0l0 1.296875l-8.5625 0l0 -1.078125l1.578125 -0.140625l0 -0.046875q-0.484375 -0.265625 -0.875 -0.640625q-0.390625 -0.375 -0.625 -0.875q-0.234375 -0.5 -0.234375 -1.109375zm0.15625 -3.9453125l8.5625 0l0 1.296875l-8.5625 0l0 -1.296875zm-3.203125 0.640625q0 -0.328125 0.203125 -0.546875q0.203125 -0.234375 0.640625 -0.234375q0.4375 0 0.65625 0.234375q0.203125 0.21875 0.203125 0.546875q0 0.328125 -0.203125 0.5625q-0.21875 0.21875 -0.65625 0.21875q-0.4375 0 -0.640625 -0.21875q-0.203125 -0.234375 -0.203125 -0.5625zm3.046875 -6.6796875q0 -1.09375 0.484375 -1.875q0.484375 -0.78125 1.359375 -1.1875q0.859375 -0.421875 2.03125 -0.421875l0.796875 0l0 5.921875q1.515625 -0.03125 2.3125 -0.75q0.78125 -0.734375 0.78125 -2.046875q0 -0.8125 -0.140625 -1.4375q-0.15625 -0.625 -0.453125 -1.296875l1.140625 0q0.296875 0.640625 0.421875 1.28125q0.140625 0.640625 0.140625 1.5q0 1.234375 -0.5 2.15625q-0.515625 0.921875 -1.484375 1.4375q-0.984375 0.5 -2.390625 0.5q-1.390625 0 -2.390625 -0.46875q-1.015625 -0.46875 -1.5625 -1.3125q-0.546875 -0.84375 -0.546875 -2.0zm1.0625 0.015625q0 1.046875 0.6875 1.671875q0.671875 0.609375 1.890625 0.71875l0 -4.53125q-0.765625 0.015625 -1.34375 0.25q-0.59375 0.21875 -0.90625 0.6875q-0.328125 0.46875 -0.328125 1.203125zm-1.0625 -9.59375q0 -0.25 0.03125 -0.53125q0.015625 -0.28125 0.0625 -0.5l1.203125 0.15625q-0.046875 0.21875 -0.078125 0.484375q-0.03125 0.25 -0.03125 0.46875q0 0.515625 0.203125 0.984375q0.203125 0.453125 0.59375 0.796875q0.390625 0.34375 0.9375 0.546875q0.53125 0.1875 1.203125 0.1875l4.59375 0l0 1.296875l-8.5625 0l0 -1.078125l1.578125 -0.140625l0 -0.046875q-0.484375 -0.265625 -0.875 -0.640625q-0.390625 -0.375 -0.625 -0.875q-0.234375 -0.5 -0.234375 -1.109375zm8.71875 -10.5078125l0 1.34375l-10.25 0l0 3.59375l-1.171875 0l0 -8.515625l1.171875 0l0 3.578125l10.25 0zm-12.15625 -6.40625l3.625 0q0.3125 0 0.640625 0.015625q0.3125 0.015625 0.578125 0.0625l0 -0.09375q-0.453125 -0.265625 -0.765625 -0.671875q-0.3125 -0.40625 -0.46875 -0.921875q-0.15625 -0.53125 -0.15625 -1.125q0 -1.03125 0.328125 -1.71875q0.328125 -0.6875 1.015625 -1.03125q0.6875 -0.359375 1.78125 -0.359375l5.578125 0l0 1.28125l-5.5 0q-1.0625 0 -1.59375 0.5q-0.53125 0.484375 -0.53125 1.484375q0 0.953125 0.359375 1.53125q0.359375 0.5625 1.0625 0.8125q0.703125 0.234375 1.71875 0.234375l4.484375 0l0 1.296875l-12.15625 0l0 -1.296875zm3.4375 -12.40625q0 -0.25 0.03125 -0.53125q0.015625 -0.28125 0.0625 -0.5l1.203125 0.15625q-0.046875 0.21875 -0.078125 0.484375q-0.03125 0.25 -0.03125 0.46875q0 0.515625 0.203125 0.984375q0.203125 0.453125 0.59375 0.796875q0.390625 0.34375 0.9375 0.546875q0.53125 0.1875 1.203125 0.1875l4.59375 0l0 1.296875l-8.5625 0l0 -1.078125l1.578125 -0.140625l0 -0.046875q-0.484375 -0.265625 -0.875 -0.640625q-0.390625 -0.375 -0.625 -0.875q-0.234375 -0.5 -0.234375 -1.109375zm0 -5.9453125q0 -1.09375 0.484375 -1.875q0.484375 -0.78125 1.359375 -1.1875q0.859375 -0.421875 2.03125 -0.421875l0.796875 0l0 5.921875q1.515625 -0.03125 2.3125 -0.75q0.78125 -0.734375 0.78125 -2.046875q0 -0.8125 -0.140625 -1.4375q-0.15625 -0.625 -0.453125 -1.296875l1.140625 0q0.296875 0.640625 0.421875 1.28125q0.140625 0.640625 0.140625 1.5q0 1.234375 -0.5 2.15625q-0.515625 0.921875 -1.484375 1.4375q-0.984375 0.5 -2.390625 0.5q-1.390625 0 -2.390625 -0.46875q-1.015625 -0.46875 -1.5625 -1.3125q-0.546875 -0.84375 -0.546875 -2.0zm1.0625 0.015625q0 1.046875 0.6875 1.671875q0.671875 0.609375 1.890625 0.71875l0 -4.53125q-0.765625 0.015625 -1.34375 0.25q-0.59375 0.21875 -0.90625 0.6875q-0.328125 0.46875 -0.328125 1.203125zm-1.046875 -8.90625q0 -1.53125 0.6875 -2.265625q0.6875 -0.75 2.1875 -0.75l5.828125 0l0 0.953125l-1.265625 0.25l0 0.0625q0.46875 0.359375 0.78125 0.75q0.3125 0.390625 0.484375 0.90625q0.15625 0.5 0.15625 1.25q0 0.78125 -0.265625 1.390625q-0.28125 0.59375 -0.828125 0.953125q-0.5625 0.34375 -1.421875 0.34375q-1.28125 0 -1.96875 -1.015625q-0.6875 -1.015625 -0.75 -3.09375l-0.0625 -1.484375l-0.515625 0q-1.109375 0 -1.546875 0.484375q-0.453125 0.46875 -0.453125 1.34375q0 0.671875 0.203125 1.28125q0.1875 0.609375 0.453125 1.15625l-0.984375 0.390625q-0.296875 -0.578125 -0.5 -1.328125q-0.21875 -0.75 -0.21875 -1.578125zm4.484375 -1.734375l0.046875 1.3125q0.0625 1.59375 0.53125 2.25q0.453125 0.65625 1.296875 0.65625q0.734375 0 1.09375 -0.4375q0.34375 -0.453125 0.34375 -1.1875q0 -1.140625 -0.625 -1.859375q-0.640625 -0.734375 -1.90625 -0.734375l-0.78125 0zm4.375 -7.0q0 1.625 -1.109375 2.578125q-1.109375 0.953125 -3.296875 0.953125q-2.21875 0 -3.34375 -0.96875q-1.125 -0.96875 -1.125 -2.578125q0 -0.6875 0.1875 -1.1875q0.171875 -0.515625 0.46875 -0.875q0.296875 -0.375 0.6875 -0.625l0 -0.09375q-0.25 0.03125 -0.671875 0.0625q-0.421875 0.03125 -0.6875 0.03125l-3.421875 0l0 -1.296875l12.15625 0l0 1.046875l-1.21875 0.203125l0 0.046875q0.375 0.25 0.6875 0.625q0.3125 0.359375 0.5 0.875q0.1875 0.515625 0.1875 1.203125zm-1.078125 -0.203125q0 -1.375 -0.78125 -1.9375q-0.78125 -0.578125 -2.328125 -0.578125l-0.234375 0q-1.625 0 -2.5 0.546875q-0.875 0.546875 -0.875 1.96875q0 1.203125 0.921875 1.796875q0.90625 0.59375 2.5 0.59375q1.578125 0 2.4375 -0.59375q0.859375 -0.59375 0.859375 -1.796875zm-1.421875 -12.0703125q0.8125 0 1.375 0.40625q0.5625 0.40625 0.84375 1.171875q0.28125 0.765625 0.28125 1.8125q0 0.90625 -0.140625 1.5625q-0.140625 0.65625 -0.40625 1.140625l-1.1875 0q0.25 -0.515625 0.46875 -1.234375q0.203125 -0.734375 0.203125 -1.5q0 -1.109375 -0.359375 -1.609375q-0.359375 -0.5 -0.96875 -0.5q-0.359375 0 -0.625 0.203125q-0.265625 0.203125 -0.515625 0.671875q-0.265625 0.46875 -0.5625 1.296875q-0.3125 0.8125 -0.625 1.421875q-0.3125 0.59375 -0.75 0.921875q-0.453125 0.3125 -1.15625 0.3125q-1.09375 0 -1.671875 -0.875q-0.578125 -0.875 -0.578125 -2.3125q0 -0.765625 0.15625 -1.4375q0.140625 -0.6875 0.40625 -1.265625l1.03125 0.4375q-0.21875 0.53125 -0.375 1.140625q-0.15625 0.59375 -0.15625 1.21875q0 0.890625 0.296875 1.375q0.296875 0.484375 0.8125 0.484375q0.390625 0 0.65625 -0.21875q0.25 -0.234375 0.484375 -0.71875q0.21875 -0.5 0.53125 -1.296875q0.296875 -0.8125 0.609375 -1.390625q0.3125 -0.59375 0.765625 -0.90625q0.453125 -0.3125 1.15625 -0.3125z" fill-rule="nonzero"/><path fill="#000000" fill-opacity="0.0" d="m424.2152 95.41732l135.90552 0l0 64.62992l-135.90552 0z" fill-rule="evenodd"/><path fill="#000000" d="m440.73083 110.19669q-1.109375 0 -1.984375 0.375q-0.875 0.375 -1.5 1.09375q-0.609375 0.71875 -0.9375 1.734375q-0.328125 1.0 -0.328125 2.265625q0 1.6875 0.515625 2.921875q0.53125 1.234375 1.578125 1.90625q1.046875 0.671875 2.609375 0.671875q0.890625 0 1.671875 -0.140625q0.796875 -0.15625 1.546875 -0.390625l0 1.34375q-0.734375 0.28125 -1.53125 0.40625q-0.796875 0.140625 -1.90625 0.140625q-2.03125 0 -3.390625 -0.84375q-1.359375 -0.84375 -2.046875 -2.375q-0.671875 -1.546875 -0.671875 -3.640625q0 -1.515625 0.421875 -2.765625q0.421875 -1.25 1.234375 -2.15625q0.8125 -0.921875 2.0 -1.421875q1.203125 -0.5 2.734375 -0.5q1.015625 0 1.953125 0.203125q0.9375 0.203125 1.6875 0.578125l-0.609375 1.3125q-0.640625 -0.296875 -1.40625 -0.5q-0.75 -0.21875 -1.640625 -0.21875zm14.438751 7.125q0 1.234375 -0.328125 2.203125q-0.3125 0.96875 -0.921875 1.640625q-0.59375 0.65625 -1.453125 1.015625q-0.84375 0.34375 -1.921875 0.34375q-1.0 0 -1.828125 -0.34375q-0.828125 -0.359375 -1.4375 -1.015625q-0.609375 -0.671875 -0.953125 -1.640625q-0.328125 -0.96875 -0.328125 -2.203125q0 -1.640625 0.5625 -2.78125q0.5625 -1.15625 1.59375 -1.765625q1.03125 -0.609375 2.453125 -0.609375q1.375 0 2.390625 0.609375q1.03125 0.609375 1.59375 1.765625q0.578125 1.15625 0.578125 2.78125zm-7.59375 0q0 1.203125 0.3125 2.09375q0.328125 0.875 0.984375 1.359375q0.671875 0.484375 1.71875 0.484375q1.03125 0 1.703125 -0.484375q0.671875 -0.484375 0.984375 -1.359375q0.328125 -0.890625 0.328125 -2.09375q0 -1.1875 -0.328125 -2.046875q-0.3125 -0.875 -0.984375 -1.34375q-0.65625 -0.484375 -1.71875 -0.484375q-1.5625 0 -2.28125 1.03125q-0.71875 1.03125 -0.71875 2.84375zm14.94165 -5.15625q1.765625 0 2.671875 0.875q0.921875 0.875 0.921875 2.796875l0 6.5l-1.5 0l0 -6.40625q0 -1.25 -0.578125 -1.859375q-0.5625 -0.625 -1.734375 -0.625q-1.65625 0 -2.328125 0.9375q-0.671875 0.9375 -0.671875 2.71875l0 5.234375l-1.515625 0l0 -9.984375l1.21875 0l0.234375 1.4375l0.078125 0q0.3125 -0.53125 0.796875 -0.890625q0.5 -0.359375 1.109375 -0.546875q0.609375 -0.1875 1.296875 -0.1875zm9.925903 9.109375q0.375 0 0.765625 -0.0625q0.390625 -0.0625 0.640625 -0.15625l0 1.1875q-0.265625 0.109375 -0.734375 0.1875q-0.46875 0.09375 -0.90625 0.09375q-0.796875 0 -1.453125 -0.28125q-0.640625 -0.28125 -1.03125 -0.9375q-0.375 -0.671875 -0.375 -1.84375l0 -5.921875l-1.421875 0l0 -0.734375l1.421875 -0.59375l0.609375 -2.171875l0.90625 0l0 2.3125l2.921875 0l0 1.1875l-2.921875 0l0 5.875q0 0.9375 0.421875 1.40625q0.4375 0.453125 1.15625 0.453125zm4.946808 -8.921875l0 9.984375l-1.515625 0l0 -9.984375l1.515625 0zm-0.734375 -3.734375q0.359375 0 0.625 0.25q0.28125 0.234375 0.28125 0.75q0 0.5 -0.28125 0.75q-0.265625 0.234375 -0.625 0.234375q-0.390625 0 -0.65625 -0.234375q-0.265625 -0.25 -0.265625 -0.75q0 -0.515625 0.265625 -0.75q0.265625 -0.25 0.65625 -0.25zm8.66275 3.546875q1.765625 0 2.671875 0.875q0.921875 0.875 0.921875 2.796875l0 6.5l-1.5 0l0 -6.40625q0 -1.25 -0.578125 -1.859375q-0.5625 -0.625 -1.734375 -0.625q-1.65625 0 -2.328125 0.9375q-0.671875 0.9375 -0.671875 2.71875l0 5.234375l-1.515625 0l0 -9.984375l1.21875 0l0.234375 1.4375l0.078125 0q0.3125 -0.53125 0.796875 -0.890625q0.5 -0.359375 1.109375 -0.546875q0.609375 -0.1875 1.296875 -0.1875zm14.957153 0.1875l0 9.984375l-1.25 0l-0.21875 -1.40625l-0.078125 0q-0.3125 0.515625 -0.8125 0.875q-0.484375 0.359375 -1.09375 0.53125q-0.609375 0.1875 -1.3125 0.1875q-1.171875 0 -1.984375 -0.375q-0.796875 -0.390625 -1.203125 -1.1875q-0.40625 -0.8125 -0.40625 -2.0625l0 -6.546875l1.53125 0l0 6.4375q0 1.234375 0.5625 1.859375q0.5625 0.609375 1.71875 0.609375q1.109375 0 1.765625 -0.40625q0.671875 -0.421875 0.953125 -1.234375q0.296875 -0.828125 0.296875 -2.015625l0 -5.25l1.53125 0zm6.9259033 -0.15625q1.78125 0 2.640625 0.796875q0.875 0.796875 0.875 2.5625l0 6.78125l-1.09375 0l-0.296875 -1.46875l-0.078125 0q-0.421875 0.546875 -0.875 0.921875q-0.453125 0.359375 -1.046875 0.546875q-0.59375 0.1875 -1.46875 0.1875q-0.90625 0 -1.609375 -0.3125q-0.703125 -0.328125 -1.109375 -0.96875q-0.40625 -0.65625 -0.40625 -1.640625q0 -1.5 1.171875 -2.296875q1.1875 -0.8125 3.609375 -0.875l1.734375 -0.078125l0 -0.609375q0 -1.296875 -0.5625 -1.8125q-0.546875 -0.515625 -1.5625 -0.515625q-0.78125 0 -1.5 0.234375q-0.703125 0.21875 -1.34375 0.53125l-0.46875 -1.15625q0.671875 -0.34375 1.546875 -0.578125q0.875 -0.25 1.84375 -0.25zm2.015625 5.21875l-1.515625 0.0625q-1.859375 0.078125 -2.625 0.625q-0.765625 0.53125 -0.765625 1.515625q0 0.84375 0.515625 1.265625q0.515625 0.40625 1.375 0.40625q1.328125 0 2.171875 -0.734375q0.84375 -0.734375 0.84375 -2.21875l0 -0.921875zm7.8353577 3.859375q0.375 0 0.765625 -0.0625q0.390625 -0.0625 0.640625 -0.15625l0 1.1875q-0.265625 0.109375 -0.734375 0.1875q-0.46875 0.09375 -0.90625 0.09375q-0.796875 0 -1.453125 -0.28125q-0.640625 -0.28125 -1.03125 -0.9375q-0.375 -0.671875 -0.375 -1.84375l0 -5.921875l-1.421875 0l0 -0.734375l1.421875 -0.59375l0.609375 -2.171875l0.90625 0l0 2.3125l2.921875 0l0 1.1875l-2.921875 0l0 5.875q0 0.9375 0.421875 1.40625q0.4375 0.453125 1.15625 0.453125zm4.9467773 -8.921875l0 9.984375l-1.515625 0l0 -9.984375l1.515625 0zm-0.734375 -3.734375q0.359375 0 0.625 0.25q0.28125 0.234375 0.28125 0.75q0 0.5 -0.28125 0.75q-0.265625 0.234375 -0.625 0.234375q-0.390625 0 -0.65625 -0.234375q-0.265625 -0.25 -0.265625 -0.75q0 -0.515625 0.265625 -0.75q0.265625 -0.25 0.65625 -0.25zm12.537781 8.703125q0 1.234375 -0.328125 2.203125q-0.3125 0.96875 -0.921875 1.640625q-0.59375 0.65625 -1.453125 1.015625q-0.84375 0.34375 -1.921875 0.34375q-1.0 0 -1.828125 -0.34375q-0.828125 -0.359375 -1.4375 -1.015625q-0.609375 -0.671875 -0.953125 -1.640625q-0.328125 -0.96875 -0.328125 -2.203125q0 -1.640625 0.5625 -2.78125q0.5625 -1.15625 1.59375 -1.765625q1.03125 -0.609375 2.453125 -0.609375q1.375 0 2.390625 0.609375q1.03125 0.609375 1.59375 1.765625q0.578125 1.15625 0.578125 2.78125zm-7.59375 0q0 1.203125 0.3125 2.09375q0.328125 0.875 0.984375 1.359375q0.671875 0.484375 1.71875 0.484375q1.03125 0 1.703125 -0.484375q0.671875 -0.484375 0.984375 -1.359375q0.328125 -0.890625 0.328125 -2.09375q0 -1.1875 -0.328125 -2.046875q-0.3125 -0.875 -0.984375 -1.34375q-0.65625 -0.484375 -1.71875 -0.484375q-1.5625 0 -2.28125 1.03125q-0.71875 1.03125 -0.71875 2.84375zm14.94165 -5.15625q1.765625 0 2.671875 0.875q0.921875 0.875 0.921875 2.796875l0 6.5l-1.5 0l0 -6.40625q0 -1.25 -0.578125 -1.859375q-0.5625 -0.625 -1.734375 -0.625q-1.65625 0 -2.328125 0.9375q-0.671875 0.9375 -0.671875 2.71875l0 5.234375l-1.515625 0l0 -9.984375l1.21875 0l0.234375 1.4375l0.078125 0q0.3125 -0.53125 0.796875 -0.890625q0.5 -0.359375 1.109375 -0.546875q0.609375 -0.1875 1.296875 -0.1875z" fill-rule="nonzero"/><path fill="#000000" d="m433.23083 134.75294l1.625 0l2.203125 5.796875q0.1875 0.5 0.34375 0.984375q0.171875 0.46875 0.296875 0.890625q0.140625 0.421875 0.203125 0.828125l0.0625 0q0.125 -0.453125 0.359375 -1.1875q0.25 -0.75 0.515625 -1.53125l2.09375 -5.78125l1.625 0l-4.34375 11.453125q-0.34375 0.921875 -0.8125 1.59375q-0.453125 0.6875 -1.109375 1.046875q-0.65625 0.375 -1.578125 0.375q-0.4375 0 -0.765625 -0.046875q-0.328125 -0.046875 -0.5625 -0.109375l0 -1.21875q0.203125 0.046875 0.484375 0.078125q0.296875 0.046875 0.59375 0.046875q0.578125 0 0.984375 -0.21875q0.421875 -0.203125 0.71875 -0.625q0.296875 -0.40625 0.515625 -0.96875l0.546875 -1.40625l-4.0 -10.0zm12.440094 0l0 9.984375l-1.515625 0l0 -9.984375l1.515625 0zm-0.734375 -3.734375q0.359375 0 0.625 0.25q0.28125 0.234375 0.28125 0.75q0 0.5 -0.28125 0.75q-0.265625 0.234375 -0.625 0.234375q-0.390625 0 -0.65625 -0.234375q-0.265625 -0.25 -0.265625 -0.75q0 -0.515625 0.265625 -0.75q0.265625 -0.25 0.65625 -0.25zm7.7721252 3.546875q1.28125 0 2.1875 0.578125q0.90625 0.5625 1.390625 1.578125q0.484375 1.015625 0.484375 2.375l0 0.9375l-6.890625 0q0.015625 1.75 0.859375 2.671875q0.859375 0.921875 2.390625 0.921875q0.953125 0 1.671875 -0.171875q0.734375 -0.171875 1.53125 -0.515625l0 1.328125q-0.765625 0.34375 -1.515625 0.5q-0.734375 0.15625 -1.75 0.15625q-1.4375 0 -2.515625 -0.59375q-1.0625 -0.59375 -1.65625 -1.71875q-0.59375 -1.140625 -0.59375 -2.796875q0 -1.609375 0.546875 -2.78125q0.546875 -1.1875 1.53125 -1.828125q0.984375 -0.640625 2.328125 -0.640625zm-0.015625 1.25q-1.21875 0 -1.9375 0.796875q-0.71875 0.78125 -0.859375 2.203125l5.296875 0q-0.015625 -0.890625 -0.28125 -1.5625q-0.265625 -0.6875 -0.8125 -1.0625q-0.546875 -0.375 -1.40625 -0.375zm8.163422 8.921875l-1.515625 0l0 -14.171875l1.515625 0l0 14.171875zm6.7408447 0.1875q-1.890625 0 -3.0 -1.296875q-1.109375 -1.296875 -1.109375 -3.84375q0 -2.578125 1.125 -3.890625q1.140625 -1.328125 3.015625 -1.328125q0.796875 0 1.390625 0.21875q0.59375 0.203125 1.015625 0.5625q0.421875 0.34375 0.71875 0.796875l0.109375 0q-0.03125 -0.28125 -0.078125 -0.765625q-0.03125 -0.5 -0.03125 -0.8125l0 -4.0l1.515625 0l0 14.171875l-1.21875 0l-0.234375 -1.421875l-0.0625 0q-0.28125 0.453125 -0.71875 0.8125q-0.421875 0.359375 -1.03125 0.578125q-0.59375 0.21875 -1.40625 0.21875zm0.25 -1.265625q1.59375 0 2.25 -0.90625q0.671875 -0.90625 0.671875 -2.703125l0 -0.28125q0 -1.90625 -0.640625 -2.921875q-0.625 -1.015625 -2.28125 -1.015625q-1.40625 0 -2.09375 1.078125q-0.6875 1.0625 -0.6875 2.90625q0 1.84375 0.6875 2.84375q0.6875 1.0 2.09375 1.0z" fill-rule="nonzero"/></g></svg>