<svg height="399.66666662693024" width="778.6666666269302" xmlns="http://www.w3.org/2000/svg">
<style>
path.link{fill:none;stroke:#7f8c8d;stroke-width:2px}
text{font-family:sans-serif;pointer-events:none}
marker{fill:#d8dadc}
text .faded{fill:#333}
.node .outline{-webkit-transform:scale(1);-moz-transform:scale(1);-o-transform:scale(1);-ms-transform:scale(1);transform:scale(1);-webkit-transition:all .15s;-moz-transition:all .15s;-o-transition:all .15s;-ms-transition:all .15s;transition:all .15s;-webkit-transition-timing-function:cubic-bezier(.694,.0482,.335,1);-moz-transition-timing-function:cubic-bezier(.694,.0482,.335,1);-o-transition-timing-function:cubic-bezier(.694,.0482,.335,1);-ms-transition-timing-function:cubic-bezier(.694,.0482,.335,1);transition-timing-function:cubic-bezier(.694,.0482,.335,1)}
.node:hover .outline{-webkit-transform:scale(1.4);-moz-transform:scale(1.4);-o-transform:scale(1.4);-ms-transform:scale(1.4);transform:scale(1.4)}
.relationship:hover{stroke:#3498db}
.outline,.overlay{cursor:pointer}
g.node text[stroke="#DFE1E3"] {text-shadow: -1px -1px 2px #DFE1E3, -1px 1px 2px #DFE1E3, -1px 0 2px #DFE1E3, 1px -1px 2px #DFE1E3, 1px 1px 2px #DFE1E3, 1px 0 2px #DFE1E3, 0 -1px 2px #DFE1E3, 0 1px 2px #DFE1E3}
g.node text[stroke="#F25A29"] {text-shadow: -1px -1px 2px #F25A29, -1px 1px 2px #F25A29, -1px 0 2px #F25A29, 1px -1px 2px #F25A29, 1px 1px 2px #F25A29, 1px 0 2px #F25A29, 0 -1px 2px #F25A29, 0 1px 2px #F25A29}
g.node text[stroke="#AD62CE"] {text-shadow: -1px -1px 2px #AD62CE, -1px 1px 2px #AD62CE, -1px 0 2px #AD62CE, 1px -1px 2px #AD62CE, 1px 1px 2px #AD62CE, 1px 0 2px #AD62CE, 0 -1px 2px #AD62CE, 0 1px 2px #AD62CE}
g.node text[stroke="#30B6AF"] {text-shadow: -1px -1px 2px #30B6AF, -1px 1px 2px #30B6AF, -1px 0 2px #30B6AF, 1px -1px 2px #30B6AF, 1px 1px 2px #30B6AF, 1px 0 2px #30B6AF, 0 -1px 2px #30B6AF, 0 1px 2px #30B6AF}
g.node text[stroke="#FCC940"] {text-shadow: -1px -1px 2px #FCC940, -1px 1px 2px #FCC940, -1px 0 2px #FCC940, 1px -1px 2px #FCC940, 1px 1px 2px #FCC940, 1px 0 2px #FCC940, 0 -1px 2px #FCC940, 0 1px 2px #FCC940}
g.node text[stroke="#4356C0"] {text-shadow: -1px -1px 2px #4356C0, -1px 1px 2px #4356C0, -1px 0 2px #4356C0, 1px -1px 2px #4356C0, 1px 1px 2px #4356C0, 1px 0 2px #4356C0, 0 -1px 2px #4356C0, 0 1px 2px #4356C0}
g.node text[stroke="#FF6C7C"] {text-shadow: -1px -1px 2px #FF6C7C, -1px 1px 2px #FF6C7C, -1px 0 2px #FF6C7C, 1px -1px 2px #FF6C7C, 1px 1px 2px #FF6C7C, 1px 0 2px #FF6C7C, 0 -1px 2px #FF6C7C, 0 1px 2px #FF6C7C}
g.node text[stroke="#a2cf81"] {text-shadow: -1px -1px 2px #a2cf81, -1px 1px 2px #a2cf81, -1px 0 2px #a2cf81, 1px -1px 2px #a2cf81, 1px 1px 2px #a2cf81, 1px 0 2px #a2cf81, 0 -1px 2px #a2cf81, 0 1px 2px #a2cf81}
g.node text[stroke="#f79235"] {text-shadow: -1px -1px 2px #f79235, -1px 1px 2px #f79235, -1px 0 2px #f79235, 1px -1px 2px #f79235, 1px 1px 2px #f79235, 1px 0 2px #f79235, 0 -1px 2px #f79235, 0 1px 2px #f79235}
g.node text[stroke="#785cc7"] {text-shadow: -1px -1px 2px #785cc7, -1px 1px 2px #785cc7, -1px 0 2px #785cc7, 1px -1px 2px #785cc7, 1px 1px 2px #785cc7, 1px 0 2px #785cc7, 0 -1px 2px #785cc7, 0 1px 2px #785cc7}
g.node text[stroke="#d05e7c"] {text-shadow: -1px -1px 2px #d05e7c, -1px 1px 2px #d05e7c, -1px 0 2px #d05e7c, 1px -1px 2px #d05e7c, 1px 1px 2px #d05e7c, 1px 0 2px #d05e7c, 0 -1px 2px #d05e7c, 0 1px 2px #d05e7c}
g.node text[stroke="#3986b7"] {text-shadow: -1px -1px 2px #3986b7, -1px 1px 2px #3986b7, -1px 0 2px #3986b7, 1px -1px 2px #3986b7, 1px 1px 2px #3986b7, 1px 0 2px #3986b7, 0 -1px 2px #3986b7, 0 1px 2px #3986b7}

</style>
<g class="layer relationships"><g class="relationship"><path fill="#4356C0" stroke="none" d="M 0 1.5 L 19.33971797042568 1.5 L 19.33971797042568 -1.5 L 0 -1.5 Z M 49.34264765792568 1.5 L 68.68236562835136 1.5 L 68.68236562835136 4.5 L 77.68236562835136 0 L 68.68236562835136 -4.5 L 68.68236562835136 -1.5 L 49.34264765792568 -1.5 Z" transform="translate(545.3131832561492 61.85508304265797) rotate(163.7739493779946)"/><text text-anchor="middle" font-size="9px" fill="#000000" x="512.3399217819199" y="74.95096053399483" transform="rotate(343.7739493779946 512.3399217819199 71.45096053399483)">NEXT</text><rect class="overlay" fill="yellow" x="0" y="-10" height="20" opacity="0" width="77.68236562835136" transform="translate(545.3131832561492 61.85508304265797) rotate(163.7739493779946)"/></g><g class="relationship"><path fill="#4356C0" stroke="none" d="M 0 1.5 L 9.986767239913021 1.5 L 9.986767239913021 -1.5 L 0 -1.5 Z M 39.98969692741302 1.5 L 49.97646416732604 1.5 L 49.97646416732604 4.5 L 58.97646416732604 0 L 49.97646416732604 -4.5 L 49.97646416732604 -1.5 L 39.98969692741302 -1.5 Z" transform="translate(432.7409390857595 96.02616488654834) rotate(159.8916720710682)"/><text text-anchor="middle" font-size="9px" fill="#000000" x="409.27588239756494" y="108.11702382421113" transform="rotate(339.89167207106823 409.27588239756494 104.61702382421113)">NEXT</text><rect class="overlay" fill="yellow" x="0" y="-10" height="20" opacity="0" width="58.97646416732604" transform="translate(432.7409390857595 96.02616488654834) rotate(159.8916720710682)"/></g><g class="relationship"><path fill="#4356C0" stroke="none" d="M 0 1.5 L 24.773059212356017 1.5 L 24.773059212356017 -1.5 L 0 -1.5 Z M 54.77598889985602 1.5 L 79.54904811221203 1.5 L 79.54904811221203 4.5 L 88.54904811221203 0 L 79.54904811221203 -4.5 L 79.54904811221203 -1.5 L 54.77598889985602 -1.5 Z" transform="translate(376.4994980683781 132.0571223515724) rotate(26.356659622271252)"/><text text-anchor="middle" font-size="9px" fill="#000000" x="412.1393744500307" y="153.21532088342383" transform="rotate(26.356659622271252 412.1393744500307 149.71532088342383)">NEXT</text><rect class="overlay" fill="yellow" x="0" y="-10" height="20" opacity="0" width="88.54904811221203" transform="translate(376.4994980683781 132.0571223515724) rotate(26.356659622271252)"/></g><g class="relationship"><path fill="#4356C0" stroke="none" d="M 0 1.5 L 2.322632322855398 1.5 L 2.322632322855398 -1.5 L 0 -1.5 Z M 23.822144041605398 1.5 L 26.144776364460796 1.5 L 26.144776364460796 4.5 L 35.144776364460796 0 L 26.144776364460796 -4.5 L 26.144776364460796 -1.5 L 23.822144041605398 -1.5 Z" transform="translate(457.0619432309162 191.24919528711027) rotate(146.62987174091643)"/><text text-anchor="middle" font-size="9px" fill="#000000" x="446.144737613346" y="201.93960238897947" transform="rotate(326.6298717409164 446.144737613346 198.43960238897947)">N…</text><rect class="overlay" fill="yellow" x="0" y="-10" height="20" opacity="0" width="35.144776364460796" transform="translate(457.0619432309162 191.24919528711027) rotate(146.62987174091643)"/></g><g class="relationship"><path fill="#4356C0" stroke="none" d="M 0 1.5 L 1.4534549099066965 1.5 L 1.4534549099066965 -1.5 L 0 -1.5 Z M 22.952966628656696 1.5 L 24.406421538563393 1.5 L 24.406421538563393 4.5 L 33.40642153856339 0 L 24.406421538563393 -4.5 L 24.406421538563393 -1.5 L 22.952966628656696 -1.5 Z" transform="translate(430.1684224296626 227.3173646273023) rotate(16.666587799279746)"/><text text-anchor="middle" font-size="9px" fill="#000000" x="441.8589751808236" y="234.3172688333963" transform="rotate(16.666587799279746 441.8589751808236 230.8172688333963)">N…</text><rect class="overlay" fill="yellow" x="0" y="-10" height="20" opacity="0" width="33.40642153856339" transform="translate(430.1684224296626 227.3173646273023) rotate(16.666587799279746)"/></g><g class="relationship"><path fill="#4356C0" stroke="none" d="M 0 1.5 L 6.921664635890643 1.5 L 6.921664635890643 -1.5 L 0 -1.5 Z M 6.921664635890643 1.5 L 13.843329271781286 1.5 L 13.843329271781286 4.5 L 22.843329271781286 0 L 13.843329271781286 -4.5 L 13.843329271781286 -1.5 L 6.921664635890643 -1.5 Z" transform="translate(478.9231524314225 222.77992937909045) rotate(-96.91542723083649)"/><text text-anchor="middle" font-size="9px" fill="#000000" x="478.08975535135374" y="219.40862014149445" transform="rotate(83.08457276916351 478.08975535135374 215.90862014149445)"/><rect class="overlay" fill="yellow" x="0" y="-10" height="20" opacity="0" width="22.843329271781286" transform="translate(478.9231524314225 222.77992937909045) rotate(-96.91542723083649)"/></g><g class="relationship"><path fill="#4356C0" stroke="none" d="M 0 1.5 L 0.17364638427955725 1.5 L 0.17364638427955725 -1.5 L 0 -1.5 Z M 27.676087790529557 1.5 L 27.849734174809115 1.5 L 27.849734174809115 4.5 L 36.849734174809115 0 L 27.849734174809115 -4.5 L 27.849734174809115 -1.5 L 27.676087790529557 -1.5 Z" transform="translate(454.37646729621486 175.33923130262994) rotate(-165.79140619520618)"/><text text-anchor="middle" font-size="9px" fill="#000000" x="440.87758214966726" y="175.42133381993682" transform="rotate(14.208593804793821 440.87758214966726 171.92133381993682)">NE…</text><rect class="overlay" fill="yellow" x="0" y="-10" height="20" opacity="0" width="36.849734174809115" transform="translate(454.37646729621486 175.33923130262994) rotate(-165.79140619520618)"/></g><g class="relationship"><path fill="#4356C0" stroke="none" d="M 0 1.5 L 1.653286824502814 1.5 L 1.653286824502814 -1.5 L 0 -1.5 Z M 31.656216512002814 1.5 L 33.30950333650563 1.5 L 33.30950333650563 4.5 L 42.30950333650563 0 L 33.30950333650563 -4.5 L 33.30950333650563 -1.5 L 31.656216512002814 -1.5 Z" transform="translate(364.60858915803055 61.16093642487929) rotate(95.55353285127548)"/><text text-anchor="middle" font-size="9px" fill="#000000" x="362.9968133471086" y="81.23751423414066" transform="rotate(275.55353285127546 362.9968133471086 77.73751423414066)">NEXT</text><rect class="overlay" fill="yellow" x="0" y="-10" height="20" opacity="0" width="42.30950333650563" transform="translate(364.60858915803055 61.16093642487929) rotate(95.55353285127548)"/></g><g class="relationship"><path fill="#4356C0" stroke="none" d="M 0 1.5 L 9.268615068590748 1.5 L 9.268615068590748 -1.5 L 0 -1.5 Z M 39.27154475609075 1.5 L 48.540159824681496 1.5 L 48.540159824681496 4.5 L 57.540159824681496 0 L 48.540159824681496 -4.5 L 48.540159824681496 -1.5 L 39.27154475609075 -1.5 Z" transform="translate(485.2754952275747 196.60371955808898) rotate(54.86234272956606)"/><text text-anchor="middle" font-size="9px" fill="#000000" x="499.2439662210853" y="219.95110218288008" transform="rotate(54.86234272956606 499.2439662210853 216.45110218288008)">NEXT</text><rect class="overlay" fill="yellow" x="0" y="-10" height="20" opacity="0" width="57.540159824681496" transform="translate(485.2754952275747 196.60371955808898) rotate(54.86234272956606)"/></g><g class="relationship"><path fill="#4356C0" stroke="none" d="M 0 1.5 L 2.3847684282296058 1.5 L 2.3847684282296058 -1.5 L 0 -1.5 Z M 23.884280146979606 1.5 L 26.26904857520921 1.5 L 26.26904857520921 4.5 L 35.26904857520921 0 L 26.26904857520921 -4.5 L 26.26904857520921 -1.5 L 23.884280146979606 -1.5 Z" transform="translate(517.6088278325533 275.78880740920306) rotate(127.93140371954823)"/><text text-anchor="middle" font-size="9px" fill="#000000" x="509.53480453993905" y="289.6486276842849" transform="rotate(307.93140371954826 509.53480453993905 286.1486276842849)">N…</text><rect class="overlay" fill="yellow" x="0" y="-10" height="20" opacity="0" width="35.26904857520921" transform="translate(517.6088278325533 275.78880740920306) rotate(127.93140371954823)"/></g><g class="relationship"><path fill="#4356C0" stroke="none" d="M 0 1.5 L 11.642230494961964 1.5 L 11.642230494961964 -1.5 L 0 -1.5 Z M 41.645160182461964 1.5 L 53.28739067742393 1.5 L 53.28739067742393 4.5 L 62.28739067742393 0 L 53.28739067742393 -4.5 L 53.28739067742393 -1.5 L 41.645160182461964 -1.5 Z" transform="translate(491.7364095625959 337.6673722290839) rotate(66.1012311981699)"/><text text-anchor="middle" font-size="9px" fill="#000000" x="502.530355127636" y="365.5267080254691" transform="rotate(66.1012311981699 502.530355127636 362.0267080254691)">NEXT</text><rect class="overlay" fill="yellow" x="0" y="-10" height="20" opacity="0" width="62.28739067742393" transform="translate(491.7364095625959 337.6673722290839) rotate(66.1012311981699)"/></g><g class="relationship"><path fill="#4356C0" stroke="none" d="M 0 1.5 L 1.5866524594719351 1.5 L 1.5866524594719351 -1.5 L 0 -1.5 Z M 31.589582146971935 1.5 L 33.17623460644387 1.5 L 33.17623460644387 4.5 L 42.17623460644387 0 L 33.17623460644387 -4.5 L 33.17623460644387 -1.5 L 31.589582146971935 -1.5 Z" transform="translate(544.5074778348337 408.1779309387774) rotate(-13.655677021271341)"/><text text-anchor="middle" font-size="9px" fill="#000000" x="560.6266829511509" y="407.7617003424584" transform="rotate(-13.655677021271341 560.6266829511509 404.2617003424584)">NEXT</text><rect class="overlay" fill="yellow" x="0" y="-10" height="20" opacity="0" width="42.17623460644387" transform="translate(544.5074778348337 408.1779309387774) rotate(-13.655677021271341)"/></g><g class="relationship"><path fill="#4356C0" stroke="none" d="M 0 1.5 L 6.8081148134361555 1.5 L 6.8081148134361555 -1.5 L 0 -1.5 Z M 36.811044500936156 1.5 L 43.61915931437231 1.5 L 43.61915931437231 4.5 L 52.61915931437231 0 L 43.61915931437231 -4.5 L 43.61915931437231 -1.5 L 36.811044500936156 -1.5 Z" transform="translate(611.546104567849 374.62634162302413) rotate(-70.67055604289378)"/><text text-anchor="middle" font-size="9px" fill="#000000" x="618.7650615349653" y="357.5461466499421" transform="rotate(-70.67055604289378 618.7650615349653 354.0461466499421)">NEXT</text><rect class="overlay" fill="yellow" x="0" y="-10" height="20" opacity="0" width="52.61915931437231" transform="translate(611.546104567849 374.62634162302413) rotate(-70.67055604289378)"/></g><g class="relationship"><path fill="#4356C0" stroke="none" d="M 0 1.5 L 0.007151519801098516 1.5 L 0.007151519801098516 -1.5 L 0 -1.5 Z M 21.5066632385511 1.5 L 21.513814758352197 1.5 L 21.513814758352197 4.5 L 30.513814758352197 0 L 21.513814758352197 -4.5 L 21.513814758352197 -1.5 L 21.5066632385511 -1.5 Z" transform="translate(655.494370139669 304.2198715835329) rotate(-5.396015963760204)"/><text text-anchor="middle" font-size="9px" fill="#000000" x="666.203608348072" y="306.7083018331677" transform="rotate(-5.396015963760204 666.203608348072 303.2083018331677)">N…</text><rect class="overlay" fill="yellow" x="0" y="-10" height="20" opacity="0" width="30.513814758352197" transform="translate(655.494370139669 304.2198715835329) rotate(-5.396015963760204)"/></g><g class="relationship"><path fill="#4356C0" stroke="none" d="M 0 1.5 L 10.015669770601605 1.5 L 10.015669770601605 -1.5 L 0 -1.5 Z M 40.018599458101605 1.5 L 50.03426922870321 1.5 L 50.03426922870321 4.5 L 59.03426922870321 0 L 50.03426922870321 -4.5 L 50.03426922870321 -1.5 L 40.018599458101605 -1.5 Z" transform="translate(322.34943753157734 52.936476251294806) rotate(62.71625692306465)"/><text text-anchor="middle" font-size="9px" fill="#000000" x="333.8172270589294" y="78.67038791049109" transform="rotate(62.71625692306465 333.8172270589294 75.17038791049109)">NEXT</text><rect class="overlay" fill="yellow" x="0" y="-10" height="20" opacity="0" width="59.03426922870321" transform="translate(322.34943753157734 52.936476251294806) rotate(62.71625692306465)"/></g><g class="relationship"><path fill="#4356C0" stroke="none" d="M 0 1.5 L 17.553606926519024 1.5 L 17.553606926519024 -1.5 L 0 -1.5 Z M 47.55653661401902 1.5 L 65.11014354053805 1.5 L 65.11014354053805 4.5 L 74.11014354053805 0 L 65.11014354053805 -4.5 L 65.11014354053805 -1.5 L 47.55653661401902 -1.5 Z" transform="translate(341.59373898883405 112.61783529683085) rotate(-148.1291159000379)"/><text text-anchor="middle" font-size="9px" fill="#000000" x="313.9466661396971" y="98.92853453031101" transform="rotate(31.870884099962097 313.9466661396971 95.42853453031101)">NEXT</text><rect class="overlay" fill="yellow" x="0" y="-10" height="20" opacity="0" width="74.11014354053805" transform="translate(341.59373898883405 112.61783529683085) rotate(-148.1291159000379)"/></g><g class="relationship"><path fill="#4356C0" stroke="none" d="M 0 1.5 L 4.659611944691257 1.5 L 4.659611944691257 -1.5 L 0 -1.5 Z M 34.66254163219126 1.5 L 39.32215357688251 1.5 L 39.32215357688251 4.5 L 48.32215357688251 0 L 39.32215357688251 -4.5 L 39.32215357688251 -1.5 L 34.66254163219126 -1.5 Z" transform="translate(243.1670829741194 55.338771954882304) rotate(-157.70266258869944)"/><text text-anchor="middle" font-size="9px" fill="#000000" x="224.97611697794707" y="51.37910060775946" transform="rotate(22.29733741130056 224.97611697794707 47.87910060775946)">NEXT</text><rect class="overlay" fill="yellow" x="0" y="-10" height="20" opacity="0" width="48.32215357688251" transform="translate(243.1670829741194 55.338771954882304) rotate(-157.70266258869944)"/></g><g class="relationship"><path fill="#4356C0" stroke="none" d="M 0 1.5 L 9.326298662506574 1.5 L 9.326298662506574 -1.5 L 0 -1.5 Z M 39.329228350006574 1.5 L 48.65552701251315 1.5 L 48.65552701251315 4.5 L 57.65552701251315 0 L 48.65552701251315 -4.5 L 48.65552701251315 -1.5 L 39.329228350006574 -1.5 Z" transform="translate(170.97420622370123 47.28740846119415) rotate(116.67746415566833)"/><text text-anchor="middle" font-size="9px" fill="#000000" x="160.05182914344292" y="72.5254340415682" transform="rotate(296.6774641556683 160.05182914344292 69.0254340415682)">NEXT</text><rect class="overlay" fill="yellow" x="0" y="-10" height="20" opacity="0" width="57.65552701251315" transform="translate(170.97420622370123 47.28740846119415) rotate(116.67746415566833)"/></g><g class="relationship"><path fill="#4356C0" stroke="none" d="M 0 1.5 L 16.759917660204636 1.5 L 16.759917660204636 -1.5 L 0 -1.5 Z M 46.762847347704636 1.5 L 63.52276500790927 1.5 L 63.52276500790927 4.5 L 72.52276500790927 0 L 63.52276500790927 -4.5 L 63.52276500790927 -1.5 L 46.762847347704636 -1.5 Z" transform="translate(133.60280458268093 136.5186567492797) rotate(97.19977772317048)"/><text text-anchor="middle" font-size="9px" fill="#000000" x="129.62217005650714" y="171.52960670848512" transform="rotate(277.1997777231705 129.62217005650714 168.02960670848512)">NEXT</text><rect class="overlay" fill="yellow" x="0" y="-10" height="20" opacity="0" width="72.52276500790927" transform="translate(133.60280458268093 136.5186567492797) rotate(97.19977772317048)"/></g><g class="relationship"><path fill="#4356C0" stroke="none" d="M 0 1.5 L 1.1897578072249715 1.5 L 1.1897578072249715 -1.5 L 0 -1.5 Z M 28.69219921347497 1.5 L 29.881957020699943 1.5 L 29.881957020699943 4.5 L 38.88195702069994 0 L 29.881957020699943 -4.5 L 29.881957020699943 -1.5 L 28.69219921347497 -1.5 Z" transform="translate(109.710499917046 212.53861290195013) rotate(-127.93914548786934)"/><text text-anchor="middle" font-size="9px" fill="#000000" x="100.52442516267693" y="204.25519788533109" transform="rotate(52.06085451213066 100.52442516267693 200.75519788533109)">NE…</text><rect class="overlay" fill="yellow" x="0" y="-10" height="20" opacity="0" width="38.88195702069994" transform="translate(109.710499917046 212.53861290195013) rotate(-127.93914548786934)"/></g><g class="relationship"><path fill="#4356C0" stroke="none" d="M 0 1.5 L 16.049525526579565 1.5 L 16.049525526579565 -1.5 L 0 -1.5 Z M 46.052455214079565 1.5 L 62.10198074065913 1.5 L 62.10198074065913 4.5 L 71.10198074065913 0 L 62.10198074065913 -4.5 L 62.10198074065913 -1.5 L 46.052455214079565 -1.5 Z" transform="translate(294.28081713156536 187.71767756630257) rotate(-45.107612255032834)"/><text text-anchor="middle" font-size="9px" fill="#000000" x="316.19590609619297" y="169.22011227714486" transform="rotate(-45.107612255032834 316.19590609619297 165.72011227714486)">NEXT</text><rect class="overlay" fill="yellow" x="0" y="-10" height="20" opacity="0" width="71.10198074065913" transform="translate(294.28081713156536 187.71767756630257) rotate(-45.107612255032834)"/></g><g class="relationship"><path fill="#4356C0" stroke="none" d="M 0 1.5 L 25.344245581700136 1.5 L 25.344245581700136 -1.5 L 0 -1.5 Z M 55.347175269200136 1.5 L 80.69142085090027 1.5 L 80.69142085090027 4.5 L 89.69142085090027 0 L 80.69142085090027 -4.5 L 80.69142085090027 -1.5 L 55.347175269200136 -1.5 Z" transform="translate(477.21196987878193 160.54762965199913) rotate(-80.07455416043155)"/><text text-anchor="middle" font-size="9px" fill="#000000" x="484.1662221573769" y="124.30577860074672" transform="rotate(-80.07455416043155 484.1662221573769 120.80577860074672)">NEXT</text><rect class="overlay" fill="yellow" x="0" y="-10" height="20" opacity="0" width="89.69142085090027" transform="translate(477.21196987878193 160.54762965199913) rotate(-80.07455416043155)"/></g><g class="relationship"><path fill="#4356C0" stroke="none" d="M 0 1.5 L 9.723292641953101 1.5 L 9.723292641953101 -1.5 L 0 -1.5 Z M 39.7262223294531 1.5 L 49.4495149714062 1.5 L 49.4495149714062 4.5 L 58.4495149714062 0 L 49.4495149714062 -4.5 L 49.4495149714062 -1.5 L 39.7262223294531 -1.5 Z" transform="translate(504.68343094390224 34.42444863960412) rotate(-64.64558612859413)"/><text text-anchor="middle" font-size="9px" fill="#000000" x="515.270974589401" y="15.58127177771874" transform="rotate(-64.64558612859413 515.270974589401 12.08127177771874)">NEXT</text><rect class="overlay" fill="yellow" x="0" y="-10" height="20" opacity="0" width="58.4495149714062" transform="translate(504.68343094390224 34.42444863960412) rotate(-64.64558612859413)"/></g><g class="relationship"><path fill="#4356C0" stroke="none" d="M 0 1.5 L 4.272185919716925 1.5 L 4.272185919716925 -1.5 L 0 -1.5 Z M 34.275115607216925 1.5 L 38.54730152693385 1.5 L 38.54730152693385 4.5 L 47.54730152693385 0 L 38.54730152693385 -4.5 L 38.54730152693385 -1.5 L 34.275115607216925 -1.5 Z" transform="translate(527.3643041147305 -53.229115180832395) rotate(-123.06733714312101)"/><text text-anchor="middle" font-size="9px" fill="#000000" x="516.8481317097238" y="-65.88101078785837" transform="rotate(56.93266285687899 516.8481317097238 -69.38101078785837)">NEXT</text><rect class="overlay" fill="yellow" x="0" y="-10" height="20" opacity="0" width="47.54730152693385" transform="translate(527.3643041147305 -53.229115180832395) rotate(-123.06733714312101)"/></g><g class="relationship"><path fill="#4356C0" stroke="none" d="M 0 1.5 L 10.499711429612034 1.5 L 10.499711429612034 -1.5 L 0 -1.5 Z M 10.499711429612034 1.5 L 20.99942285922407 1.5 L 20.99942285922407 4.5 L 29.99942285922407 0 L 20.99942285922407 -4.5 L 20.99942285922407 -1.5 L 10.499711429612034 -1.5 Z" transform="translate(484.39119931290554 -90.7943896627097) rotate(107.81128011421974)"/><text text-anchor="middle" font-size="9px" fill="#000000" x="481.179518710405" y="-77.2979379015773" transform="rotate(287.81128011421976 481.179518710405 -80.7979379015773)"/><rect class="overlay" fill="yellow" x="0" y="-10" height="20" opacity="0" width="29.99942285922407" transform="translate(484.39119931290554 -90.7943896627097) rotate(107.81128011421974)"/></g><g class="relationship"><path fill="#4356C0" stroke="none" d="M 0 1.5 L 10.214359785634073 1.5 L 10.214359785634073 -1.5 L 0 -1.5 Z M 40.21728947313407 1.5 L 50.43164925876815 1.5 L 50.43164925876815 4.5 L 59.43164925876815 0 L 50.43164925876815 -4.5 L 50.43164925876815 -1.5 L 40.21728947313407 -1.5 Z" transform="translate(474.53250313576444 -23.944196771516598) rotate(74.23078321636592)"/><text text-anchor="middle" font-size="9px" fill="#000000" x="481.3852372951865" y="3.8226086688404486" transform="rotate(74.23078321636592 481.3852372951865 0.3226086688404486)">NEXT</text><rect class="overlay" fill="yellow" x="0" y="-10" height="20" opacity="0" width="59.43164925876815" transform="translate(474.53250313576444 -23.944196771516598) rotate(74.23078321636592)"/></g><g class="relationship"><path fill="#4356C0" stroke="none" d="M 0 1.5 L 14.232153607842577 1.5 L 14.232153607842577 -1.5 L 0 -1.5 Z M 44.23508329534258 1.5 L 58.46723690318515 1.5 L 58.46723690318515 4.5 L 67.46723690318515 0 L 58.46723690318515 -4.5 L 58.46723690318515 -1.5 L 44.23508329534258 -1.5 Z" transform="translate(481.3493271879827 39.012661759734605) rotate(-137.6028523948419)"/><text text-anchor="middle" font-size="9px" fill="#000000" x="459.7606241925346" y="22.80143778080258" transform="rotate(42.397147605158096 459.7606241925346 19.30143778080258)">NEXT</text><rect class="overlay" fill="yellow" x="0" y="-10" height="20" opacity="0" width="67.46723690318515" transform="translate(481.3493271879827 39.012661759734605) rotate(-137.6028523948419)"/></g><g class="relationship"><path fill="#4356C0" stroke="none" d="M 0 1.5 L 4.971681950549211 1.5 L 4.971681950549211 -1.5 L 0 -1.5 Z M 34.97461163804921 1.5 L 39.94629358859842 1.5 L 39.94629358859842 4.5 L 48.94629358859842 0 L 39.94629358859842 -4.5 L 39.94629358859842 -1.5 L 34.97461163804921 -1.5 Z" transform="translate(260.604426370792 197.71819991274845) rotate(-167.97095627865878)"/><text text-anchor="middle" font-size="9px" fill="#000000" x="241.06984827900664" y="197.05564641248395" transform="rotate(12.029043721341225 241.06984827900664 193.55564641248395)">NEXT</text><rect class="overlay" fill="yellow" x="0" y="-10" height="20" opacity="0" width="48.94629358859842" transform="translate(260.604426370792 197.71819991274845) rotate(-167.97095627865878)"/></g><g class="relationship"><path fill="#4356C0" stroke="none" d="M 0 1.5 L 2.5880350789784217 1.5 L 2.5880350789784217 -1.5 L 0 -1.5 Z M 32.59096476647842 1.5 L 35.17899984545684 1.5 L 35.17899984545684 4.5 L 44.17899984545684 0 L 35.17899984545684 -4.5 L 35.17899984545684 -1.5 L 32.59096476647842 -1.5 Z" transform="translate(176.26401653612737 194.03189749065808) rotate(147.71499625085792)"/><text text-anchor="middle" font-size="9px" fill="#000000" x="161.39382406030342" y="206.9269963865512" transform="rotate(327.7149962508579 161.39382406030342 203.4269963865512)">NEXT</text><rect class="overlay" fill="yellow" x="0" y="-10" height="20" opacity="0" width="44.17899984545684" transform="translate(176.26401653612737 194.03189749065808) rotate(147.71499625085792)"/></g><g class="relationship"><path fill="#4356C0" stroke="none" d="M 0 1.5 L 7.1348745804723634 1.5 L 7.1348745804723634 -1.5 L 0 -1.5 Z M 37.13780426797236 1.5 L 44.27267884844473 1.5 L 44.27267884844473 4.5 L 53.27267884844473 0 L 44.27267884844473 -4.5 L 44.27267884844473 -1.5 L 37.13780426797236 -1.5 Z" transform="translate(128.1049269572373 247.35960258629925) rotate(72.24802193319913)"/><text text-anchor="middle" font-size="9px" fill="#000000" x="134.8542344043443" y="271.9419262743752" transform="rotate(72.24802193319913 134.8542344043443 268.4419262743752)">NEXT</text><rect class="overlay" fill="yellow" x="0" y="-10" height="20" opacity="0" width="53.27267884844473" transform="translate(128.1049269572373 247.35960258629925) rotate(72.24802193319913)"/></g><g class="relationship"><path fill="#4356C0" stroke="none" d="M 0 1.5 L 2.592464261290935 1.5 L 2.592464261290935 -1.5 L 0 -1.5 Z M 32.595393948790935 1.5 L 35.18785821008187 1.5 L 35.18785821008187 4.5 L 44.18785821008187 0 L 35.18785821008187 -4.5 L 35.18785821008187 -1.5 L 32.595393948790935 -1.5 Z" transform="translate(162.7365553820867 332.9209839897466) rotate(52.080787177363135)"/><text text-anchor="middle" font-size="9px" fill="#000000" x="173.5489004101089" y="350.3004485452765" transform="rotate(52.080787177363135 173.5489004101089 346.8004485452765)">NEXT</text><rect class="overlay" fill="yellow" x="0" y="-10" height="20" opacity="0" width="44.18785821008187" transform="translate(162.7365553820867 332.9209839897466) rotate(52.080787177363135)"/></g><g class="relationship"><path fill="#4356C0" stroke="none" d="M 0 1.5 L 7.637158281393205 1.5 L 7.637158281393205 -1.5 L 0 -1.5 Z M 37.640087968893205 1.5 L 45.27724625028641 1.5 L 45.27724625028641 4.5 L 54.27724625028641 0 L 45.27724625028641 -4.5 L 45.27724625028641 -1.5 L 37.640087968893205 -1.5 Z" transform="translate(217.3030223896734 370.46575230686847) rotate(-40.887903315694835)"/><text text-anchor="middle" font-size="9px" fill="#000000" x="234.4176332494403" y="359.1469348061022" transform="rotate(-40.887903315694835 234.4176332494403 355.6469348061022)">NEXT</text><rect class="overlay" fill="yellow" x="0" y="-10" height="20" opacity="0" width="54.27724625028641" transform="translate(217.3030223896734 370.46575230686847) rotate(-40.887903315694835)"/></g><g class="relationship"><path fill="#4356C0" stroke="none" d="M 0 1.5 L 20.57172976831194 1.5 L 20.57172976831194 -1.5 L 0 -1.5 Z M 50.57465945581194 1.5 L 71.14638922412388 1.5 L 71.14638922412388 4.5 L 80.14638922412388 0 L 71.14638922412388 -4.5 L 71.14638922412388 -1.5 L 50.57465945581194 -1.5 Z" transform="translate(274.57285138021655 301.8764700876599) rotate(-86.79879983264232)"/><text text-anchor="middle" font-size="9px" fill="#000000" x="276.55934462573373" y="269.85878407782604" transform="rotate(-86.79879983264232 276.55934462573373 266.35878407782604)">NEXT</text><rect class="overlay" fill="yellow" x="0" y="-10" height="20" opacity="0" width="80.14638922412388" transform="translate(274.57285138021655 301.8764700876599) rotate(-86.79879983264232)"/></g><g class="relationship"><path fill="#4356C0" stroke="none" d="M 0 1.5 L 5.432336619851924 1.5 L 5.432336619851924 -1.5 L 0 -1.5 Z M 35.435266307351924 1.5 L 40.86760292720385 1.5 L 40.86760292720385 4.5 L 49.86760292720385 0 L 40.86760292720385 -4.5 L 40.86760292720385 -1.5 L 35.435266307351924 -1.5 Z" transform="translate(136.34719443225407 242.25314334930604) rotate(44.19178549949746)"/><text text-anchor="middle" font-size="9px" fill="#000000" x="150.9984457174954" y="259.99677624371236" transform="rotate(44.19178549949746 150.9984457174954 256.49677624371236)">NEXT</text><rect class="overlay" fill="yellow" x="0" y="-10" height="20" opacity="0" width="49.86760292720385" transform="translate(136.34719443225407 242.25314334930604) rotate(44.19178549949746)"/></g><g class="relationship"><path fill="#4356C0" stroke="none" d="M 0 1.5 L 7.463717922394451 1.5 L 7.463717922394451 -1.5 L 0 -1.5 Z M 37.46664760989445 1.5 L 44.9303655322889 1.5 L 44.9303655322889 4.5 L 53.9303655322889 0 L 44.9303655322889 -4.5 L 44.9303655322889 -1.5 L 37.46664760989445 -1.5 Z" transform="translate(189.79446143864695 310.6724098698551) rotate(80.35326662351103)"/><text text-anchor="middle" font-size="9px" fill="#000000" x="193.55901771517617" y="336.31992785172196" transform="rotate(80.35326662351103 193.55901771517617 332.81992785172196)">NEXT</text><rect class="overlay" fill="yellow" x="0" y="-10" height="20" opacity="0" width="53.9303655322889" transform="translate(189.79446143864695 310.6724098698551) rotate(80.35326662351103)"/></g><g class="relationship"><path fill="#4356C0" stroke="none" d="M 0 1.5 L 11.737049788346852 1.5 L 11.737049788346852 -1.5 L 0 -1.5 Z M 41.73997947584685 1.5 L 53.4770292641937 1.5 L 53.4770292641937 4.5 L 62.4770292641937 0 L 53.4770292641937 -4.5 L 53.4770292641937 -1.5 L 41.73997947584685 -1.5 Z" transform="translate(120.38375745336532 248.24591671106435) rotate(94.65532018110984)"/><text text-anchor="middle" font-size="9px" fill="#000000" x="118.21362495148885" y="278.3962204552088" transform="rotate(274.65532018110986 118.21362495148885 274.8962204552088)">NEXT</text><rect class="overlay" fill="yellow" x="0" y="-10" height="20" opacity="0" width="62.4770292641937" transform="translate(120.38375745336532 248.24591671106435) rotate(94.65532018110984)"/></g><g class="relationship"><path fill="#4356C0" stroke="none" d="M 0 1.5 L 12.101296962425302 1.5 L 12.101296962425302 -1.5 L 0 -1.5 Z M 42.1042266499253 1.5 L 54.2055236123506 1.5 L 54.2055236123506 4.5 L 63.2055236123506 0 L 54.2055236123506 -4.5 L 54.2055236123506 -1.5 L 42.1042266499253 -1.5 Z" transform="translate(130.83877563938853 340.7422638190467) rotate(30.968754913972653)"/><text text-anchor="middle" font-size="9px" fill="#000000" x="154.07798559493733" y="358.1885471290973" transform="rotate(30.968754913972653 154.07798559493733 354.6885471290973)">NEXT</text><rect class="overlay" fill="yellow" x="0" y="-10" height="20" opacity="0" width="63.2055236123506" transform="translate(130.83877563938853 340.7422638190467) rotate(30.968754913972653)"/></g><g class="relationship"><path fill="#4356C0" stroke="none" d="M 0 1.5 L 15.940987407591756 1.5 L 15.940987407591756 -1.5 L 0 -1.5 Z M 45.943917095091756 1.5 L 61.88490450268351 1.5 L 61.88490450268351 4.5 L 70.88490450268351 0 L 61.88490450268351 -4.5 L 61.88490450268351 -1.5 L 45.943917095091756 -1.5 Z" transform="translate(291.35837382973625 330.7618262603966) rotate(26.476339837703396)"/><text text-anchor="middle" font-size="9px" fill="#000000" x="319.0555365645813" y="348.0568444831491" transform="rotate(26.476339837703396 319.0555365645813 344.5568444831491)">NEXT</text><rect class="overlay" fill="yellow" x="0" y="-10" height="20" opacity="0" width="70.88490450268351" transform="translate(291.35837382973625 330.7618262603966) rotate(26.476339837703396)"/></g><g class="relationship"><path fill="#4356C0" stroke="none" d="M 0 1.5 L 21.730382530509644 1.5 L 21.730382530509644 -1.5 L 0 -1.5 Z M 51.733312218009644 1.5 L 73.46369474851929 1.5 L 73.46369474851929 4.5 L 82.46369474851929 0 L 73.46369474851929 -4.5 L 73.46369474851929 -1.5 L 51.733312218009644 -1.5 Z" transform="translate(390.8263562108511 362.8051017002394) rotate(-25.074032610720835)"/><text text-anchor="middle" font-size="9px" fill="#000000" x="424.0966295567538" y="350.73855028334486" transform="rotate(-25.074032610720835 424.0966295567538 347.23855028334486)">NEXT</text><rect class="overlay" fill="yellow" x="0" y="-10" height="20" opacity="0" width="82.46369474851929" transform="translate(390.8263562108511 362.8051017002394) rotate(-25.074032610720835)"/></g><g class="relationship"><path fill="#4356C0" stroke="none" d="M 0 1.5 L 30.24024954615777 1.5 L 30.24024954615777 -1.5 L 0 -1.5 Z M 60.24317923365777 1.5 L 90.48342877981554 1.5 L 90.48342877981554 4.5 L 99.48342877981554 0 L 90.48342877981554 -4.5 L 90.48342877981554 -1.5 L 60.24317923365777 -1.5 Z" transform="translate(482.21884457312007 299.43224638226974) rotate(-94.05742823261103)"/><text text-anchor="middle" font-size="9px" fill="#000000" x="479.017707863691" y="257.80392440254695" transform="rotate(85.94257176738897 479.017707863691 254.30392440254693)">NEXT</text><rect class="overlay" fill="yellow" x="0" y="-10" height="20" opacity="0" width="99.48342877981554" transform="translate(482.21884457312007 299.43224638226974) rotate(-94.05742823261103)"/></g><g class="relationship"><path fill="#4356C0" stroke="none" d="M 0 1.5 L 31.36919340731106 1.5 L 31.36919340731106 -1.5 L 0 -1.5 Z M 61.37212309481106 1.5 L 92.74131650212212 1.5 L 92.74131650212212 4.5 L 101.74131650212212 0 L 92.74131650212212 -4.5 L 92.74131650212212 -1.5 L 61.37212309481106 -1.5 Z" transform="translate(459.3543777919579 194.11711528464505) rotate(136.09685261652004)"/><text text-anchor="middle" font-size="9px" fill="#000000" x="425.9437147528136" y="229.77244986417406" transform="rotate(316.09685261652004 425.9437147528136 226.27244986417406)">NEXT</text><rect class="overlay" fill="yellow" x="0" y="-10" height="20" opacity="0" width="101.74131650212212" transform="translate(459.3543777919579 194.11711528464505) rotate(136.09685261652004)"/></g><g class="relationship"><path fill="#4356C0" stroke="none" d="M 0 1.5 L 30.150248400725644 1.5 L 30.150248400725644 -1.5 L 0 -1.5 Z M 60.153178088225644 1.5 L 90.30342648895129 1.5 L 90.30342648895129 4.5 L 99.30342648895129 0 L 90.30342648895129 -4.5 L 90.30342648895129 -1.5 L 60.153178088225644 -1.5 Z" transform="translate(359.9481600470141 294.7654493262897) rotate(125.76772483886478)"/><text text-anchor="middle" font-size="9px" fill="#000000" x="333.55695188666203" y="334.9012424901932" transform="rotate(305.76772483886475 333.55695188666203 331.4012424901932)">NEXT</text><rect class="overlay" fill="yellow" x="0" y="-10" height="20" opacity="0" width="99.30342648895129" transform="translate(359.9481600470141 294.7654493262897) rotate(125.76772483886478)"/></g><g class="relationship"><path fill="#4356C0" stroke="none" d="M 0 1.5 L 4.696386389882839 1.5 L 4.696386389882839 -1.5 L 0 -1.5 Z M 34.69931607738284 1.5 L 39.39570246726568 1.5 L 39.39570246726568 4.5 L 48.39570246726568 0 L 39.39570246726568 -4.5 L 39.39570246726568 -1.5 L 34.69931607738284 -1.5 Z" transform="translate(270.29750510917415 389.7551192099126) rotate(-174.80095594724995)"/><text text-anchor="middle" font-size="9px" fill="#000000" x="250.68069259591294" y="391.4701794232841" transform="rotate(5.199044052750054 250.68069259591294 387.9701794232841)">NEXT</text><rect class="overlay" fill="yellow" x="0" y="-10" height="20" opacity="0" width="48.39570246726568" transform="translate(270.29750510917415 389.7551192099126) rotate(-174.80095594724995)"/></g><g class="relationship"><path fill="#4356C0" stroke="none" d="M 0 1.5 L 17.41344073977139 1.5 L 17.41344073977139 -1.5 L 0 -1.5 Z M 47.41637042727139 1.5 L 64.82981116704278 1.5 L 64.82981116704278 4.5 L 73.82981116704278 0 L 64.82981116704278 -4.5 L 64.82981116704278 -1.5 L 47.41637042727139 -1.5 Z" transform="translate(491.9772347092904 188.51274888778116) rotate(24.40746566832868)"/><text text-anchor="middle" font-size="9px" fill="#000000" x="521.4952145200189" y="205.40733629770287" transform="rotate(24.40746566832868 521.4952145200189 201.90733629770287)">NEXT</text><rect class="overlay" fill="yellow" x="0" y="-10" height="20" opacity="0" width="73.82981116704278" transform="translate(491.9772347092904 188.51274888778116) rotate(24.40746566832868)"/></g><g class="relationship"><path fill="#4356C0" stroke="none" d="M 0 1.5 L 9.474575314584548 1.5 L 9.474575314584548 -1.5 L 0 -1.5 Z M 39.47750500208455 1.5 L 48.9520803166691 1.5 L 48.9520803166691 4.5 L 57.9520803166691 0 L 48.9520803166691 -4.5 L 48.9520803166691 -1.5 L 39.47750500208455 -1.5 Z" transform="translate(589.2969683041676 243.37800914029916) rotate(53.57461401216189)"/><text text-anchor="middle" font-size="9px" fill="#000000" x="603.830240109722" y="266.57218473762447" transform="rotate(53.57461401216189 603.830240109722 263.07218473762447)">NEXT</text><rect class="overlay" fill="yellow" x="0" y="-10" height="20" opacity="0" width="57.9520803166691" transform="translate(589.2969683041676 243.37800914029916) rotate(53.57461401216189)"/></g><g class="relationship"><path fill="#4356C0" stroke="none" d="M 0 1.5 L 9.021155178733586 1.5 L 9.021155178733586 -1.5 L 0 -1.5 Z M 39.024084866233586 1.5 L 48.04524004496717 1.5 L 48.04524004496717 4.5 L 57.04524004496717 0 L 48.04524004496717 -4.5 L 48.04524004496717 -1.5 L 39.024084866233586 -1.5 Z" transform="translate(640.6708053260344 286.7586204142759) rotate(-75.26254148079327)"/><text text-anchor="middle" font-size="9px" fill="#000000" x="646.781926006605" y="267.02630505888936" transform="rotate(-75.26254148079327 646.781926006605 263.52630505888936)">NEXT</text><rect class="overlay" fill="yellow" x="0" y="-10" height="20" opacity="0" width="57.04524004496717" transform="translate(640.6708053260344 286.7586204142759) rotate(-75.26254148079327)"/></g><g class="relationship"><path fill="#4356C0" stroke="none" d="M 0 1.5 L 9.652482449926687 1.5 L 9.652482449926687 -1.5 L 0 -1.5 Z M 39.65541213742669 1.5 L 49.307894587353374 1.5 L 49.307894587353374 4.5 L 58.307894587353374 0 L 49.307894587353374 -4.5 L 49.307894587353374 -1.5 L 39.65541213742669 -1.5 Z" transform="translate(643.9625731289099 200.66978889660194) rotate(-144.6258991815252)"/><text text-anchor="middle" font-size="9px" fill="#000000" x="623.8600018290209" y="189.89730683172382" transform="rotate(35.3741008184748 623.8600018290209 186.39730683172382)">NEXT</text><rect class="overlay" fill="yellow" x="0" y="-10" height="20" opacity="0" width="58.307894587353374" transform="translate(643.9625731289099 200.66978889660194) rotate(-144.6258991815252)"/></g><g class="relationship"><path fill="#4356C0" stroke="none" d="M 0 1.5 L 15.11121963434497 1.5 L 15.11121963434497 -1.5 L 0 -1.5 Z M 45.11414932184497 1.5 L 60.22536895618994 1.5 L 60.22536895618994 4.5 L 69.22536895618994 0 L 60.22536895618994 -4.5 L 60.22536895618994 -1.5 L 45.11414932184497 -1.5 Z" transform="translate(560.6382770399993 159.89792248478153) rotate(166.81604426287282)"/><text text-anchor="middle" font-size="9px" fill="#000000" x="531.3192783471825" y="170.26597039724606" transform="rotate(346.8160442628728 531.3192783471825 166.76597039724606)">NEXT</text><rect class="overlay" fill="yellow" x="0" y="-10" height="20" opacity="0" width="69.22536895618994" transform="translate(560.6382770399993 159.89792248478153) rotate(166.81604426287282)"/></g><g class="relationship"><path fill="#4356C0" stroke="none" d="M 0 1.5 L 20.5263483235859 1.5 L 20.5263483235859 -1.5 L 0 -1.5 Z M 50.5292780110859 1.5 L 71.0556263346718 1.5 L 71.0556263346718 4.5 L 80.0556263346718 0 L 71.0556263346718 -4.5 L 71.0556263346718 -1.5 L 50.5292780110859 -1.5 Z" transform="translate(467.9928986440335 199.39736078229168) rotate(106.7733793498024)"/><text text-anchor="middle" font-size="9px" fill="#000000" x="457.7400344107346" y="236.91359636865053" transform="rotate(286.7733793498024 457.7400344107346 233.41359636865053)">NEXT</text><rect class="overlay" fill="yellow" x="0" y="-10" height="20" opacity="0" width="80.0556263346718" transform="translate(467.9928986440335 199.39736078229168) rotate(106.7733793498024)"/></g><g class="relationship"><path fill="#4356C0" stroke="none" d="M 0 1.5 L 20.751291514015378 1.5 L 20.751291514015378 -1.5 L 0 -1.5 Z M 50.75422120151538 1.5 L 71.50551271553076 1.5 L 71.50551271553076 4.5 L 80.50551271553076 0 L 71.50551271553076 -4.5 L 71.50551271553076 -1.5 L 50.75422120151538 -1.5 Z" transform="translate(437.5040602494652 315.1307504105059) rotate(94.62905456798634)"/><text text-anchor="middle" font-size="9px" fill="#000000" x="434.6186562698838" y="354.26688419424215" transform="rotate(274.6290545679864 434.6186562698838 350.76688419424215)">NEXT</text><rect class="overlay" fill="yellow" x="0" y="-10" height="20" opacity="0" width="80.50551271553076" transform="translate(437.5040602494652 315.1307504105059) rotate(94.62905456798634)"/></g></g><g class="layer nodes"><g class="node" transform="translate(564.5165180117699,56.266529181096864)"><circle class="outline" cx="0" cy="0" r="20" fill="#F25A29" stroke="#DC4717" stroke-width="2px"/><text text-anchor="middle" font-weight="bold" stroke="#F25A29" stroke-width="0" y="5" font-size="12px" fill="#FFFFFF">three</text></g><g class="node" transform="translate(451.5218249120407,89.15024112459531)"><circle class="outline" cx="0" cy="0" r="20" fill="#F25A29" stroke="#DC4717" stroke-width="2px"/><text text-anchor="middle" font-weight="bold" stroke="#F25A29" stroke-width="0" y="5" font-size="12px" fill="#FFFFFF">rings</text></g><g class="node" transform="translate(358.5785412612626,123.1779722167058)"><circle class="outline" cx="0" cy="0" r="20" fill="#F25A29" stroke="#DC4717" stroke-width="2px"/><text text-anchor="middle" font-weight="bold" stroke="#F25A29" stroke-width="0" y="5" font-size="12px" fill="#FFFFFF">for</text></g><g class="node" transform="translate(473.76463820200064,180.24828711083182)"><circle class="outline" cx="0" cy="0" r="20" fill="#F25A29" stroke="#DC4717" stroke-width="2px"/><text text-anchor="middle" font-weight="bold" stroke="#F25A29" stroke-width="0" y="5" font-size="12px" fill="#FFFFFF">the</text></g><g class="node" transform="translate(411.00862428770336,221.5813263464524)"><circle class="outline" cx="0" cy="0" r="20" fill="#F25A29" stroke="#DC4717" stroke-width="2px"/><text text-anchor="middle" font-weight="bold" stroke="#F25A29" stroke-width="0" y="5" font-size="12px" fill="#FFFFFF">elvenkings</text></g><g class="node" transform="translate(481.3312352378255,242.6344285467226)"><circle class="outline" cx="0" cy="0" r="20" fill="#F25A29" stroke="#DC4717" stroke-width="2px"/><text text-anchor="middle" font-weight="bold" stroke="#F25A29" stroke-width="0" y="5" font-size="12px" fill="#FFFFFF">under</text></g><g class="node" transform="translate(399.26584918973026,161.38530541535096)"><circle class="outline" cx="0" cy="0" r="20" fill="#F25A29" stroke="#DC4717" stroke-width="2px"/><text text-anchor="middle" font-weight="bold" stroke="#F25A29" stroke-width="0" y="5" font-size="12px" fill="#FFFFFF">sky</text></g><g class="node" transform="translate(366.544103830392,41.254812167428426)"><circle class="outline" cx="0" cy="0" r="20" fill="#F25A29" stroke="#DC4717" stroke-width="2px"/><text text-anchor="middle" font-weight="bold" stroke="#F25A29" stroke-width="0" y="5" font-size="12px" fill="#FFFFFF">seven</text></g><g class="node" transform="translate(529.9031799016783,260.013861856194)"><circle class="outline" cx="0" cy="0" r="20" fill="#F25A29" stroke="#DC4717" stroke-width="2px"/><text text-anchor="middle" font-weight="bold" stroke="#F25A29" stroke-width="0" y="5" font-size="12px" fill="#FFFFFF">dwarflords</text></g><g class="node" transform="translate(483.6339707470934,319.38211901123)"><circle class="outline" cx="0" cy="0" r="20" fill="#F25A29" stroke="#DC4717" stroke-width="2px"/><text text-anchor="middle" font-weight="bold" stroke="#F25A29" stroke-width="0" y="5" font-size="12px" fill="#FFFFFF">in</text></g><g class="node" transform="translate(525.0728369751548,412.8996609877425)"><circle class="outline" cx="0" cy="0" r="20" fill="#F25A29" stroke="#DC4717" stroke-width="2px"/><text text-anchor="middle" font-weight="bold" stroke="#F25A29" stroke-width="0" y="5" font-size="12px" fill="#FFFFFF">their</text></g><g class="node" transform="translate(604.9261173140025,393.49896117514004)"><circle class="outline" cx="0" cy="0" r="20" fill="#F25A29" stroke="#DC4717" stroke-width="2px"/><text text-anchor="middle" font-weight="bold" stroke="#F25A29" stroke-width="0" y="5" font-size="12px" fill="#FFFFFF">halls</text></g><g class="node" transform="translate(635.5830000201593,306.10065332629193)"><circle class="outline" cx="0" cy="0" r="20" fill="#F25A29" stroke="#DC4717" stroke-width="2px"/><text text-anchor="middle" font-weight="bold" stroke="#F25A29" stroke-width="0" y="5" font-size="12px" fill="#FFFFFF">of</text></g><g class="node" transform="translate(705.7843332297641,299.4695985558019)"><circle class="outline" cx="0" cy="0" r="20" fill="#F25A29" stroke="#DC4717" stroke-width="2px"/><text text-anchor="middle" font-weight="bold" stroke="#F25A29" stroke-width="0" y="5" font-size="12px" fill="#FFFFFF">stone</text></g><g class="node" transform="translate(313.1814894798662,35.16152959817864)"><circle class="outline" cx="0" cy="0" r="20" fill="#F25A29" stroke="#DC4717" stroke-width="2px"/><text text-anchor="middle" font-weight="bold" stroke="#F25A29" stroke-width="0" y="5" font-size="12px" fill="#FFFFFF">nine</text></g><g class="node" transform="translate(261.6716299955387,62.92703522997249)"><circle class="outline" cx="0" cy="0" r="20" fill="#F25A29" stroke="#DC4717" stroke-width="2px"/><text text-anchor="middle" font-weight="bold" stroke="#F25A29" stroke-width="0" y="5" font-size="12px" fill="#FFFFFF">mortal</text></g><g class="node" transform="translate(179.95355780071677,29.416447511755855)"><circle class="outline" cx="0" cy="0" r="20" fill="#F25A29" stroke="#DC4717" stroke-width="2px"/><text text-anchor="middle" font-weight="bold" stroke="#F25A29" stroke-width="0" y="5" font-size="12px" fill="#FFFFFF">men</text></g><g class="node" transform="translate(136.10939227651204,116.67635299862779)"><circle class="outline" cx="0" cy="0" r="20" fill="#F25A29" stroke="#DC4717" stroke-width="2px"/><text text-anchor="middle" font-weight="bold" stroke="#F25A29" stroke-width="0" y="5" font-size="12px" fill="#FFFFFF">doomed</text></g><g class="node" transform="translate(122.00698337427825,228.3118971061358)"><circle class="outline" cx="0" cy="0" r="20" fill="#F25A29" stroke="#DC4717" stroke-width="2px"/><text text-anchor="middle" font-weight="bold" stroke="#F25A29" stroke-width="0" y="5" font-size="12px" fill="#FFFFFF">to</text></g><g class="node" transform="translate(73.5084493953211,166.10052077264282)"><circle class="outline" cx="0" cy="0" r="20" fill="#F25A29" stroke="#DC4717" stroke-width="2px"/><text text-anchor="middle" font-weight="bold" stroke="#F25A29" stroke-width="0" y="5" font-size="12px" fill="#FFFFFF">die</text></g><g class="node" transform="translate(280.1652680278122,201.88634982235868)"><circle class="outline" cx="0" cy="0" r="20" fill="#F25A29" stroke="#DC4717" stroke-width="2px"/><text text-anchor="middle" font-weight="bold" stroke="#F25A29" stroke-width="0" y="5" font-size="12px" fill="#FFFFFF">one</text></g><g class="node" transform="translate(496.1191053673048,52.49797423418691)"><circle class="outline" cx="0" cy="0" r="20" fill="#F25A29" stroke="#DC4717" stroke-width="2px"/><text text-anchor="middle" font-weight="bold" stroke="#F25A29" stroke-width="0" y="5" font-size="12px" fill="#FFFFFF">dark</text></g><g class="node" transform="translate(538.276790320966,-36.468517196311694)"><circle class="outline" cx="0" cy="0" r="20" fill="#F25A29" stroke="#DC4717" stroke-width="2px"/><text text-anchor="middle" font-weight="bold" stroke="#F25A29" stroke-width="0" y="5" font-size="12px" fill="#FFFFFF">lord</text></g><g class="node" transform="translate(490.50885430567564,-109.83577347243937)"><circle class="outline" cx="0" cy="0" r="20" fill="#F25A29" stroke="#DC4717" stroke-width="2px"/><text text-anchor="middle" font-weight="bold" stroke="#F25A29" stroke-width="0" y="5" font-size="12px" fill="#FFFFFF">on</text></g><g class="node" transform="translate(469.0972383683877,-43.191479616336885)"><circle class="outline" cx="0" cy="0" r="20" fill="#F25A29" stroke="#DC4717" stroke-width="2px"/><text text-anchor="middle" font-weight="bold" stroke="#F25A29" stroke-width="0" y="5" font-size="12px" fill="#FFFFFF">his</text></g><g class="node" transform="translate(416.75574283706936,-19.96348928608529)"><circle class="outline" cx="0" cy="0" r="20" fill="#F25A29" stroke="#DC4717" stroke-width="2px"/><text text-anchor="middle" font-weight="bold" stroke="#F25A29" stroke-width="0" y="5" font-size="12px" fill="#FFFFFF">throne</text></g><g class="node" transform="translate(193.17204978454203,183.34927554328462)"><circle class="outline" cx="0" cy="0" r="20" fill="#F25A29" stroke="#DC4717" stroke-width="2px"/><text text-anchor="middle" font-weight="bold" stroke="#F25A29" stroke-width="0" y="5" font-size="12px" fill="#FFFFFF">ring</text></g><g class="node" transform="translate(150.44556004674195,317.1434229086881)"><circle class="outline" cx="0" cy="0" r="20" fill="#F25A29" stroke="#DC4717" stroke-width="2px"/><text text-anchor="middle" font-weight="bold" stroke="#F25A29" stroke-width="0" y="5" font-size="12px" fill="#FFFFFF">rule</text></g><g class="node" transform="translate(202.18318867438103,383.55737666834125)"><circle class="outline" cx="0" cy="0" r="20" fill="#F25A29" stroke="#DC4717" stroke-width="2px"/><text text-anchor="middle" font-weight="bold" stroke="#F25A29" stroke-width="0" y="5" font-size="12px" fill="#FFFFFF">them</text></g><g class="node" transform="translate(273.4560029963812,321.84526198120034)"><circle class="outline" cx="0" cy="0" r="20" fill="#F25A29" stroke="#DC4717" stroke-width="2px"/><text text-anchor="middle" font-weight="bold" stroke="#F25A29" stroke-width="0" y="5" font-size="12px" fill="#FFFFFF">all</text></g><g class="node" transform="translate(186.44300303680168,290.95521619071553)"><circle class="outline" cx="0" cy="0" r="20" fill="#F25A29" stroke="#DC4717" stroke-width="2px"/><text text-anchor="middle" font-weight="bold" stroke="#F25A29" stroke-width="0" y="5" font-size="12px" fill="#FFFFFF">find</text></g><g class="node" transform="translate(113.68981486428862,330.45085262649957)"><circle class="outline" cx="0" cy="0" r="20" fill="#F25A29" stroke="#DC4717" stroke-width="2px"/><text text-anchor="middle" font-weight="bold" stroke="#F25A29" stroke-width="0" y="5" font-size="12px" fill="#FFFFFF">bring</text></g><g class="node" transform="translate(372.7111370077912,371.2808809107362)"><circle class="outline" cx="0" cy="0" r="20" fill="#F25A29" stroke="#DC4717" stroke-width="2px"/><text text-anchor="middle" font-weight="bold" stroke="#F25A29" stroke-width="0" y="5" font-size="12px" fill="#FFFFFF">and</text></g><g class="node" transform="translate(371.63817411910736,278.53758529573224)"><circle class="outline" cx="0" cy="0" r="20" fill="#F25A29" stroke="#DC4717" stroke-width="2px"/><text text-anchor="middle" font-weight="bold" stroke="#F25A29" stroke-width="0" y="5" font-size="12px" fill="#FFFFFF">darkness</text></g><g class="node" transform="translate(290.21522332177466,391.5674384984052)"><circle class="outline" cx="0" cy="0" r="20" fill="#F25A29" stroke="#DC4717" stroke-width="2px"/><text text-anchor="middle" font-weight="bold" stroke="#F25A29" stroke-width="0" y="5" font-size="12px" fill="#FFFFFF">bind</text></g><g class="node" transform="translate(577.4214592663175,227.28539328420115)"><circle class="outline" cx="0" cy="0" r="20" fill="#F25A29" stroke="#DC4717" stroke-width="2px"/><text text-anchor="middle" font-weight="bold" stroke="#F25A29" stroke-width="0" y="5" font-size="12px" fill="#FFFFFF">land</text></g><g class="node" transform="translate(660.2703643806944,212.2480419810796)"><circle class="outline" cx="0" cy="0" r="20" fill="#F25A29" stroke="#DC4717" stroke-width="2px"/><text text-anchor="middle" font-weight="bold" stroke="#F25A29" stroke-width="0" y="5" font-size="12px" fill="#FFFFFF">mordor</text></g><g class="node" transform="translate(580.1111332140441,155.3363577943531)"><circle class="outline" cx="0" cy="0" r="20" fill="#F25A29" stroke="#DC4717" stroke-width="2px"/><text text-anchor="middle" font-weight="bold" stroke="#F25A29" stroke-width="0" y="5" font-size="12px" fill="#FFFFFF">where</text></g><g class="node" transform="translate(439.1181478183834,295.1959887786262)"><circle class="outline" cx="0" cy="0" r="20" fill="#F25A29" stroke="#DC4717" stroke-width="2px"/><text text-anchor="middle" font-weight="bold" stroke="#F25A29" stroke-width="0" y="5" font-size="12px" fill="#FFFFFF">shadows</text></g><g class="node" transform="translate(429.392825315371,415.308422344204)"><circle class="outline" cx="0" cy="0" r="20" fill="#F25A29" stroke="#DC4717" stroke-width="2px"/><text text-anchor="middle" font-weight="bold" stroke="#F25A29" stroke-width="0" y="5" font-size="12px" fill="#FFFFFF">lie</text></g></g></svg>