<svg height="399.66666662693024" width="778.6666666269302" xmlns="http://www.w3.org/2000/svg">
<style>
path.link{fill:none;stroke:#7f8c8d;stroke-width:2px}
text{font-family:sans-serif;pointer-events:none}
marker{fill:#d8dadc}
text .faded{fill:#333}
.node .outline{-webkit-transform:scale(1);-moz-transform:scale(1);-o-transform:scale(1);-ms-transform:scale(1);transform:scale(1);-webkit-transition:all .15s;-moz-transition:all .15s;-o-transition:all .15s;-ms-transition:all .15s;transition:all .15s;-webkit-transition-timing-function:cubic-bezier(.694,.0482,.335,1);-moz-transition-timing-function:cubic-bezier(.694,.0482,.335,1);-o-transition-timing-function:cubic-bezier(.694,.0482,.335,1);-ms-transition-timing-function:cubic-bezier(.694,.0482,.335,1);transition-timing-function:cubic-bezier(.694,.0482,.335,1)}
.node:hover .outline{-webkit-transform:scale(1.4);-moz-transform:scale(1.4);-o-transform:scale(1.4);-ms-transform:scale(1.4);transform:scale(1.4)}
.relationship:hover{stroke:#3498db}
.outline,.overlay{cursor:pointer}
g.node text[stroke="#DFE1E3"] {text-shadow: -1px -1px 2px #DFE1E3, -1px 1px 2px #DFE1E3, -1px 0 2px #DFE1E3, 1px -1px 2px #DFE1E3, 1px 1px 2px #DFE1E3, 1px 0 2px #DFE1E3, 0 -1px 2px #DFE1E3, 0 1px 2px #DFE1E3}
g.node text[stroke="#F25A29"] {text-shadow: -1px -1px 2px #F25A29, -1px 1px 2px #F25A29, -1px 0 2px #F25A29, 1px -1px 2px #F25A29, 1px 1px 2px #F25A29, 1px 0 2px #F25A29, 0 -1px 2px #F25A29, 0 1px 2px #F25A29}
g.node text[stroke="#AD62CE"] {text-shadow: -1px -1px 2px #AD62CE, -1px 1px 2px #AD62CE, -1px 0 2px #AD62CE, 1px -1px 2px #AD62CE, 1px 1px 2px #AD62CE, 1px 0 2px #AD62CE, 0 -1px 2px #AD62CE, 0 1px 2px #AD62CE}
g.node text[stroke="#30B6AF"] {text-shadow: -1px -1px 2px #30B6AF, -1px 1px 2px #30B6AF, -1px 0 2px #30B6AF, 1px -1px 2px #30B6AF, 1px 1px 2px #30B6AF, 1px 0 2px #30B6AF, 0 -1px 2px #30B6AF, 0 1px 2px #30B6AF}
g.node text[stroke="#FCC940"] {text-shadow: -1px -1px 2px #FCC940, -1px 1px 2px #FCC940, -1px 0 2px #FCC940, 1px -1px 2px #FCC940, 1px 1px 2px #FCC940, 1px 0 2px #FCC940, 0 -1px 2px #FCC940, 0 1px 2px #FCC940}
g.node text[stroke="#4356C0"] {text-shadow: -1px -1px 2px #4356C0, -1px 1px 2px #4356C0, -1px 0 2px #4356C0, 1px -1px 2px #4356C0, 1px 1px 2px #4356C0, 1px 0 2px #4356C0, 0 -1px 2px #4356C0, 0 1px 2px #4356C0}
g.node text[stroke="#FF6C7C"] {text-shadow: -1px -1px 2px #FF6C7C, -1px 1px 2px #FF6C7C, -1px 0 2px #FF6C7C, 1px -1px 2px #FF6C7C, 1px 1px 2px #FF6C7C, 1px 0 2px #FF6C7C, 0 -1px 2px #FF6C7C, 0 1px 2px #FF6C7C}
g.node text[stroke="#a2cf81"] {text-shadow: -1px -1px 2px #a2cf81, -1px 1px 2px #a2cf81, -1px 0 2px #a2cf81, 1px -1px 2px #a2cf81, 1px 1px 2px #a2cf81, 1px 0 2px #a2cf81, 0 -1px 2px #a2cf81, 0 1px 2px #a2cf81}
g.node text[stroke="#f79235"] {text-shadow: -1px -1px 2px #f79235, -1px 1px 2px #f79235, -1px 0 2px #f79235, 1px -1px 2px #f79235, 1px 1px 2px #f79235, 1px 0 2px #f79235, 0 -1px 2px #f79235, 0 1px 2px #f79235}
g.node text[stroke="#785cc7"] {text-shadow: -1px -1px 2px #785cc7, -1px 1px 2px #785cc7, -1px 0 2px #785cc7, 1px -1px 2px #785cc7, 1px 1px 2px #785cc7, 1px 0 2px #785cc7, 0 -1px 2px #785cc7, 0 1px 2px #785cc7}
g.node text[stroke="#d05e7c"] {text-shadow: -1px -1px 2px #d05e7c, -1px 1px 2px #d05e7c, -1px 0 2px #d05e7c, 1px -1px 2px #d05e7c, 1px 1px 2px #d05e7c, 1px 0 2px #d05e7c, 0 -1px 2px #d05e7c, 0 1px 2px #d05e7c}
g.node text[stroke="#3986b7"] {text-shadow: -1px -1px 2px #3986b7, -1px 1px 2px #3986b7, -1px 0 2px #3986b7, 1px -1px 2px #3986b7, 1px 1px 2px #3986b7, 1px 0 2px #3986b7, 0 -1px 2px #3986b7, 0 1px 2px #3986b7}

</style>
<g class="layer relationships"><g class="relationship"><path fill="#4356C0" stroke="none" d="M 0 1.5 L 1.1316788853638258 1.5 L 1.1316788853638258 -1.5 L 0 -1.5 Z M 22.631190604113826 1.5 L 23.76286948947765 1.5 L 23.76286948947765 4.5 L 32.76286948947765 0 L 23.76286948947765 -4.5 L 23.76286948947765 -1.5 L 22.631190604113826 -1.5 Z" transform="translate(427.6594253464648 328.51699082346545) rotate(-41.76853844387084)"/><text text-anchor="middle" font-size="9px" fill="#000000" x="436.52109703793565" y="324.10249359205073" transform="rotate(-41.76853844387084 436.52109703793565 320.60249359205073)">N…</text><rect class="overlay" fill="yellow" x="0" y="-10" height="20" opacity="0" width="32.76286948947765" transform="translate(427.6594253464648 328.51699082346545) rotate(-41.76853844387084)"/></g><g class="relationship"><path fill="#4356C0" stroke="none" d="M 0 1.5 L 0.846995166897905 1.5 L 0.846995166897905 -1.5 L 0 -1.5 Z M 28.349436573147905 1.5 L 29.19643174004581 1.5 L 29.19643174004581 4.5 L 38.19643174004581 0 L 29.19643174004581 -4.5 L 29.19643174004581 -1.5 L 28.349436573147905 -1.5 Z" transform="translate(460.1019719730833 274.60213153862435) rotate(-110.21296606812884)"/><text text-anchor="middle" font-size="9px" fill="#000000" x="455.05813406246534" y="264.4029488725234" transform="rotate(69.78703393187116 455.05813406246534 260.9029488725234)">NE…</text><rect class="overlay" fill="yellow" x="0" y="-10" height="20" opacity="0" width="38.19643174004581" transform="translate(460.1019719730833 274.60213153862435) rotate(-110.21296606812884)"/></g><g class="relationship"><path fill="#4356C0" stroke="none" d="M 0 1.5 L 3.181506966588664 1.5 L 3.181506966588664 -1.5 L 0 -1.5 Z M 33.184436654088664 1.5 L 36.36594362067733 1.5 L 36.36594362067733 4.5 L 45.36594362067733 0 L 36.36594362067733 -4.5 L 36.36594362067733 -1.5 L 33.184436654088664 -1.5 Z" transform="translate(458.12484343084736 211.54637883650886) rotate(-24.971527186830016)"/><text text-anchor="middle" font-size="9px" fill="#000000" x="474.6080290859108" y="207.37011317433428" transform="rotate(-24.971527186830016 474.6080290859108 203.87011317433428)">NEXT</text><rect class="overlay" fill="yellow" x="0" y="-10" height="20" opacity="0" width="45.36594362067733" transform="translate(458.12484343084736 211.54637883650886) rotate(-24.971527186830016)"/></g><g class="relationship"><path fill="#4356C0" stroke="none" d="M 0 1.5 L 5.305256634647279 1.5 L 5.305256634647279 -1.5 L 0 -1.5 Z M 35.30818632214728 1.5 L 40.61344295679456 1.5 L 40.61344295679456 4.5 L 49.61344295679456 0 L 40.61344295679456 -4.5 L 40.61344295679456 -1.5 L 35.30818632214728 -1.5 Z" transform="translate(512.693339884332 164.50790774861824) rotate(-103.55298041183032)"/><text text-anchor="middle" font-size="9px" fill="#000000" x="507.9345734743496" y="148.26665450936252" transform="rotate(76.44701958816968 507.9345734743496 144.76665450936252)">NEXT</text><rect class="overlay" fill="yellow" x="0" y="-10" height="20" opacity="0" width="49.61344295679456" transform="translate(512.693339884332 164.50790774861824) rotate(-103.55298041183032)"/></g><g class="relationship"><path fill="#4356C0" stroke="none" d="M 0 1.5 L 4.713554643416707 1.5 L 4.713554643416707 -1.5 L 0 -1.5 Z M 34.71648433091671 1.5 L 39.430038974333414 1.5 L 39.430038974333414 4.5 L 48.430038974333414 0 L 39.430038974333414 -4.5 L 39.430038974333414 -1.5 L 34.71648433091671 -1.5 Z" transform="translate(476.44740873889185 95.19008237042372) rotate(-175.28823443163498)"/><text text-anchor="middle" font-size="9px" fill="#000000" x="456.7990153733744" y="97.07062828547654" transform="rotate(4.711765568365024 456.7990153733744 93.57062828547654)">NEXT</text><rect class="overlay" fill="yellow" x="0" y="-10" height="20" opacity="0" width="48.430038974333414" transform="translate(476.44740873889185 95.19008237042372) rotate(-175.28823443163498)"/></g><g class="relationship"><path fill="#4356C0" stroke="none" d="M 0 1.5 L 2.698060939697399 1.5 L 2.698060939697399 -1.5 L 0 -1.5 Z M 32.7009906271974 1.5 L 35.3990515668948 1.5 L 35.3990515668948 4.5 L 44.3990515668948 0 L 35.3990515668948 -4.5 L 35.3990515668948 -1.5 L 32.7009906271974 -1.5 Z" transform="translate(399.2601206227933 107.43538090023362) rotate(116.70681689979553)"/><text text-anchor="middle" font-size="9px" fill="#000000" x="391.3055061785575" y="126.74668451513122" transform="rotate(296.7068168997955 391.3055061785575 123.24668451513122)">NEXT</text><rect class="overlay" fill="yellow" x="0" y="-10" height="20" opacity="0" width="44.3990515668948" transform="translate(399.2601206227933 107.43538090023362) rotate(116.70681689979553)"/></g><g class="relationship"><path fill="#4356C0" stroke="none" d="M 0 1.5 L 1.2371736862225973 1.5 L 1.2371736862225973 -1.5 L 0 -1.5 Z M 31.240103373722597 1.5 L 32.477277059945195 1.5 L 32.477277059945195 4.5 L 41.477277059945195 0 L 32.477277059945195 -4.5 L 32.477277059945195 -1.5 L 31.240103373722597 -1.5 Z" transform="translate(354.6635463106544 152.5162400130864) rotate(-141.50850973670777)"/><text text-anchor="middle" font-size="9px" fill="#000000" x="341.9535540940206" y="145.90933746283793" transform="rotate(38.491490263292235 341.9535540940206 142.40933746283793)">NEXT</text><rect class="overlay" fill="yellow" x="0" y="-10" height="20" opacity="0" width="41.477277059945195" transform="translate(354.6635463106544 152.5162400130864) rotate(-141.50850973670777)"/></g><g class="relationship"><path fill="#4356C0" stroke="none" d="M 0 1.5 L 0.9669289811145276 1.5 L 0.9669289811145276 -1.5 L 0 -1.5 Z M 22.466440699864528 1.5 L 23.433369680979055 1.5 L 23.433369680979055 4.5 L 32.433369680979055 0 L 23.433369680979055 -4.5 L 23.433369680979055 -1.5 L 22.466440699864528 -1.5 Z" transform="translate(257.8934557897799 263.4811961792456) rotate(32.67407487113001)"/><text text-anchor="middle" font-size="9px" fill="#000000" x="267.75603551452963" y="273.3065597912693" transform="rotate(32.67407487113001 267.75603551452963 269.8065597912693)">N…</text><rect class="overlay" fill="yellow" x="0" y="-10" height="20" opacity="0" width="32.433369680979055" transform="translate(257.8934557897799 263.4811961792456) rotate(32.67407487113001)"/></g><g class="relationship"><path fill="#4356C0" stroke="none" d="M 0 1.5 L 0.16572555918310883 1.5 L 0.16572555918310883 -1.5 L 0 -1.5 Z M 27.66816696543311 1.5 L 27.833892524616218 1.5 L 27.833892524616218 4.5 L 36.83389252461622 0 L 27.833892524616218 -4.5 L 27.833892524616218 -1.5 L 27.66816696543311 -1.5 Z" transform="translate(305.506468809781 272.09239793858455) rotate(-79.98839042898635)"/><text text-anchor="middle" font-size="9px" fill="#000000" x="307.92589820086135" y="261.8873713173208" transform="rotate(-79.98839042898635 307.92589820086135 258.3873713173208)">NE…</text><rect class="overlay" fill="yellow" x="0" y="-10" height="20" opacity="0" width="36.83389252461622" transform="translate(305.506468809781 272.09239793858455) rotate(-79.98839042898635)"/></g><g class="relationship"><path fill="#4356C0" stroke="none" d="M 0 1.5 L 2.2825443780977537 1.5 L 2.2825443780977537 -1.5 L 0 -1.5 Z M 23.782056096847754 1.5 L 26.064600474945507 1.5 L 26.064600474945507 4.5 L 35.06460047494551 0 L 26.064600474945507 -4.5 L 26.064600474945507 -1.5 L 23.782056096847754 -1.5 Z" transform="translate(330.0224778214205 202.493086174746) rotate(-42.964315542712086)"/><text text-anchor="middle" font-size="9px" fill="#000000" x="339.55923254298284" y="197.1110166602471" transform="rotate(-42.964315542712086 339.55923254298284 193.6110166602471)">N…</text><rect class="overlay" fill="yellow" x="0" y="-10" height="20" opacity="0" width="35.06460047494551" transform="translate(330.0224778214205 202.493086174746) rotate(-42.964315542712086)"/></g><g class="relationship"><path fill="#4356C0" stroke="none" d="M 0 1.5 L 4.890773788441905 1.5 L 4.890773788441905 -1.5 L 0 -1.5 Z M 34.893703475941905 1.5 L 39.78447726438381 1.5 L 39.78447726438381 4.5 L 48.78447726438381 0 L 39.78447726438381 -4.5 L 39.78447726438381 -1.5 L 34.893703475941905 -1.5 Z" transform="translate(386.013304642997 177.359511481215) rotate(38.298988619292416)"/><text text-anchor="middle" font-size="9px" fill="#000000" x="401.6244811030127" y="193.18802831554342" transform="rotate(38.298988619292416 401.6244811030127 189.68802831554342)">NEXT</text><rect class="overlay" fill="yellow" x="0" y="-10" height="20" opacity="0" width="48.78447726438381" transform="translate(386.013304642997 177.359511481215) rotate(38.298988619292416)"/></g><g class="relationship"><path fill="#4356C0" stroke="none" d="M 0 1.5 L 8.616667147448261 1.5 L 8.616667147448261 -1.5 L 0 -1.5 Z M 8.616667147448261 1.5 L 17.233334294896522 1.5 L 17.233334294896522 4.5 L 26.233334294896522 0 L 17.233334294896522 -4.5 L 17.233334294896522 -1.5 L 8.616667147448261 -1.5 Z" transform="translate(500.6157753379755 173.04441685088244) rotate(-146.95290638301407)"/><text text-anchor="middle" font-size="9px" fill="#000000" x="493.39308998449087" y="171.84550537965077" transform="rotate(33.04709361698593 493.39308998449087 168.34550537965077)"/><rect class="overlay" fill="yellow" x="0" y="-10" height="20" opacity="0" width="26.233334294896522" transform="translate(500.6157753379755 173.04441685088244) rotate(-146.95290638301407)"/></g><g class="relationship"><path fill="#4356C0" stroke="none" d="M 0 1.5 L 6.2912112713458015 1.5 L 6.2912112713458015 -1.5 L 0 -1.5 Z M 6.2912112713458015 1.5 L 12.582422542691603 1.5 L 12.582422542691603 4.5 L 21.582422542691603 0 L 12.582422542691603 -4.5 L 12.582422542691603 -1.5 L 6.2912112713458015 -1.5 Z" transform="translate(473.07224833409 131.2691909387424) rotate(-55.908579704496844)"/><text text-anchor="middle" font-size="9px" fill="#000000" x="476.59856656407567" y="129.55916032447738" transform="rotate(-55.908579704496844 476.59856656407567 126.05916032447738)"/><rect class="overlay" fill="yellow" x="0" y="-10" height="20" opacity="0" width="21.582422542691603" transform="translate(473.07224833409 131.2691909387424) rotate(-55.908579704496844)"/></g></g><g class="layer nodes"><g class="node" transform="translate(412.7425876381319,341.83945128628005)"><circle class="outline" cx="0" cy="0" r="20" fill="#F25A29" stroke="#DC4717" stroke-width="2px"/><text text-anchor="middle" font-weight="bold" stroke="#F25A29" stroke-width="0" y="5" font-size="12px" fill="#FFFFFF">My</text></g><g class="node" transform="translate(467.0121834064892,293.3704286895549)"><circle class="outline" cx="0" cy="0" r="20" fill="#F25A29" stroke="#DC4717" stroke-width="2px"/><text text-anchor="middle" font-weight="bold" stroke="#F25A29" stroke-width="0" y="5" font-size="12px" fill="#FFFFFF">phone</text></g><g class="node" transform="translate(439.9944895734089,219.98973533757317)"><circle class="outline" cx="0" cy="0" r="20" fill="#F25A29" stroke="#DC4717" stroke-width="2px"/><text text-anchor="middle" font-weight="bold" stroke="#F25A29" stroke-width="0" y="5" font-size="12px" fill="#FFFFFF">calls</text></g><g class="node" transform="translate(517.3802278342602,183.95098058561646)"><circle class="outline" cx="0" cy="0" r="20" fill="#F25A29" stroke="#DC4717" stroke-width="2px"/><text text-anchor="middle" font-weight="bold" stroke="#F25A29" stroke-width="0" y="5" font-size="12px" fill="#FFFFFF">drop</text></g><g class="node" transform="translate(496.37981953697135,96.83294565645937)"><circle class="outline" cx="0" cy="0" r="20" fill="#F25A29" stroke="#DC4717" stroke-width="2px"/><text text-anchor="middle" font-weight="bold" stroke="#F25A29" stroke-width="0" y="5" font-size="12px" fill="#FFFFFF">frequently</text></g><g class="node" transform="translate(408.24862635064164,89.56902243577765)"><circle class="outline" cx="0" cy="0" r="20" fill="#F25A29" stroke="#DC4717" stroke-width="2px"/><text text-anchor="middle" font-weight="bold" stroke="#F25A29" stroke-width="0" y="5" font-size="12px" fill="#FFFFFF">with</text></g><g class="node" transform="translate(370.31755842894154,164.96420790348998)"><circle class="outline" cx="0" cy="0" r="20" fill="#F25A29" stroke="#DC4717" stroke-width="2px"/><text text-anchor="middle" font-weight="bold" stroke="#F25A29" stroke-width="0" y="5" font-size="12px" fill="#FFFFFF">the</text></g><g class="node" transform="translate(306.5452443058704,114.25288147150424)"><circle class="outline" cx="0" cy="0" r="20" fill="#F25A29" stroke="#DC4717" stroke-width="2px"/><text text-anchor="middle" font-weight="bold" stroke="#F25A29" stroke-width="0" y="5" font-size="12px" fill="#FFFFFF">iPhone</text></g><g class="node" transform="translate(241.05835292746272,252.6840061922537)"><circle class="outline" cx="0" cy="0" r="20" fill="#F25A29" stroke="#DC4717" stroke-width="2px"/><text text-anchor="middle" font-weight="bold" stroke="#F25A29" stroke-width="0" y="5" font-size="12px" fill="#FFFFFF">Great</text></g><g class="node" transform="translate(302.02951438963925,291.78784888443136)"><circle class="outline" cx="0" cy="0" r="20" fill="#F25A29" stroke="#DC4717" stroke-width="2px"/><text text-anchor="middle" font-weight="bold" stroke="#F25A29" stroke-width="0" y="5" font-size="12px" fill="#FFFFFF">device</text></g><g class="node" transform="translate(315.38691150114715,216.12394082457922)"><circle class="outline" cx="0" cy="0" r="20" fill="#F25A29" stroke="#DC4717" stroke-width="2px"/><text text-anchor="middle" font-weight="bold" stroke="#F25A29" stroke-width="0" y="5" font-size="12px" fill="#FFFFFF">but</text></g><g class="node" transform="translate(461.86194851139345,147.8320764930548)"><circle class="outline" cx="0" cy="0" r="20" fill="#F25A29" stroke="#DC4717" stroke-width="2px"/><text text-anchor="middle" font-weight="bold" stroke="#F25A29" stroke-width="0" y="5" font-size="12px" fill="#FFFFFF">too</text></g></g></svg>