<svg xmlns="http://www.w3.org/2000/svg" class="graphdiagram" viewBox="-1663.1328167133659 -1028.6432518735924 2477.947318642366 1306.2047881215572"><g class="layer relationships"><g class="related-pair"><g class="relationship" transform="translate(-991.2633144235513,-383.3347840801992) rotate(15.654157492871073)"><path class="relationship" d="M 87.25416552703285,-18.87293041164747 L 88.59338925735562,-10.985821955429794 A 1635.4966647646793 1635.4966647646793 0 0 1 587.0119770781865,-18.56528469815753 L 585.3638054888162,-6.6790098228236925 L 619.2581006088669,-18.132252084947908 L 589.7589297271371,-38.37574282371393 L 588.1107581377668,-26.489467948380092 A 1643.4966647646793 1643.4966647646793 0 0 0 87.25416552703285,-18.87293041164747" fill="rgb(0, 0, 0)" stroke="rgb(51, 51, 51)" stroke-width="0px"/><text class="type" text-anchor="middle" baseline-shift="30%" alignment-baseline="alphabetic" x="362.38038229692893" y="-38.06503987244537" font-size="50px" font-family="'Gill Sans', 'Gill Sans MT', Calibri, sans-serif">EDITED</text></g><g class="relationship" transform="translate(-991.2633144235513,-383.3347840801992) rotate(15.654157492871073)"><path class="relationship" d="M 87.25416552703285,18.87293041164747 L 88.59338925735562,10.985821955429794 A 1635.4966647646793 1635.4966647646793 0 0 0 587.0119770781865,18.56528469815753 L 585.3638054888162,6.6790098228236925 L 619.2581006088669,18.132252084947908 L 589.7589297271371,38.37574282371393 L 588.1107581377668,26.489467948380092 A 1643.4966647646793 1643.4966647646793 0 0 1 87.25416552703285,18.87293041164747" fill="rgb(0, 0, 0)" stroke="rgb(51, 51, 51)" stroke-width="0px"/><text class="type" text-anchor="middle" baseline-shift="30%" alignment-baseline="alphabetic" x="362.38038229692893" y="38.06503987244537" font-size="50px" font-family="'Gill Sans', 'Gill Sans MT', Calibri, sans-serif">ASKED</text></g></g><g class="related-pair"><g class="relationship" transform="translate(-392.68027734561844,-765.3523872531183) rotate(78.05593328304464)"><path class="relationship" d="M 116.52761440076534 4 L 433.31159896607505 4 L 433.31159896607505 16 L 465.31159896607505 0 L 433.31159896607505 -16 L 433.31159896607505 -4 L 116.52761440076534 -4 Z" fill="rgb(0, 0, 0)" stroke="rgb(51, 51, 51)" stroke-width="0px"/><text class="type" text-anchor="middle" baseline-shift="30%" alignment-baseline="alphabetic" x="274.91960668342017" y="0" font-size="50px" font-family="'Gill Sans', 'Gill Sans MT', Calibri, sans-serif">ANSWERS</text></g></g><g class="related-pair"><g class="relationship" transform="translate(-991.2633144235513,-383.3347840801992) rotate(-32.546148800675276)"><path class="relationship" d="M 87.25416552703285,-18.87293041164747 L 88.59338925735562,-10.985821955429794 A 1532.365125449644 1532.365125449644 0 0 1 562.5050865510945,-17.111350413677126 L 560.8027045829082,-5.232718521308632 L 594.7488989201393,-16.531209129303 L 565.3423898314051,-36.909070234291285 L 563.6400078632188,-25.030438341922792 A 1540.365125449644 1540.365125449644 0 0 0 87.25416552703285,-18.87293041164747" fill="rgb(0, 0, 0)" stroke="rgb(51, 51, 51)" stroke-width="0px"/><text class="type" text-anchor="middle" baseline-shift="30%" alignment-baseline="alphabetic" x="345.11585669750275" y="-36.60970503670501" font-size="50px" font-family="'Gill Sans', 'Gill Sans MT', Calibri, sans-serif">PROVIDED</text></g><g class="relationship" transform="translate(-991.2633144235513,-383.3347840801992) rotate(-32.546148800675276)"><path class="relationship" d="M 87.25416552703285,18.87293041164747 L 88.59338925735562,10.985821955429794 A 1532.365125449644 1532.365125449644 0 0 0 562.5050865510945,17.111350413677126 L 560.8027045829082,5.232718521308632 L 594.7488989201393,16.531209129303 L 565.3423898314051,36.909070234291285 L 563.6400078632188,25.030438341922792 A 1540.365125449644 1540.365125449644 0 0 1 87.25416552703285,18.87293041164747" fill="rgb(0, 0, 0)" stroke="rgb(51, 51, 51)" stroke-width="0px"/><text class="type" text-anchor="middle" baseline-shift="30%" alignment-baseline="alphabetic" x="345.11585669750275" y="36.60970503670501" font-size="50px" font-family="'Gill Sans', 'Gill Sans MT', Calibri, sans-serif">EDITED</text></g></g><g class="related-pair"><g class="relationship" transform="translate(-269.05907414224805,-180.9556799343025) rotate(-41.381398393176106)"><path class="relationship" d="M 132.01721618226736 4 L 416.5554891491361 4 L 416.5554891491361 16 L 448.5554891491361 0 L 416.5554891491361 -16 L 416.5554891491361 -4 L 132.01721618226736 -4 Z" fill="rgb(0, 0, 0)" stroke="rgb(51, 51, 51)" stroke-width="0px"/><text class="type" text-anchor="middle" baseline-shift="30%" alignment-baseline="alphabetic" x="274.28635266570177" y="0" font-size="50px" font-family="'Gill Sans', 'Gill Sans MT', Calibri, sans-serif">TAGGED</text></g></g><g class="related-pair"><g class="relationship" transform="translate(126.17137298583984,-529.1702072143561) rotate(44.430410206775726)"><path class="relationship" d="M 78.1896706254359 4 L 387.2294861537916 4 L 387.2294861537916 16 L 419.2294861537916 0 L 387.2294861537916 -16 L 387.2294861537916 -4 L 78.1896706254359 -4 Z" fill="rgb(0, 0, 0)" stroke="rgb(51, 51, 51)" stroke-width="0px"/><text class="type" text-anchor="middle" baseline-shift="30%" alignment-baseline="alphabetic" x="232.70957838961374" y="0" font-size="50px" font-family="'Gill Sans', 'Gill Sans MT', Calibri, sans-serif">SYNONYM</text></g></g></g><g class="layer nodes"><circle class="node node-id-0" r="117.01721618226738" fill="rgb(255, 255, 255)" stroke="rgb(0, 0, 0)" stroke-width="8px" cx="-269.05907414224805" cy="-180.9556799343025"/><circle class="node node-id-1" r="74.18226787956077" fill="rgb(255, 255, 255)" stroke="rgb(0, 0, 0)" stroke-width="8px" cx="-991.2633144235513" cy="-383.3347840801992"/><circle class="node node-id-2" r="101.52761440076534" fill="rgb(255, 255, 255)" stroke="rgb(0, 0, 0)" stroke-width="8px" cx="-392.68027734561844" cy="-765.3523872531183"/><circle class="node node-id-3" r="63.1896706254359" fill="rgb(255, 255, 255)" stroke="rgb(0, 0, 0)" stroke-width="8px" cx="126.17137298583984" cy="-529.1702072143561"/><circle class="node node-id-4" r="63.1896706254359" fill="rgb(255, 255, 255)" stroke="rgb(0, 0, 0)" stroke-width="8px" cx="481.3790031433107" cy="-180.9556799343025"/><g class="caption"><text class="caption node" text-anchor="middle" alignment-baseline="central" x="-269.05907414224805" y="-180.9556799343025" font-size="50px" font-family="'Gill Sans', 'Gill Sans MT', Calibri, sans-serif">Question</text></g><g class="caption"><text class="caption node" text-anchor="middle" alignment-baseline="central" x="-991.2633144235513" y="-383.3347840801992" font-size="50px" font-family="'Gill Sans', 'Gill Sans MT', Calibri, sans-serif">User</text></g><g class="caption"><text class="caption node" text-anchor="middle" alignment-baseline="central" x="-392.68027734561844" y="-765.3523872531183" font-size="50px" font-family="'Gill Sans', 'Gill Sans MT', Calibri, sans-serif">Answer</text></g><g class="caption"><text class="caption node" text-anchor="middle" alignment-baseline="central" x="126.17137298583984" y="-529.1702072143561" font-size="50px" font-family="'Gill Sans', 'Gill Sans MT', Calibri, sans-serif">Tag</text></g><g class="caption"><text class="caption node" text-anchor="middle" alignment-baseline="central" x="481.3790031433107" y="-180.9556799343025" font-size="50px" font-family="'Gill Sans', 'Gill Sans MT', Calibri, sans-serif">Tag</text></g></g><g class="layer properties"><g class="speech-bubble node-speech-bubble" transform="translate(-269.05907414224805,-63.93846375203513) "><path class="speech-bubble-outline" transform="scale(1,1) " d="M 0 0 L -10 20 L -262.07275390625 20 A 10 10 0 0 0 -272.07275390625 30 L -272.07275390625 330 A 10 10 0 0 0 -262.07275390625 340 L 262.07275390625 340 A 10 10 0 0 0 272.07275390625 330 L 272.07275390625 30 A 10 10 0 0 0 262.07275390625 20 L 10 20 Z" fill="rgb(255, 255, 255)" stroke="rgb(0, 0, 0)" stroke-width="3px"/><text class="speech-bubble-content property-key" x="-84.14306640625" y="55" alignment-baseline="central" text-anchor="end" font-size="50px" font-family="'Gill Sans', 'Gill Sans MT', Calibri, sans-serif" xml:space="preserve">id: </text><text class="speech-bubble-content property-key" x="-84.14306640625" y="105" alignment-baseline="central" text-anchor="end" font-size="50px" font-family="'Gill Sans', 'Gill Sans MT', Calibri, sans-serif" xml:space="preserve">title: </text><text class="speech-bubble-content property-key" x="-84.14306640625" y="155" alignment-baseline="central" text-anchor="end" font-size="50px" font-family="'Gill Sans', 'Gill Sans MT', Calibri, sans-serif" xml:space="preserve">votes: </text><text class="speech-bubble-content property-key" x="-84.14306640625" y="205" alignment-baseline="central" text-anchor="end" font-size="50px" font-family="'Gill Sans', 'Gill Sans MT', Calibri, sans-serif" xml:space="preserve">created: </text><text class="speech-bubble-content property-key" x="-84.14306640625" y="255" alignment-baseline="central" text-anchor="end" font-size="50px" font-family="'Gill Sans', 'Gill Sans MT', Calibri, sans-serif" xml:space="preserve">stars: </text><text class="speech-bubble-content property-key" x="-84.14306640625" y="305" alignment-baseline="central" text-anchor="end" font-size="50px" font-family="'Gill Sans', 'Gill Sans MT', Calibri, sans-serif" xml:space="preserve">closed: </text><text class="speech-bubble-content property-value" x="-84.14306640625" y="55" alignment-baseline="central" font-size="50px" font-family="'Gill Sans', 'Gill Sans MT', Calibri, sans-serif">234234</text><text class="speech-bubble-content property-value" x="-84.14306640625" y="105" alignment-baseline="central" font-size="50px" font-family="'Gill Sans', 'Gill Sans MT', Calibri, sans-serif">"A question"</text><text class="speech-bubble-content property-value" x="-84.14306640625" y="155" alignment-baseline="central" font-size="50px" font-family="'Gill Sans', 'Gill Sans MT', Calibri, sans-serif">[up, down]</text><text class="speech-bubble-content property-value" x="-84.14306640625" y="205" alignment-baseline="central" font-size="50px" font-family="'Gill Sans', 'Gill Sans MT', Calibri, sans-serif">01-01-2014 1700</text><text class="speech-bubble-content property-value" x="-84.14306640625" y="255" alignment-baseline="central" font-size="50px" font-family="'Gill Sans', 'Gill Sans MT', Calibri, sans-serif">2</text><text class="speech-bubble-content property-value" x="-84.14306640625" y="305" alignment-baseline="central" font-size="50px" font-family="'Gill Sans', 'Gill Sans MT', Calibri, sans-serif">true</text></g><g class="speech-bubble node-speech-bubble" transform="translate(-1065.4455823031121,-383.3347840801992) "><path class="speech-bubble-outline" transform="scale(-1,1) " d="M 0 0 L 20 -10 L 20 -75 A 10 10 0 0 1 30 -85 L 319.94140625 -85 A 10 10 0 0 1 329.94140625 -75 L 329.94140625 75 A 10 10 0 0 1 319.94140625 85 L 30 85 A 10 10 0 0 1 20 75 L 20 10 Z" fill="rgb(255, 255, 255)" stroke="rgb(0, 0, 0)" stroke-width="3px"/><text class="speech-bubble-content property-key" x="-180" y="-50" alignment-baseline="central" text-anchor="end" font-size="50px" font-family="'Gill Sans', 'Gill Sans MT', Calibri, sans-serif" xml:space="preserve">name: </text><text class="speech-bubble-content property-key" x="-180" y="0" alignment-baseline="central" text-anchor="end" font-size="50px" font-family="'Gill Sans', 'Gill Sans MT', Calibri, sans-serif" xml:space="preserve">id: </text><text class="speech-bubble-content property-key" x="-180" y="50" alignment-baseline="central" text-anchor="end" font-size="50px" font-family="'Gill Sans', 'Gill Sans MT', Calibri, sans-serif" xml:space="preserve">rating: </text><text class="speech-bubble-content property-value" x="-180" y="-50" alignment-baseline="central" font-size="50px" font-family="'Gill Sans', 'Gill Sans MT', Calibri, sans-serif">"User"</text><text class="speech-bubble-content property-value" x="-180" y="0" alignment-baseline="central" font-size="50px" font-family="'Gill Sans', 'Gill Sans MT', Calibri, sans-serif">234234</text><text class="speech-bubble-content property-value" x="-180" y="50" alignment-baseline="central" font-size="50px" font-family="'Gill Sans', 'Gill Sans MT', Calibri, sans-serif">123213</text></g><g class="speech-bubble node-speech-bubble" transform="translate(-320.88941272514427,-837.1432518735925) "><path class="speech-bubble-outline" transform="scale(1,-1) " d="M 0 0 L 30 20 L 554.1455078125 20 A 10 10 0 0 1 564.1455078125 30 L 564.1455078125 180 A 10 10 0 0 1 554.1455078125 190 L 30 190 A 10 10 0 0 1 20 180 L 20 30 Z" fill="rgb(255, 255, 255)" stroke="rgb(0, 0, 0)" stroke-width="3px"/><text class="speech-bubble-content property-key" x="207.9296875" y="-155" alignment-baseline="central" text-anchor="end" font-size="50px" font-family="'Gill Sans', 'Gill Sans MT', Calibri, sans-serif" xml:space="preserve">id: </text><text class="speech-bubble-content property-key" x="207.9296875" y="-105" alignment-baseline="central" text-anchor="end" font-size="50px" font-family="'Gill Sans', 'Gill Sans MT', Calibri, sans-serif" xml:space="preserve">votes: </text><text class="speech-bubble-content property-key" x="207.9296875" y="-55" alignment-baseline="central" text-anchor="end" font-size="50px" font-family="'Gill Sans', 'Gill Sans MT', Calibri, sans-serif" xml:space="preserve">created: </text><text class="speech-bubble-content property-value" x="207.9296875" y="-155" alignment-baseline="central" font-size="50px" font-family="'Gill Sans', 'Gill Sans MT', Calibri, sans-serif">32934</text><text class="speech-bubble-content property-value" x="207.9296875" y="-105" alignment-baseline="central" font-size="50px" font-family="'Gill Sans', 'Gill Sans MT', Calibri, sans-serif">[up,down]</text><text class="speech-bubble-content property-value" x="207.9296875" y="-55" alignment-baseline="central" font-size="50px" font-family="'Gill Sans', 'Gill Sans MT', Calibri, sans-serif">01-01-2014 1700</text></g><g class="speech-bubble node-speech-bubble" transform="translate(126.17137298583984,-592.359877839792) "><path class="speech-bubble-outline" transform="scale(1,-1) " d="M 0 0 L -10 20 L -120.98388671875 20 A 10 10 0 0 0 -130.98388671875 30 L -130.98388671875 80 A 10 10 0 0 0 -120.98388671875 90 L 120.98388671875 90 A 10 10 0 0 0 130.98388671875 80 L 130.98388671875 30 A 10 10 0 0 0 120.98388671875 20 L 10 20 Z" fill="rgb(255, 255, 255)" stroke="rgb(0, 0, 0)" stroke-width="3px"/><text class="speech-bubble-content property-key" x="12.70751953125" y="-55" alignment-baseline="central" text-anchor="end" font-size="50px" font-family="'Gill Sans', 'Gill Sans MT', Calibri, sans-serif" xml:space="preserve">name: </text><text class="speech-bubble-content property-value" x="12.70751953125" y="-55" alignment-baseline="central" font-size="50px" font-family="'Gill Sans', 'Gill Sans MT', Calibri, sans-serif">"Tag"</text></g></g><g class="layer overlay"><circle class="node overlay" r="121.01721618226738" stroke="none" fill="rgba(255, 255, 255, 0)" cx="-269.05907414224805" cy="-180.9556799343025"/><circle class="node overlay" r="78.18226787956077" stroke="none" fill="rgba(255, 255, 255, 0)" cx="-991.2633144235513" cy="-383.3347840801992"/><circle class="node overlay" r="105.52761440076534" stroke="none" fill="rgba(255, 255, 255, 0)" cx="-392.68027734561844" cy="-765.3523872531183"/><circle class="node overlay" r="67.1896706254359" stroke="none" fill="rgba(255, 255, 255, 0)" cx="126.17137298583984" cy="-529.1702072143561"/><circle class="node overlay" r="67.1896706254359" stroke="none" fill="rgba(255, 255, 255, 0)" cx="481.3790031433107" cy="-180.9556799343025"/><circle class="node ring" r="126.01721618226738" fill="none" stroke="rgba(255, 255, 255, 0)" stroke-width="10px" cx="-269.05907414224805" cy="-180.9556799343025"/><circle class="node ring" r="83.18226787956077" fill="none" stroke="rgba(255, 255, 255, 0)" stroke-width="10px" cx="-991.2633144235513" cy="-383.3347840801992"/><circle class="node ring" r="110.52761440076534" fill="none" stroke="rgba(255, 255, 255, 0)" stroke-width="10px" cx="-392.68027734561844" cy="-765.3523872531183"/><circle class="node ring" r="72.1896706254359" fill="none" stroke="rgba(255, 255, 255, 0)" stroke-width="10px" cx="126.17137298583984" cy="-529.1702072143561"/><circle class="node ring" r="72.1896706254359" fill="none" stroke="rgba(255, 255, 255, 0)" stroke-width="10px" cx="481.3790031433107" cy="-180.9556799343025"/><path class="relationship overlay" fill="rgba(255, 255, 255, 0)" stroke="rgba(255, 255, 255, 0)" stroke-width="10px" transform="translate(-991.2633144235513,-383.3347840801992) rotate(15.654157492871073)" d="M 87.25416552703285,-18.87293041164747 L 88.59338925735562,-10.985821955429794 A 1635.4966647646793 1635.4966647646793 0 0 1 587.0119770781865,-18.56528469815753 L 585.3638054888162,-6.6790098228236925 L 619.2581006088669,-18.132252084947908 L 589.7589297271371,-38.37574282371393 L 588.1107581377668,-26.489467948380092 A 1643.4966647646793 1643.4966647646793 0 0 0 87.25416552703285,-18.87293041164747"/><path class="relationship overlay" fill="rgba(255, 255, 255, 0)" stroke="rgba(255, 255, 255, 0)" stroke-width="10px" transform="translate(-991.2633144235513,-383.3347840801992) rotate(15.654157492871073)" d="M 87.25416552703285,18.87293041164747 L 88.59338925735562,10.985821955429794 A 1635.4966647646793 1635.4966647646793 0 0 0 587.0119770781865,18.56528469815753 L 585.3638054888162,6.6790098228236925 L 619.2581006088669,18.132252084947908 L 589.7589297271371,38.37574282371393 L 588.1107581377668,26.489467948380092 A 1643.4966647646793 1643.4966647646793 0 0 1 87.25416552703285,18.87293041164747"/><path class="relationship overlay" fill="rgba(255, 255, 255, 0)" stroke="rgba(255, 255, 255, 0)" stroke-width="10px" transform="translate(-392.68027734561844,-765.3523872531183) rotate(78.05593328304464)" d="M 116.52761440076534 4 L 433.31159896607505 4 L 433.31159896607505 16 L 465.31159896607505 0 L 433.31159896607505 -16 L 433.31159896607505 -4 L 116.52761440076534 -4 Z"/><path class="relationship overlay" fill="rgba(255, 255, 255, 0)" stroke="rgba(255, 255, 255, 0)" stroke-width="10px" transform="translate(-991.2633144235513,-383.3347840801992) rotate(-32.546148800675276)" d="M 87.25416552703285,-18.87293041164747 L 88.59338925735562,-10.985821955429794 A 1532.365125449644 1532.365125449644 0 0 1 562.5050865510945,-17.111350413677126 L 560.8027045829082,-5.232718521308632 L 594.7488989201393,-16.531209129303 L 565.3423898314051,-36.909070234291285 L 563.6400078632188,-25.030438341922792 A 1540.365125449644 1540.365125449644 0 0 0 87.25416552703285,-18.87293041164747"/><path class="relationship overlay" fill="rgba(255, 255, 255, 0)" stroke="rgba(255, 255, 255, 0)" stroke-width="10px" transform="translate(-991.2633144235513,-383.3347840801992) rotate(-32.546148800675276)" d="M 87.25416552703285,18.87293041164747 L 88.59338925735562,10.985821955429794 A 1532.365125449644 1532.365125449644 0 0 0 562.5050865510945,17.111350413677126 L 560.8027045829082,5.232718521308632 L 594.7488989201393,16.531209129303 L 565.3423898314051,36.909070234291285 L 563.6400078632188,25.030438341922792 A 1540.365125449644 1540.365125449644 0 0 1 87.25416552703285,18.87293041164747"/><path class="relationship overlay" fill="rgba(255, 255, 255, 0)" stroke="rgba(255, 255, 255, 0)" stroke-width="10px" transform="translate(-269.05907414224805,-180.9556799343025) rotate(-41.381398393176106)" d="M 132.01721618226736 4 L 416.5554891491361 4 L 416.5554891491361 16 L 448.5554891491361 0 L 416.5554891491361 -16 L 416.5554891491361 -4 L 132.01721618226736 -4 Z"/><path class="relationship overlay" fill="rgba(255, 255, 255, 0)" stroke="rgba(255, 255, 255, 0)" stroke-width="10px" transform="translate(126.17137298583984,-529.1702072143561) rotate(44.430410206775726)" d="M 78.1896706254359 4 L 387.2294861537916 4 L 387.2294861537916 16 L 419.2294861537916 0 L 387.2294861537916 -16 L 387.2294861537916 -4 L 78.1896706254359 -4 Z"/></g></svg>